SplineFontDB: 3.2
FontName: Livingstone
FullName: Livingstone
FamilyName: Livingstone
Weight: Book
Copyright: (c) Christine Mauerkirchner und Rainer Grunert, Schwalbach, 1995
Version: Macromedia Fontographer 4.1 01.07.1995
ItalicAngle: 0
UnderlinePosition: -340
UnderlineWidth: 80
Ascent: 1638
Descent: 410
InvalidEm: 0
sfntRevision: 0x00010000
LayerCount: 2
Layer: 0 1 "Warstwa t+AUIA-a" 1
Layer: 1 1 "Plan pierwszy" 0
XUID: [1021 282 -603068114 20162]
StyleMap: 0x0040
FSType: 1
OS2Version: 0
OS2_WeightWidthSlopeOnly: 0
OS2_UseTypoMetrics: 0
CreationTime: 804561136
ModificationTime: 1603749754
PfmFamily: 81
TTFWeight: 400
TTFWidth: 5
LineGap: 75
VLineGap: 0
Panose: 0 0 4 0 0 0 0 0 0 0
OS2TypoAscent: 1609
OS2TypoAOffset: 0
OS2TypoDescent: -614
OS2TypoDOffset: 0
OS2TypoLinegap: 75
OS2WinAscent: 1609
OS2WinAOffset: 0
OS2WinDescent: 456
OS2WinDOffset: 0
HheadAscent: 1609
HheadAOffset: 0
HheadDescent: -614
HheadDOffset: 0
OS2SubXSize: 1434
OS2SubYSize: 1331
OS2SubXOff: 0
OS2SubYOff: 293
OS2SupXSize: 1434
OS2SupYSize: 1331
OS2SupXOff: 0
OS2SupYOff: 928
OS2StrikeYSize: 102
OS2StrikeYPos: 530
OS2Vendor: 'Alts'
OS2UnicodeRanges: 00000000.00000000.00000000.00000000
Lookup: 258 0 0 "'kern' Kerning poziomy w +AUIA-aci+AUQA-skie w tablicy 0" { "Podtablica 'kern' Kerning poziomy w +AUIA-aci+AUQA-skie w tablicy 0"  } ['kern' ('DFLT' <'dflt' > 'latn' <'dflt' > ) ]
DEI: 91125
TtTable: prep
NPUSHB
 21
 13
 13
 12
 12
 11
 11
 10
 10
 9
 9
 8
 8
 3
 3
 2
 2
 1
 1
 0
 0
 0
SCANTYPE
PUSHW_1
 511
SCANCTRL
RCVT
ROUND[Grey]
WCVTP
RCVT
ROUND[Grey]
WCVTP
RCVT
ROUND[Grey]
WCVTP
RCVT
ROUND[Grey]
WCVTP
RCVT
ROUND[Grey]
WCVTP
RCVT
ROUND[Grey]
WCVTP
RCVT
ROUND[Grey]
WCVTP
RCVT
ROUND[Grey]
WCVTP
RCVT
ROUND[Grey]
WCVTP
RCVT
ROUND[Grey]
WCVTP
PUSHB_4
 5
 4
 70
 0
CALL
PUSHB_4
 7
 6
 70
 0
CALL
PUSHB_2
 4
 4
RCVT
ROUND[Grey]
WCVTP
PUSHB_2
 6
 6
RCVT
ROUND[Grey]
WCVTP
EndTTInstrs
TtTable: fpgm
NPUSHB
 1
 0
FDEF
SROUND
RCVT
DUP
PUSHB_1
 3
CINDEX
RCVT
SWAP
SUB
ROUND[Grey]
RTG
SWAP
ROUND[Grey]
ADD
WCVTP

StartChar: .notdef
Encoding: 65536 -1 0
Width: 1024
Flags: W
LayerCount: 2
Fore
SplineSet
128 0 m 1,0,-1
 128 1434 l 1,1,-1
 896 1434 l 1,2,-1
 896 0 l 1,3,-1
 128 0 l 1,0,-1
256 128 m 1,4,-1
 768 128 l 1,5,-1
 768 1306 l 1,6,-1
 256 1306 l 1,7,-1
 256 128 l 1,4,-1
EndSplineSet
EndChar

StartChar: exclam
Encoding: 33 33 4
Width: 399
Flags: W
LayerCount: 2
Fore
SplineSet
452 1304 m 1,0,1
 408 1252 408 1252 398 1209 c 0,2,3
 391 1182 391 1182 391 1100 c 2,4,-1
 391 742 l 2,5,6
 391 545 391 545 335 460 c 0,7,8
 298 404 298 404 120 267 c 1,9,-1
 89 304 l 1,10,11
 137 362 137 362 149 385 c 0,12,13
 169 424 169 424 169 484 c 0,14,15
 169 554 169 554 160.5 695 c 128,-1,16
 152 836 152 836 152 907 c 0,17,18
 152 1057 152 1057 226 1157 c 0,19,20
 270 1216 270 1216 421 1335 c 1,21,-1
 452 1304 l 1,0,1
358 163 m 1,22,-1
 209 19 l 1,23,-1
 104 129 l 1,24,-1
 255 275 l 1,25,-1
 358 163 l 1,22,-1
EndSplineSet
EndChar

StartChar: quotedbl
Encoding: 34 34 5
Width: 504
Flags: W
LayerCount: 2
Fore
SplineSet
191 873 m 1,0,1
 174 990 174 990 156 1106 c 0,2,3
 131 1278 131 1278 131 1350 c 0,4,5
 131 1462 131 1462 207 1462 c 0,6,7
 285 1462 285 1462 285 1343 c 0,8,9
 285 1249 285 1249 264 1108 c 0,10,11
 247 991 247 991 230 873 c 1,12,-1
 191 873 l 1,0,1
408 873 m 1,13,14
 389 990 389 990 371 1107 c 0,15,16
 346 1268 346 1268 346 1348 c 0,17,18
 346 1462 346 1462 422 1462 c 0,19,20
 501 1462 501 1462 501 1339 c 0,21,22
 501 1245 501 1245 480 1106 c 0,23,24
 462 989 462 989 445 873 c 1,25,-1
 408 873 l 1,13,14
EndSplineSet
EndChar

StartChar: numbersign
Encoding: 35 35 6
Width: 1273
Flags: W
LayerCount: 2
Fore
SplineSet
806 1144 m 1,0,-1
 681 789 l 1,1,-1
 895 789 l 1,2,-1
 1023 1144 l 1,3,-1
 1154 1144 l 1,4,-1
 1029 789 l 1,5,-1
 1276 789 l 1,6,-1
 1239 687 l 1,7,-1
 990 687 l 1,8,-1
 911 462 l 1,9,-1
 1158 462 l 1,10,-1
 1121 360 l 1,11,-1
 874 360 l 1,12,-1
 746 0 l 1,13,-1
 611 0 l 1,14,-1
 742 360 l 1,15,-1
 526 360 l 1,16,-1
 396 0 l 1,17,-1
 265 0 l 1,18,-1
 394 360 l 1,19,-1
 149 360 l 1,20,-1
 184 462 l 1,21,-1
 431 462 l 1,22,-1
 512 687 l 1,23,-1
 265 687 l 1,24,-1
 302 789 l 1,25,-1
 549 789 l 1,26,-1
 673 1144 l 1,27,-1
 806 1144 l 1,0,-1
777 462 m 1,28,-1
 860 687 l 1,29,-1
 642 687 l 1,30,-1
 563 462 l 1,31,-1
 777 462 l 1,28,-1
EndSplineSet
EndChar

StartChar: dollar
Encoding: 36 36 7
Width: 864
Flags: W
LayerCount: 2
Fore
SplineSet
514 1158 m 1,0,1
 655 1154 655 1154 719 1123 c 0,2,3
 815 1077 815 1077 806 957 c 2,4,-1
 804 929 l 1,5,-1
 605 887 l 1,6,7
 626 936 626 936 626 971 c 0,8,9
 626 1012 626 1012 590.5 1055 c 128,-1,10
 555 1098 555 1098 514 1106 c 1,11,-1
 514 733 l 1,12,13
 597 701 597 701 679 669 c 0,14,15
 772 631 772 631 814 585 c 0,16,17
 870 525 870 525 870 425 c 0,18,19
 870 261 870 261 766 158 c 0,20,21
 694 88 694 88 514 6 c 1,22,-1
 514 -283 l 1,23,-1
 454 -283 l 1,24,-1
 454 -8 l 1,25,26
 328 -3 328 -3 131 137 c 1,27,-1
 236 279 l 1,28,29
 361 192 361 192 454 140 c 1,30,-1
 454 512 l 1,31,32
 379 540 379 540 303 569 c 0,33,34
 216 604 216 604 176 646 c 0,35,36
 123 702 123 702 123 792 c 0,37,38
 123 1083 123 1083 454 1154 c 1,39,-1
 454 1421 l 1,40,-1
 514 1421 l 1,41,-1
 514 1158 l 1,0,1
454 758 m 1,42,-1
 454 1108 l 1,43,44
 289 1098 289 1098 289 887 c 0,45,46
 289 831 289 831 347 799 c 1,47,48
 401 778 401 778 454 758 c 1,42,-1
514 492 m 1,49,-1
 514 117 l 1,50,51
 549 114 549 114 567 114 c 0,52,53
 737 114 737 114 737 291 c 0,54,55
 737 386 737 386 668 431 c 0,56,57
 651 442 651 442 514 492 c 1,49,-1
EndSplineSet
EndChar

StartChar: percent
Encoding: 37 37 8
Width: 1106
Flags: W
LayerCount: 2
Fore
SplineSet
974 1298 m 1,0,-1
 1079 1235 l 1,1,2
 832 932 832 932 338 0 c 1,3,-1
 207 65 l 1,4,5
 342 237 342 237 591 634 c 0,6,7
 866 1071 866 1071 909 1212 c 1,8,9
 814 1174 814 1174 605 1137 c 1,10,11
 613 1094 613 1094 613 1044 c 0,12,13
 613 847 613 847 508 754 c 0,14,15
 401 658 401 658 339 658 c 0,16,17
 241 658 241 658 177 750 c 0,18,19
 119 832 119 832 119 932 c 0,20,21
 119 1083 119 1083 178 1162 c 0,22,23
 221 1221 221 1221 363 1308 c 1,24,25
 465 1305 465 1305 566 1212 c 1,26,27
 754 1212 754 1212 974 1298 c 1,0,-1
1122 327 m 0,28,29
 1122 156 1122 156 1034 77 c 0,30,31
 1016 60 1016 60 952 18 c 0,32,33
 882 -29 882 -29 870 -29 c 0,34,35
 768 -29 768 -29 699 66 c 0,36,37
 637 152 637 152 637 257 c 0,38,39
 637 373 637 373 684 448 c 0,40,41
 693 462 693 462 763.5 519.5 c 128,-1,42
 834 577 834 577 851 585 c 0,43,44
 858 588 858 588 869 588 c 0,45,46
 988 588 988 588 1055 517 c 128,-1,47
 1122 446 1122 446 1122 327 c 0,28,29
427 717 m 1,48,49
 505 792 505 792 505 949 c 0,50,51
 505 1046 505 1046 472 1118 c 1,52,-1
 418 1118 l 1,53,-1
 404 1183 l 1,54,55
 357 1221 357 1221 286 1221 c 1,56,57
 222 1174 222 1174 222 1001 c 0,58,59
 222 719 222 719 427 717 c 1,48,49
940 44 m 1,60,61
 1015 151 1015 151 1015 265 c 0,62,63
 1015 504 1015 504 804 525 c 1,64,65
 753 437 753 437 753 320 c 0,66,67
 753 106 753 106 940 44 c 1,60,61
EndSplineSet
EndChar

StartChar: ampersand
Encoding: 38 38 9
Width: 1280
Flags: W
LayerCount: 2
Fore
SplineSet
787 1017 m 1,0,1
 721 1135 721 1135 603 1168 c 1,2,3
 563 1122 563 1122 563 1061 c 0,4,5
 563 1007 563 1007 644 879 c 1,6,7
 485 772 485 772 448 733 c 0,8,9
 363 644 363 644 363 510 c 0,10,11
 363 340 363 340 472 245 c 0,12,13
 576 153 576 153 750 153 c 0,14,15
 823 153 823 153 851 187 c 0,16,17
 876 218 876 218 876 293 c 0,18,19
 876 396 876 396 824 535 c 1,20,21
 666 527 666 527 629 519 c 0,22,23
 521 494 521 494 479 410 c 1,24,-1
 439 427 l 1,25,26
 527 585 527 585 590 654 c 0,27,28
 657 728 657 728 800 753 c 1,29,30
 931 771 931 771 1061 789 c 1,31,32
 1216 819 1216 819 1305 902 c 1,33,34
 1311 879 1311 879 1311 861 c 0,35,36
 1311 672 1311 672 1088 585 c 1,37,38
 1091 562 1091 562 1109 495 c 0,39,40
 1124 438 1124 438 1124 405 c 0,41,42
 1124 275 1124 275 873 125 c 0,43,44
 640 -14 640 -14 498 -14 c 0,45,46
 352 -14 352 -14 236 131 c 0,47,48
 126 267 126 267 126 416 c 0,49,50
 126 635 126 635 381 796 c 1,51,52
 329 889 329 889 329 954 c 0,53,54
 329 1010 329 1010 352 1058 c 0,55,56
 387 1133 387 1133 547 1223 c 0,57,58
 703 1309 703 1309 791 1309 c 0,59,60
 954 1309 954 1309 996 1162 c 1,61,-1
 787 1017 l 1,0,1
EndSplineSet
EndChar

StartChar: quotesingle
Encoding: 39 39 10
Width: 372
Flags: W
LayerCount: 2
Fore
SplineSet
379 1281 m 1,0,-1
 188 1004 l 1,1,-1
 145 1004 l 1,2,3
 202 1093 202 1093 202 1131 c 0,4,5
 202 1165 202 1165 145 1204 c 1,6,-1
 255 1369 l 1,7,-1
 379 1281 l 1,0,-1
EndSplineSet
EndChar

StartChar: parenleft
Encoding: 40 40 11
Width: 639
Flags: W
LayerCount: 2
Fore
SplineSet
499 1421 m 1,0,1
 365 1281 365 1281 365 1114 c 0,2,3
 365 977 365 977 375 701 c 128,-1,4
 385 425 385 425 385 288 c 0,5,6
 385 190 385 190 327 40 c 1,7,8
 446 -44 446 -44 516 -44 c 0,9,10
 556 -44 556 -44 623 -19 c 1,11,-1
 632 -45 l 1,12,-1
 632 -44 l 1,13,14
 583 -103 583 -103 534 -162 c 1,15,16
 465 -234 465 -234 409 -234 c 0,17,18
 377 -234 377 -234 304.5 -188.5 c 128,-1,19
 232 -143 232 -143 188 -143 c 0,20,21
 170 -143 170 -143 153 -148 c 1,22,-1
 130 -123 l 1,23,24
 174 -23 174 -23 174 88 c 0,25,26
 174 220 174 220 167 484.5 c 128,-1,27
 160 749 160 749 160 881 c 0,28,29
 160 1075 160 1075 242 1208 c 0,30,31
 307 1314 307 1314 478 1452 c 1,32,-1
 499 1421 l 1,0,1
EndSplineSet
EndChar

StartChar: parenright
Encoding: 41 41 12
Width: 639
Flags: W
LayerCount: 2
Fore
SplineSet
160 -235 m 1,0,-1
 139 -196 l 1,1,2
 321 -71 321 -71 345 -39 c 0,3,4
 397 28 397 28 397 211 c 0,5,6
 397 227 397 227 385 1185 c 1,7,8
 343 1181 343 1181 321 1181 c 0,9,10
 289 1181 289 1181 227.5 1194 c 128,-1,11
 166 1207 166 1207 135 1208 c 1,12,-1
 79 1166 l 1,13,-1
 56 1193 l 1,14,15
 254 1402 254 1402 317 1402 c 0,16,17
 337 1402 337 1402 503 1364 c 1,18,19
 553 1387 553 1387 648 1444 c 1,20,21
 626 1339 626 1339 623 1098 c 1,22,23
 614 878 614 878 599 437 c 0,24,25
 592 195 592 195 485 34 c 0,26,27
 380 -123 380 -123 160 -235 c 1,0,-1
EndSplineSet
EndChar

StartChar: asterisk
Encoding: 42 42 13
Width: 504
Flags: W
LayerCount: 2
Fore
SplineSet
385 1318 m 1,0,1
 348 1274 348 1274 351 1228 c 2,2,-1
 352 1210 l 1,3,4
 406 1275 406 1275 449 1275 c 1,5,-1
 489 1171 l 1,6,7
 455 1176 455 1176 446 1176 c 0,8,9
 435 1176 435 1176 383 1160 c 1,10,11
 433 1131 433 1131 464 1079 c 1,12,-1
 375 1014 l 1,13,-1
 375 1019 l 2,14,15
 376 1078 376 1078 331 1116 c 1,16,17
 317 1049 317 1049 284 1010 c 1,18,-1
 193 1079 l 1,19,20
 245 1105 245 1105 276 1154 c 1,21,22
 247 1149 247 1149 232 1149 c 0,23,24
 205 1149 205 1149 162 1177 c 1,25,-1
 207 1281 l 1,26,27
 229 1250 229 1250 243 1237 c 0,28,29
 267 1216 267 1216 294 1216 c 1,30,31
 270 1264 270 1264 270 1287 c 0,32,33
 270 1303 270 1303 276 1333 c 1,34,-1
 385 1318 l 1,0,1
EndSplineSet
EndChar

StartChar: plus
Encoding: 43 43 14
Width: 1147
Flags: W
LayerCount: 2
Fore
SplineSet
742 1010 m 1,0,-1
 742 598 l 1,1,-1
 1146 598 l 1,2,-1
 1146 408 l 1,3,-1
 742 408 l 1,4,-1
 742 0 l 1,5,-1
 551 0 l 1,6,-1
 551 408 l 1,7,-1
 143 408 l 1,8,-1
 143 598 l 1,9,-1
 551 598 l 1,10,-1
 551 1010 l 1,11,-1
 742 1010 l 1,0,-1
EndSplineSet
EndChar

StartChar: comma
Encoding: 44 44 15
Width: 372
Flags: W
LayerCount: 2
Fore
SplineSet
369 192 m 1,0,-1
 203 -125 l 1,1,-1
 160 -125 l 1,2,3
 206 -38 206 -38 206 12 c 0,4,5
 206 49 206 49 143 88 c 1,6,-1
 234 264 l 1,7,-1
 369 192 l 1,0,-1
EndSplineSet
EndChar

StartChar: hyphen
Encoding: 45 45 16
AltUni2: 002010.ffffffff.0
Width: 639
Flags: W
LayerCount: 2
Fore
SplineSet
632 775 m 1,0,1
 523 577 523 577 446 577 c 0,2,3
 418 577 418 577 363 580.5 c 128,-1,4
 308 584 308 584 281 584 c 0,5,6
 198 584 198 584 160 544 c 1,7,-1
 135 554 l 1,8,9
 243 695 243 695 261 707 c 0,10,11
 301 734 301 734 454 734 c 0,12,13
 567 734 567 734 601 775 c 1,14,-1
 632 775 l 1,0,1
EndSplineSet
EndChar

StartChar: period
Encoding: 46 46 17
Width: 372
Flags: W
LayerCount: 2
Fore
SplineSet
371 179 m 5,0,-1
 253 6 l 5,1,-1
 130 94 l 5,2,-1
 244 265 l 5,3,-1
 371 179 l 5,0,-1
EndSplineSet
EndChar

StartChar: slash
Encoding: 47 47 18
Width: 953
Flags: W
LayerCount: 2
Fore
SplineSet
833 1104 m 1,0,-1
 947 1104 l 1,1,-1
 240 -194 l 1,2,-1
 139 -194 l 1,3,-1
 116 -171 l 1,4,5
 154 -132 154 -132 191 -63 c 2,6,-1
 833 1104 l 1,0,-1
EndSplineSet
EndChar

StartChar: zero
Encoding: 48 48 19
Width: 1118
Flags: W
LayerCount: 2
Fore
SplineSet
115 547 m 0,0,1
 115 811 115 811 350 989 c 0,2,3
 517 1115 517 1115 620 1115 c 0,4,5
 840 1115 840 1115 991 942 c 0,6,7
 1134 777 1134 777 1134 555 c 0,8,9
 1134 195 1134 195 804 42 c 0,10,11
 703 -5 703 -5 615 -5 c 0,12,13
 408 -5 408 -5 258 171 c 0,14,15
 115 338 115 338 115 547 c 0,0,1
795 96 m 1,16,17
 933 215 933 215 933 420 c 0,18,19
 933 671 933 671 817 810 c 0,20,21
 703 946 703 946 456 1000 c 1,22,23
 327 857 327 857 327 620 c 0,24,25
 327 404 327 404 453 265 c 128,-1,26
 579 126 579 126 795 96 c 1,16,17
EndSplineSet
EndChar

StartChar: one
Encoding: 49 49 20
Width: 1118
Flags: W
LayerCount: 2
Fore
SplineSet
845 77 m 1,0,-1
 845 37 l 1,1,-1
 543 -13 l 1,2,-1
 528 985 l 1,3,-1
 352 946 l 1,4,-1
 344 985 l 1,5,6
 576 1048 576 1048 762 1133 c 1,7,8
 762 1023 762 1023 759.5 802.5 c 128,-1,9
 757 582 757 582 757 471 c 0,10,11
 757 214 757 214 762 135 c 0,12,13
 766 73 766 73 810 73 c 0,14,15
 823 73 823 73 845 77 c 1,0,-1
EndSplineSet
EndChar

StartChar: two
Encoding: 50 50 21
Width: 1118
Flags: W
LayerCount: 2
Fore
SplineSet
1027 256 m 1,0,-1
 1054 237 l 1,1,2
 1020 160 1020 160 985 83 c 1,3,4
 936 -2 936 -2 857 -2 c 2,5,-1
 218 0 l 1,6,-1
 218 17 l 1,7,-1
 566 356 l 2,8,9
 676 463 676 463 708 506 c 0,10,11
 776 599 776 599 776 696 c 0,12,13
 776 827 776 827 697 912 c 0,14,15
 615 998 615 998 485 998 c 0,16,17
 436 998 436 998 371 969 c 1,18,19
 351 931 351 931 351 879 c 0,20,21
 351 849 351 849 366 800 c 0,22,23
 383 741 383 741 405 741 c 0,24,25
 418 741 418 741 437 748 c 1,26,-1
 454 716 l 1,27,-1
 261 619 l 1,28,29
 197 719 197 719 197 762 c 0,30,31
 197 868 197 868 350 995 c 0,32,33
 499 1116 499 1116 608 1116 c 0,34,35
 756 1116 756 1116 871 1005.5 c 128,-1,36
 986 895 986 895 986 749 c 0,37,38
 986 620 986 620 919 535 c 0,39,40
 883 490 883 490 746 387 c 2,41,-1
 478 183 l 1,42,-1
 783 183 l 2,43,44
 940 183 940 183 1027 256 c 1,0,-1
EndSplineSet
EndChar

StartChar: three
Encoding: 51 51 22
Width: 1118
Flags: W
LayerCount: 2
Fore
SplineSet
1040 354 m 0,0,1
 1040 184 1040 184 871 75 c 0,2,3
 723 -20 723 -20 541 -20 c 0,4,5
 447 -20 447 -20 358 41 c 0,6,7
 273 101 273 101 232 188 c 1,8,-1
 427 242 l 1,9,10
 553 33 553 33 652 33 c 0,11,12
 735 33 735 33 792 140 c 0,13,14
 840 230 840 230 840 322 c 0,15,16
 840 416 840 416 775 486.5 c 128,-1,17
 710 557 710 557 617 557 c 0,18,19
 597 557 597 557 516 542 c 1,20,-1
 508 585 l 1,21,22
 647 618 647 618 696 647 c 0,23,24
 785 701 785 701 785 809 c 0,25,26
 785 895 785 895 711 964 c 128,-1,27
 637 1033 637 1033 550 1033 c 0,28,29
 467 1033 467 1033 467 945 c 0,30,31
 467 911 467 911 503 844 c 1,32,-1
 323 787 l 1,33,34
 315 821 315 821 315 845 c 0,35,36
 315 944 315 944 394 1010 c 0,37,38
 415 1027 415 1027 510.5 1073.5 c 128,-1,39
 606 1120 606 1120 628 1123 c 0,40,41
 633 1124 633 1124 647 1124 c 0,42,43
 778 1124 778 1124 866 1067 c 0,44,45
 969 1001 969 1001 969 877 c 0,46,47
 969 789 969 789 917 731 c 0,48,49
 898 708 898 708 795 631 c 1,50,51
 901 600 901 600 966 533 c 0,52,53
 1040 458 1040 458 1040 354 c 0,0,1
EndSplineSet
EndChar

StartChar: four
Encoding: 52 52 23
Width: 1118
Flags: W
LayerCount: 2
Fore
SplineSet
955 377 m 1,0,1
 1033 377 1033 377 1073 383 c 1,2,-1
 955 288 l 1,3,-1
 957 29 l 1,4,-1
 739 -13 l 1,5,-1
 733 292 l 1,6,-1
 224 292 l 1,7,-1
 209 337 l 1,8,-1
 754 1096 l 1,9,-1
 953 1129 l 1,10,-1
 955 377 l 1,0,1
731 383 m 1,11,-1
 725 881 l 1,12,-1
 350 383 l 1,13,-1
 731 383 l 1,11,-1
EndSplineSet
EndChar

StartChar: five
Encoding: 53 53 24
Width: 1118
Flags: W
LayerCount: 2
Fore
SplineSet
1015 1119 m 1,0,1
 991 1045 991 1045 967 971 c 1,2,3
 934 914 934 914 833 914 c 2,4,-1
 439 914 l 1,5,-1
 344 625 l 1,6,7
 528 747 528 747 631 747 c 0,8,9
 768 747 768 747 874 650 c 0,10,11
 983 550 983 550 983 416 c 0,12,13
 983 244 983 244 791 88 c 0,14,15
 636 -38 636 -38 437 -102 c 1,16,-1
 421 -65 l 1,17,18
 589 30 589 30 661 104 c 0,19,20
 771 218 771 218 771 366 c 0,21,22
 771 601 771 601 452 601 c 0,23,24
 345 601 345 601 302 515 c 1,25,-1
 249 540 l 1,26,-1
 404 1102 l 1,27,-1
 925 1102 l 2,28,29
 965 1102 965 1102 990 1127 c 1,30,-1
 1015 1119 l 1,0,1
EndSplineSet
EndChar

StartChar: six
Encoding: 54 54 25
Width: 1118
Flags: W
LayerCount: 2
Fore
SplineSet
884 1191 m 1,0,1
 587 975 587 975 487 737 c 1,2,3
 725 810 725 810 729 810 c 0,4,5
 752 810 752 810 821 775 c 0,6,7
 883 744 883 744 909 723 c 0,8,9
 1052 610 1052 610 1052 426 c 0,10,11
 1052 250 1052 250 911.5 115.5 c 128,-1,12
 771 -19 771 -19 593 -19 c 0,13,14
 420 -19 420 -19 312 128 c 0,15,16
 214 260 214 260 214 439 c 0,17,18
 214 674 214 674 430 905 c 0,19,20
 603 1089 603 1089 856 1221 c 1,21,-1
 884 1191 l 1,0,1
567 707 m 0,22,23
 526 707 526 707 466 679 c 1,24,25
 420 578 420 578 420 467 c 0,26,27
 420 303 420 303 499 196 c 0,28,29
 535 147 535 147 594 104 c 0,30,31
 663 54 663 54 713 54 c 0,32,33
 794 54 794 54 846 139 c 0,34,35
 890 213 890 213 890 298 c 0,36,37
 890 436 890 436 799 565 c 0,38,39
 700 707 700 707 567 707 c 0,22,23
EndSplineSet
EndChar

StartChar: seven
Encoding: 55 55 26
Width: 1118
Flags: W
LayerCount: 2
Fore
SplineSet
342 1119 m 1,0,1
 353 1102 353 1102 519 1098 c 0,2,3
 636 1095 636 1095 838 1098 c 0,4,5
 1084 1102 1084 1102 1058 1102 c 1,6,7
 890 832 890 832 722 562 c 1,8,9
 517 212 517 212 452 0 c 1,10,-1
 296 0 l 1,11,12
 328 109 328 109 377 183 c 2,13,-1
 870 921 l 1,14,-1
 462 921 l 2,15,16
 373 921 373 921 282 867 c 1,17,-1
 269 875 l 1,18,-1
 323 1119 l 1,19,-1
 342 1119 l 1,0,1
EndSplineSet
EndChar

StartChar: eight
Encoding: 56 56 27
Width: 1118
Flags: W
LayerCount: 2
Fore
SplineSet
1026 350 m 0,0,1
 1026 191 1026 191 884 81 c 0,2,3
 751 -22 751 -22 586 -22 c 0,4,5
 441 -22 441 -22 340 55 c 0,6,7
 228 139 228 139 228 279 c 0,8,9
 228 371 228 371 287 441 c 0,10,11
 319 479 319 479 421 556 c 1,12,13
 341 598 341 598 311 638 c 0,14,15
 274 686 274 686 274 770 c 0,16,17
 274 895 274 895 340 970 c 0,18,19
 388 1025 388 1025 516 1093 c 0,20,21
 580 1126 580 1126 643 1126 c 0,22,23
 745 1126 745 1126 845 1057 c 0,24,25
 955 981 955 981 955 884 c 0,26,27
 955 795 955 795 902 731 c 0,28,29
 879 704 879 704 777 623 c 1,30,31
 916 558 916 558 952 527 c 0,32,33
 1026 463 1026 463 1026 350 c 0,0,1
505 1029 m 0,34,35
 449 1029 449 1029 415 982 c 0,36,37
 384 939 384 939 384 882 c 0,38,39
 384 805 384 805 527 731 c 1,40,41
 630 687 630 687 733 642 c 1,42,43
 823 722 823 722 823 801 c 0,44,45
 823 874 823 874 698 954 c 0,46,47
 583 1029 583 1029 505 1029 c 0,34,35
754 58 m 0,48,49
 810 58 810 58 854 134 c 0,50,51
 893 201 893 201 893 260 c 0,52,53
 893 356 893 356 724 440 c 0,54,55
 657 473 657 473 470 537 c 1,56,57
 367 475 367 475 367 374 c 0,58,59
 367 257 367 257 503 154 c 0,60,61
 632 58 632 58 754 58 c 0,48,49
EndSplineSet
EndChar

StartChar: nine
Encoding: 57 57 28
Width: 1118
Flags: W
LayerCount: 2
Fore
SplineSet
381 -54 m 1,0,1
 678 166 678 166 777 400 c 1,2,3
 697 371 697 371 534 327 c 1,4,5
 393 364 393 364 305 464 c 0,6,7
 212 570 212 570 212 711 c 0,8,9
 212 887 212 887 353 1022 c 128,-1,10
 494 1157 494 1157 673 1157 c 0,11,12
 845 1157 845 1157 952 1009 c 0,13,14
 1048 876 1048 876 1048 698 c 0,15,16
 1048 464 1048 464 833 233 c 0,17,18
 660 47 660 47 408 -83 c 1,19,-1
 381 -54 l 1,0,1
694 430 m 0,20,21
 738 430 738 430 798 460 c 1,22,23
 843 561 843 561 843 672 c 0,24,25
 843 837 843 837 766 941 c 0,26,27
 729 989 729 989 669 1033 c 0,28,29
 599 1085 599 1085 550 1085 c 0,30,31
 469 1085 469 1085 417 997 c 0,32,33
 372 922 372 922 372 837 c 0,34,35
 372 700 372 700 462 571 c 0,36,37
 562 430 562 430 694 430 c 0,20,21
EndSplineSet
EndChar

StartChar: colon
Encoding: 58 58 29
Width: 372
Flags: W
LayerCount: 2
Fore
SplineSet
385 179 m 1,0,-1
 267 6 l 1,1,-1
 143 94 l 1,2,-1
 257 265 l 1,3,-1
 385 179 l 1,0,-1
385 625 m 1,4,-1
 267 454 l 1,5,-1
 143 540 l 1,6,-1
 257 712 l 1,7,-1
 385 625 l 1,4,-1
EndSplineSet
EndChar

StartChar: semicolon
Encoding: 59 59 30
Width: 372
Flags: W
LayerCount: 2
Fore
SplineSet
369 192 m 1,0,-1
 203 -125 l 1,1,-1
 160 -125 l 1,2,3
 206 -38 206 -38 206 12 c 0,4,5
 206 49 206 49 143 88 c 1,6,-1
 234 264 l 1,7,-1
 369 192 l 1,0,-1
385 575 m 1,8,-1
 267 404 l 1,9,-1
 143 490 l 1,10,-1
 257 662 l 1,11,-1
 385 575 l 1,8,-1
EndSplineSet
EndChar

StartChar: less
Encoding: 60 60 31
Width: 887
Flags: W
LayerCount: 2
Fore
SplineSet
878 869 m 1,0,-1
 878 704 l 1,1,-1
 317 510 l 1,2,-1
 878 313 l 1,3,-1
 878 148 l 1,4,-1
 147 419 l 1,5,-1
 147 598 l 1,6,-1
 878 869 l 1,0,-1
EndSplineSet
EndChar

StartChar: equal
Encoding: 61 61 32
Width: 1061
Flags: W
LayerCount: 2
Fore
SplineSet
1069 631 m 1,0,-1
 157 631 l 1,1,-1
 157 823 l 1,2,-1
 1069 823 l 1,3,-1
 1069 631 l 1,0,-1
1069 185 m 1,4,-1
 157 185 l 1,5,-1
 157 377 l 1,6,-1
 1069 377 l 1,7,-1
 1069 185 l 1,4,-1
EndSplineSet
EndChar

StartChar: greater
Encoding: 62 62 33
Width: 887
Flags: W
LayerCount: 2
Fore
SplineSet
153 148 m 1,0,-1
 153 314 l 1,1,-1
 713 510 l 1,2,-1
 153 704 l 1,3,-1
 153 869 l 1,4,-1
 884 598 l 1,5,-1
 884 419 l 1,6,-1
 153 148 l 1,0,-1
EndSplineSet
EndChar

StartChar: question
Encoding: 63 63 34
Width: 701
Flags: W
LayerCount: 2
Fore
SplineSet
646 433 m 1,0,1
 483 279 483 279 411 279 c 0,2,3
 372 279 372 279 327 336 c 0,4,5
 285 390 285 390 285 430 c 0,6,7
 285 498 285 498 383.5 627 c 128,-1,8
 482 756 482 756 482 849 c 0,9,10
 482 920 482 920 433 990 c 0,11,12
 379 1067 379 1067 311 1067 c 0,13,14
 247 1067 247 1067 155 973 c 1,15,-1
 110 996 l 1,16,17
 345 1272 345 1272 490 1272 c 0,18,19
 572 1272 572 1272 640 1213 c 0,20,21
 710 1151 710 1151 710 1069 c 0,22,23
 710 990 710 990 597.5 831 c 128,-1,24
 485 672 485 672 485 581 c 0,25,26
 485 533 485 533 522.5 489 c 128,-1,27
 560 445 560 445 607 445 c 0,28,29
 618 445 618 445 628 448 c 1,30,-1
 646 433 l 1,0,1
580 129 m 1,31,-1
 421 -6 l 1,32,-1
 327 110 l 1,33,-1
 479 244 l 1,34,-1
 580 129 l 1,31,-1
EndSplineSet
EndChar

StartChar: at
Encoding: 64 64 35
Width: 1625
Flags: W
LayerCount: 2
Fore
SplineSet
487 506 m 0,0,1
 487 687 487 687 608 839 c 0,2,3
 736 1001 736 1001 914 1001 c 0,4,5
 1062 1001 1062 1001 1121 866 c 1,6,-1
 1154 971 l 1,7,-1
 1365 971 l 1,8,9
 1320 826 1320 826 1275 681 c 0,10,11
 1214 476 1214 476 1214 401 c 0,12,13
 1214 333 1214 333 1279 333 c 0,14,15
 1415 333 1415 333 1494 488 c 0,16,17
 1559 615 1559 615 1559 765 c 0,18,19
 1559 1000 1559 1000 1377 1134 c 0,20,21
 1214 1255 1214 1255 970 1255 c 0,22,23
 671 1255 671 1255 472 1045 c 0,24,25
 278 839 278 839 278 539 c 0,26,27
 278 257 278 257 462 87 c 0,28,29
 642 -78 642 -78 928 -78 c 0,30,31
 1199 -78 1199 -78 1469 88 c 1,32,-1
 1514 17 l 1,33,34
 1210 -176 1210 -176 872 -176 c 0,35,36
 542 -176 542 -176 329 31 c 0,37,38
 113 239 113 239 113 567 c 0,39,40
 113 916 113 916 372 1136 c 0,41,42
 618 1344 618 1344 975 1344 c 0,43,44
 1266 1344 1266 1344 1450 1203 c 0,45,46
 1654 1047 1654 1047 1654 765 c 0,47,48
 1654 562 1654 562 1549 402 c 0,49,50
 1428 219 1428 219 1234 219 c 0,51,52
 1056 219 1056 219 1034 383 c 1,53,54
 932 217 932 217 766 217 c 0,55,56
 640 217 640 217 563.5 298.5 c 128,-1,57
 487 380 487 380 487 506 c 0,0,1
812 325 m 0,58,59
 917 325 917 325 998 499 c 0,60,61
 1067 646 1067 646 1067 766 c 0,62,63
 1067 888 1067 888 948 888 c 0,64,65
 858 888 858 888 780 700 c 0,66,67
 714 539 714 539 714 432 c 0,68,69
 714 394 714 394 744 359.5 c 128,-1,70
 774 325 774 325 812 325 c 0,58,59
EndSplineSet
EndChar

StartChar: A
Encoding: 65 65 36
Width: 1071
Flags: W
LayerCount: 2
Fore
SplineSet
889 -27 m 1,0,1
 820 56 820 56 744 183 c 1,2,3
 425 -13 425 -13 290 -13 c 0,4,5
 227 -13 227 -13 163 52 c 128,-1,6
 99 117 99 117 99 180 c 0,7,8
 99 402 99 402 595 610 c 1,9,10
 573 698 573 698 516 867 c 1,11,12
 495 916 495 916 461 939 c 0,13,14
 423 961 423 961 385 983 c 1,15,-1
 290 923 l 1,16,-1
 267 954 l 1,17,18
 360 1035 360 1035 386 1053 c 0,19,20
 465 1108 465 1108 525 1108 c 0,21,22
 669 1108 669 1108 758 842 c 2,23,-1
 918 364 l 2,24,25
 951 266 951 266 1069 96 c 1,26,-1
 889 -27 l 1,0,1
290 312 m 256,27,28
 290 211 290 211 431 94 c 1,29,30
 527 94 527 94 606 149 c 0,31,32
 694 209 694 209 698 300 c 1,33,-1
 624 519 l 1,34,35
 511 519 511 519 413 472 c 0,36,37
 290 413 290 413 290 312 c 256,27,28
EndSplineSet
EndChar

StartChar: B
Encoding: 66 66 37
Width: 1027
Flags: W
LayerCount: 2
Fore
SplineSet
377 1000 m 1,0,1
 400 1017 400 1017 441 1056 c 1,2,3
 567 1130 567 1130 649 1130 c 0,4,5
 742 1130 742 1130 812 1090 c 0,6,7
 897 1042 897 1042 897 956 c 0,8,9
 897 814 897 814 723 692 c 1,10,11
 1056 582 1056 582 1056 364 c 0,12,13
 1056 185 1056 185 865 75 c 0,14,15
 703 -19 703 -19 508 -19 c 0,16,17
 394 -19 394 -19 151 40 c 1,18,19
 165 124 165 124 169 227 c 0,20,21
 171 299 171 299 169 415 c 0,22,23
 165 564 165 564 165 603 c 0,24,25
 165 799 165 799 163 828 c 0,26,27
 153 960 153 960 104 1041 c 1,28,-1
 54 1054 l 1,29,-1
 54 1077 l 1,30,-1
 323 1137 l 1,31,32
 360 1077 360 1077 377 1000 c 1,0,1
385 125 m 1,33,34
 475 81 475 81 512 66 c 0,35,36
 591 33 591 33 644 29 c 1,37,38
 742 68 742 68 779 101 c 0,39,40
 835 151 835 151 835 238 c 0,41,42
 835 353 835 353 729 466 c 0,43,44
 640 561 640 561 518 617 c 1,45,-1
 421 617 l 1,46,-1
 414 637 l 1,47,48
 738 692 738 692 738 827 c 0,49,50
 738 903 738 903 643 968 c 0,51,52
 555 1028 555 1028 476 1027 c 1,53,-1
 385 937 l 1,54,-1
 385 125 l 1,33,34
EndSplineSet
EndChar

StartChar: C
Encoding: 67 67 38
Width: 1054
Flags: W
LayerCount: 2
Fore
SplineSet
922 869 m 1,0,1
 694 1042 694 1042 588 1044 c 1,2,3
 434 976 434 976 378 860 c 0,4,5
 330 763 330 763 330 576 c 0,6,7
 330 395 330 395 443 238 c 0,8,9
 562 74 562 74 737 42 c 1,10,11
 860 81 860 81 909 337 c 1,12,-1
 1088 298 l 1,13,14
 1047 -16 1047 -16 561 -16 c 0,15,16
 364 -16 364 -16 234 158 c 0,17,18
 115 318 115 318 115 522 c 0,19,20
 115 741 115 741 237 879 c 0,21,22
 342 999 342 999 563 1081 c 0,23,24
 619 1099 619 1099 729 1143 c 1,25,26
 925 1099 925 1099 1065 979 c 1,27,-1
 922 869 l 1,0,1
EndSplineSet
EndChar

StartChar: D
Encoding: 68 68 39
Width: 1147
Flags: W
LayerCount: 2
Fore
SplineSet
1199 29 m 1,0,-1
 972 -6 l 1,1,2
 946 38 946 38 941 55 c 0,3,4
 939 61 939 61 932 123 c 1,5,6
 918 119 918 119 738 43 c 0,7,8
 622 -6 622 -6 536 -6 c 0,9,10
 354 -6 354 -6 232 157 c 0,11,12
 121 305 121 305 121 492 c 0,13,14
 121 733 121 733 300 902 c 0,15,16
 371 970 371 970 482 1024 c 0,17,18
 603 1084 603 1084 690 1084 c 0,19,20
 773 1084 773 1084 932 975 c 1,21,-1
 932 1021 l 2,22,23
 932 1116 932 1116 919 1202 c 0,24,25
 897 1345 897 1345 849 1335 c 1,26,-1
 841 1360 l 1,27,28
 1043 1420 1043 1420 1082 1420 c 0,29,30
 1108 1420 1108 1420 1127 1290 c 0,31,32
 1140 1199 1140 1199 1143 1127 c 0,33,34
 1148 987 1148 987 1144 768 c 0,35,36
 1140 460 1140 460 1140 409 c 0,37,38
 1140 368 1140 368 1141.5 287 c 128,-1,39
 1143 206 1143 206 1143 166 c 0,40,41
 1143 86 1143 86 1199 48 c 1,42,-1
 1199 29 l 1,0,-1
686 79 m 0,43,44
 741 79 741 79 776 95.5 c 128,-1,45
 811 112 811 112 869.5 176.5 c 128,-1,46
 928 241 928 241 928 273 c 2,47,-1
 928 760 l 1,48,49
 653 982 653 982 537 982 c 0,50,51
 425 982 425 982 364 862 c 0,52,53
 314 766 314 766 314 642 c 0,54,55
 314 477 314 477 417 292 c 0,56,57
 535 79 535 79 686 79 c 0,43,44
EndSplineSet
EndChar

StartChar: E
Encoding: 69 69 40
Width: 1094
Flags: W
LayerCount: 2
Fore
SplineSet
943 846 m 1,0,1
 723 1048 723 1048 590 1048 c 0,2,3
 472 1048 472 1048 404 893 c 0,4,5
 350 769 350 769 352 635 c 1,6,7
 793 624 793 624 810 624 c 0,8,9
 897 624 897 624 990 671 c 1,10,-1
 1007 637 l 1,11,12
 832 517 832 517 581 517 c 0,13,14
 547 517 547 517 472 519 c 128,-1,15
 397 521 397 521 356 521 c 1,16,17
 370 377 370 377 425 293.5 c 128,-1,18
 480 210 480 210 607 135 c 0,19,20
 706 76 706 76 778 76 c 0,21,22
 876 76 876 76 923 170 c 0,23,24
 928 178 928 178 982 348 c 1,25,-1
 1119 300 l 1,26,27
 1069 131 1069 131 986 81 c 0,28,29
 946 56 946 56 737 12 c 0,30,31
 617 -14 617 -14 592 -14 c 0,32,33
 566 -14 566 -14 508 6 c 0,34,35
 125 137 125 137 125 556 c 0,36,37
 125 865 125 865 421 1025 c 0,38,39
 631 1139 631 1139 728 1139 c 0,40,41
 905 1139 905 1139 1087 971 c 1,42,-1
 943 846 l 1,0,1
EndSplineSet
EndChar

StartChar: F
Encoding: 70 70 41
Width: 748
Flags: W
LayerCount: 2
Fore
SplineSet
737 1189 m 1,0,1
 520 1335 520 1335 461 1335 c 0,2,3
 359 1335 359 1335 359 1171 c 0,4,5
 359 1083 359 1083 381 923 c 0,6,7
 405 751 405 751 407 675 c 0,8,9
 408 656 408 656 408 279 c 1,10,11
 440 279 440 279 507 276 c 128,-1,12
 574 273 574 273 608 273 c 0,13,14
 741 273 741 273 822 308 c 1,15,-1
 841 279 l 1,16,17
 709 182 709 182 573 182 c 0,18,19
 552 182 552 182 496 184.5 c 128,-1,20
 440 187 440 187 404 187 c 1,21,-1
 394 -264 l 1,22,-1
 172 -287 l 1,23,-1
 172 194 l 1,24,-1
 95 194 l 1,25,-1
 174 290 l 1,26,27
 150 973 150 973 150 988 c 0,28,29
 150 1125 150 1125 207 1203 c 0,30,31
 248 1260 248 1260 379 1348 c 0,32,33
 518 1442 518 1442 583 1442 c 0,34,35
 697 1442 697 1442 866 1304 c 1,36,-1
 737 1189 l 1,0,1
EndSplineSet
EndChar

StartChar: G
Encoding: 71 71 42
Width: 1180
Flags: W
LayerCount: 2
Fore
SplineSet
992 791 m 1,0,1
 920 878 920 878 823 947 c 0,2,3
 703 1033 703 1033 615 1033 c 0,4,5
 559 1033 559 1033 491.5 988.5 c 128,-1,6
 424 944 424 944 396 892 c 0,7,8
 354 815 354 815 354 656 c 0,9,10
 354 433 354 433 425 302 c 0,11,12
 470 220 470 220 559 151 c 0,13,14
 658 75 658 75 742 75 c 0,15,16
 799 75 799 75 858 132 c 0,17,18
 877 151 877 151 943 237 c 1,19,-1
 944 360 l 2,20,21
 945 514 945 514 886 514 c 0,22,23
 878 514 878 514 868 512 c 1,24,-1
 868 544 l 1,25,-1
 1170 573 l 1,26,-1
 1170 142 l 2,27,28
 1170 -44 1170 -44 1084 -147 c 0,29,30
 1003 -244 1003 -244 820 -298 c 1,31,-1
 804 -269 l 1,32,33
 885 -227 885 -227 915 -167 c 0,34,35
 942 -114 942 -114 942 -19 c 0,36,37
 942 4 942 4 941 46 c 0,38,39
 940 93 940 93 940 112 c 1,40,41
 723 -10 723 -10 605 -10 c 0,42,43
 511 -10 511 -10 400 46 c 0,44,45
 120 187 120 187 120 530 c 0,46,47
 120 768 120 768 298 921 c 0,48,49
 376 989 376 989 513 1053 c 0,50,51
 661 1122 661 1122 751 1122 c 0,52,53
 827 1122 827 1122 941 1068 c 0,54,55
 1046 1019 1046 1019 1110 962 c 1,56,-1
 992 791 l 1,0,1
EndSplineSet
EndChar

StartChar: H
Encoding: 72 72 43
Width: 1162
Flags: W
LayerCount: 2
Fore
SplineSet
427 931 m 1,0,1
 638 1108 638 1108 755 1108 c 0,2,3
 917 1108 917 1108 1041.5 990 c 128,-1,4
 1166 872 1166 872 1166 712 c 0,5,6
 1166 620 1166 620 1137.5 438 c 128,-1,7
 1109 256 1109 256 1109 163 c 0,8,9
 1109 80 1109 80 1148 80 c 0,10,11
 1155 80 1155 80 1164 83 c 1,12,-1
 1172 44 l 1,13,14
 1113 30 1113 30 1054 16 c 0,15,16
 983 0 983 0 935 0 c 0,17,18
 922 0 922 0 913 1 c 0,19,20
 887 5 887 5 887 45 c 0,21,22
 887 157 887 157 914.5 381.5 c 128,-1,23
 942 606 942 606 942 718 c 0,24,25
 942 815 942 815 829 900 c 0,26,27
 723 980 723 980 623 980 c 0,28,29
 422 980 422 980 408 548 c 0,30,31
 398 239 398 239 389 17 c 1,32,-1
 178 -17 l 1,33,34
 178 104 178 104 180.5 345 c 128,-1,35
 183 586 183 586 183 707 c 0,36,37
 183 980 183 980 179 1050 c 0,38,39
 162 1329 162 1329 98 1328 c 2,40,-1
 77 1327 l 1,41,-1
 70 1358 l 1,42,-1
 340 1433 l 1,43,44
 423 1204 423 1204 427 931 c 1,0,1
EndSplineSet
EndChar

StartChar: I
Encoding: 73 73 44
Width: 399
Flags: W
LayerCount: 2
Fore
SplineSet
391 29 m 1,0,-1
 164 -13 l 1,1,2
 164 96 164 96 166.5 314 c 128,-1,3
 169 532 169 532 169 642 c 0,4,5
 169 882 169 882 164 976 c 0,6,7
 160 1061 160 1061 101 1056 c 1,8,-1
 101 1087 l 1,9,-1
 398 1131 l 1,10,-1
 391 29 l 1,0,-1
EndSplineSet
EndChar

StartChar: J
Encoding: 74 74 45
Width: 411
Flags: W
LayerCount: 2
Fore
SplineSet
-195 -317 m 1,0,-1
 -271 -204 l 1,1,-1
 -21 -88 l 1,2,-1
 -22 -142 l 2,3,4
 -22 -184 -22 -184 -3 -220 c 0,5,6
 20 -263 20 -263 60 -263 c 0,7,8
 176 -263 176 -263 176 21 c 0,9,10
 176 123 176 123 178 326.5 c 128,-1,11
 180 530 180 530 180 632 c 0,12,13
 180 984 180 984 160 1041 c 1,14,-1
 39 1050 l 1,15,-1
 39 1110 l 1,16,17
 123 1099 123 1099 205 1099 c 0,18,19
 331 1099 331 1099 400 1125 c 1,20,-1
 400 119 l 2,21,22
 400 -29 400 -29 363 -102 c 0,23,24
 322 -182 322 -182 199 -254 c 0,25,26
 63 -334 63 -334 -106 -334 c 0,27,28
 -164 -334 -164 -334 -195 -317 c 1,0,-1
EndSplineSet
EndChar

StartChar: K
Encoding: 75 75 46
Width: 1094
Flags: W
LayerCount: 2
Fore
SplineSet
808 1098 m 1,0,-1
 1027 1089 l 1,1,2
 886 856 886 856 592 529 c 1,3,4
 682 513 682 513 856 288 c 0,5,6
 1031 59 1031 59 1127 38 c 1,7,-1
 1127 15 l 1,8,9
 992 -23 992 -23 928 -23 c 0,10,11
 857 -23 857 -23 795 31 c 0,12,13
 785 40 785 40 696 140 c 2,14,-1
 501 362 l 1,15,-1
 460 371 l 1,16,-1
 402 310 l 1,17,18
 398 163 398 163 392 19 c 1,19,-1
 182 -15 l 1,20,21
 182 105 182 105 184.5 346.5 c 128,-1,22
 187 588 187 588 187 709 c 0,23,24
 187 962 187 962 182 1042 c 0,25,26
 167 1313 167 1313 110 1328 c 0,27,28
 109 1328 109 1328 81 1327 c 1,29,-1
 73 1360 l 1,30,-1
 344 1433 l 1,31,32
 418 1229 418 1229 418 879 c 0,33,34
 418 868 418 868 408 446 c 1,35,36
 578 622 578 622 656 743 c 0,37,38
 757 897 757 897 808 1098 c 1,0,-1
EndSplineSet
EndChar

StartChar: L
Encoding: 76 76 47
Width: 676
Flags: W
LayerCount: 2
Fore
SplineSet
168 -6 m 1,0,1
 168 113 168 113 170.5 349.5 c 128,-1,2
 173 586 173 586 173 705 c 0,3,4
 173 1307 173 1307 99 1320 c 0,5,6
 97 1320 97 1320 68 1319 c 1,7,-1
 60 1350 l 1,8,-1
 331 1425 l 1,9,10
 425 1166 425 1166 425 796 c 0,11,12
 425 681 425 681 418.5 449.5 c 128,-1,13
 412 218 412 218 412 104 c 1,14,15
 522 72 522 72 536 72 c 0,16,17
 571 72 571 72 621 100 c 0,18,19
 661 124 661 124 700 148 c 1,20,-1
 729 117 l 1,21,22
 679 68 679 68 629 19 c 1,23,24
 590 -8 590 -8 503 -8 c 0,25,26
 469 -8 469 -8 402 -2 c 128,-1,27
 335 4 335 4 302 4 c 0,28,29
 296 4 296 4 168 -6 c 1,0,1
EndSplineSet
EndChar

StartChar: M
Encoding: 77 77 48
Width: 1695
Flags: W
LayerCount: 2
Fore
SplineSet
385 944 m 1,0,1
 545 1066 545 1066 706 1112 c 1,2,3
 824 1065 824 1065 862 1044 c 0,4,5
 932 1004 932 1004 990 931 c 1,6,7
 1097 1020 1097 1020 1152 1050 c 0,8,9
 1234 1094 1234 1094 1346 1102 c 1,10,11
 1518 1046 1518 1046 1598 957 c 0,12,13
 1689 855 1689 855 1689 685 c 0,14,15
 1689 598 1689 598 1666 426 c 128,-1,16
 1643 254 1643 254 1643 167 c 0,17,18
 1643 107 1643 107 1667 75 c 1,19,-1
 1717 65 l 1,20,-1
 1717 40 l 1,21,22
 1655 27 1655 27 1593 14 c 0,23,24
 1516 -3 1516 -3 1468 -3 c 0,25,26
 1423 -3 1423 -3 1423 130 c 0,27,28
 1423 222 1423 222 1448 404.5 c 128,-1,29
 1473 587 1473 587 1473 680 c 0,30,31
 1473 807 1473 807 1383 892 c 128,-1,32
 1293 977 1293 977 1163 977 c 0,33,34
 1137 977 1137 977 1110 973 c 1,35,-1
 1027 846 l 1,36,37
 1040 823 1040 823 1040 691 c 0,38,39
 1040 661 1040 661 1015 21 c 1,40,-1
 800 -6 l 1,41,42
 802 57 802 57 810 289 c 0,43,44
 816 471 816 471 816 583 c 0,45,46
 816 763 816 763 783 849 c 0,47,48
 729 989 729 989 577 989 c 0,49,50
 533 989 533 989 497 973 c 1,51,-1
 400 804 l 1,52,-1
 401 723 l 2,53,54
 401 705 401 705 389 38 c 1,55,-1
 172 -6 l 1,56,-1
 173 415 l 2,57,58
 173 703 173 703 173 702 c 1,59,60
 166 874 166 874 124 979 c 1,61,-1
 73 1010 l 1,62,-1
 70 1035 l 1,63,-1
 315 1116 l 1,64,65
 355 1043 355 1043 385 944 c 1,0,1
EndSplineSet
EndChar

StartChar: N
Encoding: 78 78 49
Width: 1158
Flags: W
LayerCount: 2
Fore
SplineSet
1168 73 m 1,0,-1
 1168 38 l 1,1,2
 1166 38 1166 38 1056 14 c 0,3,4
 988 -1 988 -1 942 -1 c 0,5,6
 876 -1 876 -1 876 67 c 0,7,8
 876 171 876 171 904.5 381 c 128,-1,9
 933 591 933 591 933 695 c 0,10,11
 933 803 933 803 826 897 c 0,12,13
 721 988 721 988 609 988 c 0,14,15
 510 988 510 988 449 826 c 0,16,17
 405 706 405 706 400 579 c 2,18,-1
 381 8 l 1,19,-1
 168 -15 l 1,20,21
 169 64 169 64 174 288 c 0,22,23
 179 479 179 479 179 592 c 0,24,25
 179 744 179 744 168 801 c 0,26,27
 159 848 159 848 104 998 c 1,28,-1
 72 1000 l 1,29,-1
 66 1033 l 1,30,-1
 321 1104 l 1,31,32
 366 993 366 993 398 894 c 1,33,34
 658 1121 658 1121 777 1121 c 0,35,36
 811 1121 811 1121 901 1073 c 0,37,38
 1034 1002 1034 1002 1091 929 c 0,39,40
 1159 840 1159 840 1159 703 c 0,41,42
 1159 609 1159 609 1129 425 c 128,-1,43
 1099 241 1099 241 1099 147 c 0,44,45
 1099 87 1099 87 1133 73 c 1,46,-1
 1168 73 l 1,0,-1
EndSplineSet
EndChar

StartChar: O
Encoding: 79 79 50
Width: 1205
Flags: W
LayerCount: 2
Fore
SplineSet
1225 576 m 0,0,1
 1225 143 1225 143 766 17 c 0,2,3
 637 -18 637 -18 590 -18 c 0,4,5
 566 -18 566 -18 514 -2 c 0,6,7
 326 55 326 55 223.5 196 c 128,-1,8
 121 337 121 337 121 534 c 0,9,10
 121 858 121 858 425 1029 c 0,11,12
 473 1056 473 1056 573 1099 c 0,13,14
 689 1148 689 1148 720 1148 c 0,15,16
 798 1148 798 1148 919 1086 c 0,17,18
 1032 1028 1032 1028 1090 966 c 0,19,20
 1225 820 1225 820 1225 576 c 0,0,1
795 77 m 1,21,22
 917 98 917 98 975 227 c 0,23,24
 1021 327 1021 327 1021 470 c 0,25,26
 1021 660 1021 660 952 778 c 0,27,28
 880 903 880 903 711 981 c 0,29,30
 610 1028 610 1028 542 1028 c 0,31,32
 433 1028 433 1028 379 863 c 0,33,34
 340 746 340 746 340 608 c 0,35,36
 340 360 340 360 449 243 c 0,37,38
 546 138 546 138 795 77 c 1,21,22
EndSplineSet
EndChar

StartChar: P
Encoding: 80 80 51
Width: 1185
Flags: W
LayerCount: 2
Fore
SplineSet
389 -396 m 1,0,-1
 178 -450 l 1,1,-1
 178 729 l 2,2,3
 178 796 178 796 161 884 c 0,4,5
 139 1001 139 1001 104 1007 c 0,6,7
 98 1008 98 1008 77 1006 c 1,8,-1
 68 1037 l 1,9,-1
 340 1114 l 1,10,-1
 398 927 l 1,11,12
 454 988 454 988 577 1063 c 0,13,14
 712 1144 712 1144 779 1144 c 0,15,16
 881 1144 881 1144 998 1050 c 0,17,18
 1102 967 1102 967 1156 866 c 0,19,20
 1214 758 1214 758 1214 617 c 0,21,22
 1214 437 1214 437 1139 296 c 0,23,24
 1085 196 1085 196 923 96 c 128,-1,25
 761 -4 761 -4 646 -12 c 2,26,-1
 628 -13 l 2,27,28
 547 -18 547 -18 402 75 c 1,29,-1
 389 -396 l 1,0,-1
410 260 m 1,30,31
 472 161 472 161 690 60 c 1,32,-1
 705 59 l 1,33,34
 859 55 859 55 940 230 c 0,35,36
 1002 365 1002 365 1002 541 c 0,37,38
 1002 850 1002 850 766 985 c 0,39,40
 688 1029 688 1029 642 1029 c 0,41,42
 604 1029 604 1029 576 1014 c 0,43,44
 477 959 477 959 440 873 c 0,45,46
 410 803 410 803 410 677 c 2,47,-1
 410 260 l 1,30,31
EndSplineSet
EndChar

StartChar: Q
Encoding: 81 81 52
Width: 1172
Flags: W
LayerCount: 2
Fore
SplineSet
1166 -185 m 2,0,1
 1166 -264 1166 -264 1218 -346 c 1,2,-1
 955 -406 l 1,3,-1
 943 125 l 1,4,5
 863 76 863 76 753 34 c 0,6,7
 626 -14 626 -14 552 -14 c 0,8,9
 495 -14 495 -14 387 52 c 0,10,11
 262 128 262 128 191 266 c 0,12,13
 123 399 123 399 123 549 c 0,14,15
 123 915 123 915 495 1081 c 0,16,17
 694 1170 694 1170 767 1170 c 0,18,19
 808 1170 808 1170 913 1123 c 0,20,21
 987 1088 987 1088 1061 1054 c 1,22,-1
 1185 1098 l 1,23,24
 1166 999 1166 999 1166 935 c 2,25,-1
 1166 -185 l 2,0,1
727 80 m 0,26,27
 841 80 841 80 896 204 c 0,28,29
 936 296 936 296 936 425 c 2,30,-1
 936 902 l 1,31,32
 876 953 876 953 773 1005 c 0,33,34
 657 1063 657 1063 594 1063 c 0,35,36
 461 1063 461 1063 392 874 c 0,37,38
 341 734 341 734 341 571 c 0,39,40
 341 419 341 419 432 285.5 c 128,-1,41
 523 152 523 152 665 96 c 0,42,43
 706 80 706 80 727 80 c 0,26,27
EndSplineSet
EndChar

StartChar: R
Encoding: 82 82 53
Width: 1152
Flags: W
LayerCount: 2
Fore
SplineSet
1181 42 m 1,0,-1
 1181 8 l 1,1,2
 1094 -24 1094 -24 983 -24 c 0,3,4
 946 -24 946 -24 907 -21 c 0,5,6
 815 -14 815 -14 709 74 c 0,7,8
 671 105 671 105 547 232 c 0,9,10
 467 315 467 315 433 314 c 2,11,-1
 410 314 l 1,12,-1
 400 31 l 1,13,-1
 172 -15 l 1,14,15
 173 74 173 74 176 285 c 0,16,17
 179 478 179 478 179 586 c 0,18,19
 179 689 179 689 175 829 c 0,20,21
 173 925 173 925 167 947 c 0,22,23
 150 1007 150 1007 85 1021 c 1,24,-1
 85 1046 l 1,25,-1
 358 1123 l 1,26,27
 371 1082 371 1082 391 996 c 1,28,29
 640 1161 640 1161 717 1161 c 0,30,31
 873 1161 873 1161 994 1031.5 c 128,-1,32
 1115 902 1115 902 1115 746 c 0,33,34
 1115 589 1115 589 1006 498 c 0,35,36
 975 473 975 473 762 360 c 1,37,38
 840 256 840 256 950 162 c 0,39,40
 1094 39 1094 39 1181 42 c 1,0,-1
890 672 m 0,41,42
 890 788 890 788 793 908 c 0,43,44
 690 1034 690 1034 576 1034 c 0,45,46
 410 1034 410 1034 410 646 c 2,47,-1
 410 360 l 1,48,-1
 463 358 l 2,49,50
 642 352 642 352 755 421 c 0,51,52
 890 503 890 503 890 672 c 0,41,42
EndSplineSet
EndChar

StartChar: S
Encoding: 83 83 54
Width: 875
Flags: W
LayerCount: 2
Fore
SplineSet
737 744 m 1,0,-1
 704 764 l 1,1,2
 710 791 710 791 710 810 c 0,3,4
 710 853 710 853 568 942 c 0,5,6
 431 1029 431 1029 382 1029 c 0,7,8
 249 1029 249 1029 249 867 c 0,9,10
 249 796 249 796 443 699 c 1,11,12
 561 647 561 647 679 596 c 0,13,14
 816 534 816 534 840 515 c 0,15,16
 907 462 907 462 907 354 c 0,17,18
 907 168 907 168 759 70 c 0,19,20
 631 -15 631 -15 436 -15 c 0,21,22
 100 -15 100 -15 97 211 c 2,23,-1
 96 248 l 1,24,-1
 97 275 l 1,25,-1
 344 294 l 1,26,27
 327 202 327 202 327 176 c 0,28,29
 327 118 327 118 376 72.5 c 128,-1,30
 425 27 425 27 484 27 c 0,31,32
 579 27 579 27 633 93 c 0,33,34
 683 155 683 155 683 251 c 0,35,36
 683 337 683 337 534 404 c 0,37,38
 396 463 396 463 259 521 c 1,39,40
 110 603 110 603 110 725 c 0,41,42
 110 869 110 869 201 966 c 0,43,44
 250 1017 250 1017 369.5 1073.5 c 128,-1,45
 489 1130 489 1130 557 1130 c 0,46,47
 610 1130 610 1130 720 1065 c 0,48,49
 806 1015 806 1015 872 962 c 1,50,-1
 737 744 l 1,0,-1
EndSplineSet
EndChar

StartChar: T
Encoding: 84 84 55
Width: 980
Flags: W
LayerCount: 2
Fore
SplineSet
611 1337 m 1,0,1
 556 1255 556 1255 555 1108 c 1,2,3
 583 1108 583 1108 640.5 1106 c 128,-1,4
 698 1104 698 1104 726 1104 c 0,5,6
 877 1104 877 1104 978 1160 c 1,7,-1
 998 1133 l 1,8,9
 885 1022 885 1022 704 1022 c 0,10,11
 681 1022 681 1022 630.5 1023.5 c 128,-1,12
 580 1025 580 1025 553 1025 c 1,13,14
 553 949 553 949 551.5 794.5 c 128,-1,15
 550 640 550 640 550 563 c 0,16,17
 550 544 550 544 549 498 c 128,-1,18
 548 452 548 452 548 427 c 0,19,20
 548 119 548 119 702 56 c 1,21,22
 784 160 784 160 795 340 c 1,23,-1
 971 313 l 1,24,25
 935 -16 935 -16 639 -16 c 0,26,27
 519 -16 519 -16 428 59 c 0,28,29
 333 137 333 137 327 255 c 0,30,31
 320 409 320 409 322 640 c 0,32,33
 327 1038 327 1038 327 1025 c 1,34,35
 312 1025 312 1025 279.5 1026 c 128,-1,36
 247 1027 247 1027 231 1027 c 0,37,38
 151 1027 151 1027 91 985 c 1,39,-1
 77 987 l 1,40,41
 94 1072 94 1072 104 1089 c 0,42,43
 118 1112 118 1112 160 1112 c 0,44,45
 171 1112 171 1112 225.5 1109 c 128,-1,46
 280 1106 280 1106 327 1106 c 1,47,48
 331 1174 331 1174 340 1219 c 1,49,-1
 595 1358 l 1,50,-1
 611 1337 l 1,0,1
EndSplineSet
EndChar

StartChar: U
Encoding: 85 85 56
Width: 1151
Flags: W
LayerCount: 2
Fore
SplineSet
706 87 m 1,0,1
 899 225 899 225 899 477 c 2,2,-1
 899 1100 l 1,3,-1
 1135 1123 l 1,4,-1
 1121 348 l 2,5,6
 1120 274 1120 274 1137 215 c 0,7,8
 1161 129 1161 129 1215 129 c 0,9,10
 1231 129 1231 129 1247 137 c 1,11,-1
 1247 100 l 1,12,-1
 1050 6 l 1,13,14
 959 88 959 88 909 194 c 1,15,16
 838 130 838 130 736 65 c 0,17,18
 609 -15 609 -15 547 -15 c 0,19,20
 365 -15 365 -15 257.5 92.5 c 128,-1,21
 150 200 150 200 150 380 c 0,22,23
 150 457 150 457 162.5 611 c 128,-1,24
 175 765 175 765 175 842 c 0,25,26
 175 1058 175 1058 118 1056 c 1,27,-1
 118 1089 l 1,28,-1
 410 1123 l 1,29,30
 379 442 379 442 379 422 c 0,31,32
 379 277 379 277 471 187 c 0,33,34
 558 101 558 101 706 87 c 1,0,1
EndSplineSet
EndChar

StartChar: V
Encoding: 86 86 57
Width: 1114
Flags: W
LayerCount: 2
Fore
SplineSet
766 200 m 1,0,1
 836 401 836 401 907 602 c 1,2,3
 977 829 977 829 977 1017 c 0,4,5
 977 1054 977 1054 974 1091 c 1,6,7
 1027 1085 1027 1085 1129 1091 c 1,8,-1
 1129 1087 l 2,9,10
 1131 1059 1131 1059 1116 1014 c 2,11,-1
 818 160 l 2,12,13
 799 107 799 107 799 76 c 1,14,15
 799 81 799 81 806 17 c 1,16,-1
 588 -15 l 1,17,18
 587 67 587 67 547 150 c 2,19,-1
 211 844 l 2,20,21
 153 963 153 963 77 996 c 1,22,-1
 77 1014 l 1,23,-1
 325 1123 l 1,24,-1
 766 200 l 1,0,1
EndSplineSet
EndChar

StartChar: W
Encoding: 87 87 58
Width: 1811
Flags: W
LayerCount: 2
Fore
SplineSet
805 77 m 1,0,1
 805 80 805 80 812 17 c 1,2,-1
 595 -15 l 1,3,4
 595 63 595 63 553 150 c 2,5,-1
 218 844 l 2,6,7
 162 962 162 962 83 996 c 1,8,-1
 83 1014 l 1,9,-1
 331 1123 l 1,10,-1
 771 200 l 1,11,12
 839 383 839 383 955 754 c 1,13,14
 889 889 889 889 887 892 c 0,15,16
 841 969 841 969 777 996 c 1,17,-1
 777 1014 l 1,18,-1
 1025 1123 l 1,19,-1
 1465 200 l 1,20,21
 1536 401 1536 401 1607 602 c 1,22,23
 1677 829 1677 829 1677 1017 c 0,24,25
 1677 1054 1677 1054 1674 1091 c 1,26,27
 1710 1087 1710 1087 1738 1087 c 0,28,29
 1759 1087 1759 1087 1829 1091 c 1,30,31
 1828 1049 1828 1049 1815 1014 c 2,32,-1
 1518 160 l 2,33,34
 1499 107 1499 107 1499 76 c 1,35,36
 1499 78 1499 78 1506 17 c 1,37,-1
 1288 -15 l 1,38,39
 1287 67 1287 67 1247 150 c 2,40,-1
 1001 658 l 1,41,42
 946 511 946 511 890 364 c 0,43,44
 805 132 805 132 805 77 c 1,0,1
EndSplineSet
EndChar

StartChar: X
Encoding: 88 88 59
Width: 1187
Flags: W
LayerCount: 2
Fore
SplineSet
694 677 m 1,0,1
 850 865 850 865 860 879 c 0,2,3
 947 999 947 999 972 1114 c 1,4,-1
 1125 1114 l 1,5,6
 1115 1057 1115 1057 951 854 c 0,7,8
 847 730 847 730 742 606 c 1,9,-1
 969 252 l 2,10,11
 1025 163 1025 163 1051 135 c 0,12,13
 1108 74 1108 74 1173 74 c 0,14,15
 1183 74 1183 74 1193 75 c 1,16,-1
 1218 29 l 1,17,18
 1158 14 1158 14 1098 -1 c 0,19,20
 1026 -18 1026 -18 975 -18 c 0,21,22
 907 -18 907 -18 844 53 c 0,23,24
 832 66 832 66 752 181 c 2,25,-1
 592 412 l 1,26,27
 488 280 488 280 384 148 c 1,28,29
 260 6 260 6 126 -54 c 1,30,-1
 102 -17 l 1,31,32
 178 27 178 27 234 98 c 2,33,-1
 541 487 l 1,34,-1
 294 854 l 2,35,36
 248 922 248 922 237 934 c 0,37,38
 201 972 201 972 151 979 c 1,39,-1
 141 1000 l 1,40,41
 365 1126 365 1126 378 1126 c 0,42,43
 422 1126 422 1126 694 677 c 1,0,1
EndSplineSet
EndChar

StartChar: Y
Encoding: 89 89 60
Width: 1139
Flags: W
LayerCount: 2
Fore
SplineSet
288 -231 m 1,0,-1
 476 -160 l 1,1,2
 476 -273 476 -273 535 -273 c 0,3,4
 603 -273 603 -273 694 17 c 1,5,-1
 574 6 l 1,6,7
 579 55 579 55 579 71 c 0,8,9
 579 113 579 113 416 448 c 0,10,11
 317 646 317 646 218 844 c 0,12,13
 162 962 162 962 83 996 c 1,14,-1
 83 1014 l 1,15,-1
 331 1123 l 1,16,-1
 771 200 l 1,17,18
 843 400 843 400 914 600 c 1,19,20
 983 821 983 821 983 1012 c 0,21,22
 983 1051 983 1051 980 1091 c 1,23,24
 1033 1085 1033 1085 1135 1091 c 1,25,26
 1134 1049 1134 1049 1121 1014 c 2,27,-1
 824 160 l 2,28,29
 788 52 788 52 752 -55 c 0,30,31
 700 -194 700 -194 639 -266 c 0,32,33
 558 -362 558 -362 451 -362 c 0,34,35
 393 -362 393 -362 343 -326 c 0,36,37
 289 -286 289 -286 288 -231 c 1,0,-1
EndSplineSet
EndChar

StartChar: Z
Encoding: 90 90 61
Width: 1042
Flags: W
LayerCount: 2
Fore
SplineSet
967 1108 m 1,0,-1
 1017 1075 l 1,1,-1
 1034 1021 l 1,2,-1
 362 106 l 1,3,4
 667 46 667 46 746 46 c 0,5,6
 834 46 834 46 862 91 c 0,7,8
 879 119 879 119 889 219 c 1,9,-1
 1044 219 l 1,10,11
 1045 92 1045 92 978 37 c 0,12,13
 916 -14 916 -14 784 -14 c 0,14,15
 692 -14 692 -14 515.5 2.5 c 128,-1,16
 339 19 339 19 246 19 c 0,17,18
 213 19 213 19 182 17 c 1,19,-1
 101 121 l 1,20,-1
 773 1044 l 1,21,-1
 381 1044 l 2,22,23
 264 1044 264 1044 166 1014 c 1,24,-1
 178 1108 l 1,25,-1
 967 1108 l 1,0,-1
EndSplineSet
EndChar

StartChar: bracketleft
Encoding: 91 91 62
Width: 624
Flags: W
LayerCount: 2
Fore
SplineSet
377 -314 m 1,0,-1
 623 -314 l 1,1,-1
 623 -375 l 1,2,-1
 170 -375 l 1,3,-1
 170 1356 l 1,4,-1
 623 1356 l 1,5,-1
 623 1300 l 1,6,-1
 377 1300 l 1,7,-1
 377 -314 l 1,0,-1
EndSplineSet
EndChar

StartChar: backslash
Encoding: 92 92 63
Width: 790
Flags: W
LayerCount: 2
Fore
SplineSet
798 -104 m 1,0,-1
 746 -129 l 1,1,-1
 137 1035 l 1,2,-1
 189 1066 l 1,3,-1
 798 -104 l 1,0,-1
EndSplineSet
EndChar

StartChar: bracketright
Encoding: 93 93 64
Width: 624
Flags: W
LayerCount: 2
Fore
SplineSet
621 1356 m 1,0,-1
 621 -375 l 1,1,-1
 166 -375 l 1,2,-1
 166 -314 l 1,3,-1
 412 -314 l 1,4,-1
 412 1300 l 1,5,-1
 166 1300 l 1,6,-1
 166 1356 l 1,7,-1
 621 1356 l 1,0,-1
EndSplineSet
EndChar

StartChar: asciicircum
Encoding: 94 94 65
Width: 600
Flags: W
LayerCount: 2
Fore
SplineSet
418 1444 m 1,0,-1
 603 1214 l 1,1,-1
 499 1214 l 1,2,-1
 381 1352 l 1,3,-1
 280 1214 l 1,4,-1
 153 1214 l 1,5,-1
 130 1243 l 1,6,-1
 307 1444 l 1,7,-1
 418 1444 l 1,0,-1
EndSplineSet
EndChar

StartChar: underscore
Encoding: 95 95 66
Width: 1042
Flags: W
LayerCount: 2
Fore
SplineSet
17 -229 m 1,0,-1
 17 -154 l 1,1,-1
 1141 -154 l 1,2,-1
 1141 -229 l 1,3,-1
 17 -229 l 1,0,-1
EndSplineSet
EndChar

StartChar: grave
Encoding: 96 96 67
Width: 413
Flags: W
LayerCount: 2
Fore
SplineSet
244 1445 m 1,0,-1
 425 1214 l 1,1,-1
 344 1214 l 1,2,-1
 120 1427 l 1,3,-1
 133 1445 l 1,4,-1
 244 1445 l 1,0,-1
EndSplineSet
EndChar

StartChar: a
Encoding: 97 97 68
Width: 1071
Flags: W
LayerCount: 2
Fore
SplineSet
889 -27 m 1,0,1
 820 56 820 56 744 183 c 1,2,3
 425 -13 425 -13 290 -13 c 0,4,5
 227 -13 227 -13 163 52 c 128,-1,6
 99 117 99 117 99 180 c 0,7,8
 99 402 99 402 595 610 c 1,9,10
 573 698 573 698 516 867 c 1,11,12
 495 916 495 916 461 939 c 0,13,14
 423 961 423 961 385 983 c 1,15,-1
 290 923 l 1,16,-1
 267 954 l 1,17,18
 360 1035 360 1035 386 1053 c 0,19,20
 465 1108 465 1108 525 1108 c 0,21,22
 669 1108 669 1108 758 842 c 2,23,-1
 918 364 l 2,24,25
 951 266 951 266 1069 96 c 1,26,-1
 889 -27 l 1,0,1
290 312 m 256,27,28
 290 211 290 211 431 94 c 1,29,30
 527 94 527 94 606 149 c 0,31,32
 694 209 694 209 698 300 c 1,33,-1
 624 519 l 1,34,35
 511 519 511 519 413 472 c 0,36,37
 290 413 290 413 290 312 c 256,27,28
EndSplineSet
EndChar

StartChar: b
Encoding: 98 98 69
Width: 1027
Flags: W
LayerCount: 2
Fore
SplineSet
377 1000 m 1,0,1
 400 1017 400 1017 441 1056 c 1,2,3
 567 1130 567 1130 649 1130 c 0,4,5
 742 1130 742 1130 812 1090 c 0,6,7
 897 1042 897 1042 897 956 c 0,8,9
 897 814 897 814 723 692 c 1,10,11
 1056 582 1056 582 1056 364 c 0,12,13
 1056 185 1056 185 865 75 c 0,14,15
 703 -19 703 -19 508 -19 c 0,16,17
 394 -19 394 -19 151 40 c 1,18,19
 165 124 165 124 169 227 c 0,20,21
 171 299 171 299 169 415 c 0,22,23
 165 564 165 564 165 603 c 0,24,25
 165 799 165 799 163 828 c 0,26,27
 153 960 153 960 104 1041 c 1,28,-1
 54 1054 l 1,29,-1
 54 1077 l 1,30,-1
 323 1137 l 1,31,32
 360 1077 360 1077 377 1000 c 1,0,1
385 125 m 1,33,34
 475 81 475 81 512 66 c 0,35,36
 591 33 591 33 644 29 c 1,37,38
 742 68 742 68 779 101 c 0,39,40
 835 151 835 151 835 238 c 0,41,42
 835 353 835 353 729 466 c 0,43,44
 640 561 640 561 518 617 c 1,45,-1
 421 617 l 1,46,-1
 414 637 l 1,47,48
 738 692 738 692 738 827 c 0,49,50
 738 903 738 903 643 968 c 0,51,52
 555 1028 555 1028 476 1027 c 1,53,-1
 385 937 l 1,54,-1
 385 125 l 1,33,34
EndSplineSet
EndChar

StartChar: c
Encoding: 99 99 70
Width: 1054
Flags: W
LayerCount: 2
Fore
SplineSet
922 869 m 1,0,1
 694 1042 694 1042 588 1044 c 1,2,3
 434 976 434 976 378 860 c 0,4,5
 330 763 330 763 330 576 c 0,6,7
 330 395 330 395 443 238 c 0,8,9
 562 74 562 74 737 42 c 1,10,11
 860 81 860 81 909 337 c 1,12,-1
 1088 298 l 1,13,14
 1047 -16 1047 -16 561 -16 c 0,15,16
 364 -16 364 -16 234 158 c 0,17,18
 115 318 115 318 115 522 c 0,19,20
 115 741 115 741 237 879 c 0,21,22
 342 999 342 999 563 1081 c 0,23,24
 619 1099 619 1099 729 1143 c 1,25,26
 925 1099 925 1099 1065 979 c 1,27,-1
 922 869 l 1,0,1
EndSplineSet
EndChar

StartChar: d
Encoding: 100 100 71
Width: 1147
Flags: W
LayerCount: 2
Fore
SplineSet
1199 29 m 1,0,-1
 972 -6 l 1,1,2
 946 38 946 38 941 55 c 0,3,4
 939 61 939 61 932 123 c 1,5,6
 918 119 918 119 738 43 c 0,7,8
 622 -6 622 -6 536 -6 c 0,9,10
 354 -6 354 -6 232 157 c 0,11,12
 121 305 121 305 121 492 c 0,13,14
 121 733 121 733 300 902 c 0,15,16
 371 970 371 970 482 1024 c 0,17,18
 603 1084 603 1084 690 1084 c 0,19,20
 773 1084 773 1084 932 975 c 1,21,-1
 932 1021 l 2,22,23
 932 1116 932 1116 919 1202 c 0,24,25
 897 1345 897 1345 849 1335 c 1,26,-1
 841 1360 l 1,27,28
 1043 1420 1043 1420 1082 1420 c 0,29,30
 1108 1420 1108 1420 1127 1290 c 0,31,32
 1140 1199 1140 1199 1143 1127 c 0,33,34
 1148 987 1148 987 1144 768 c 0,35,36
 1140 460 1140 460 1140 409 c 0,37,38
 1140 368 1140 368 1141.5 287 c 128,-1,39
 1143 206 1143 206 1143 166 c 0,40,41
 1143 86 1143 86 1199 48 c 1,42,-1
 1199 29 l 1,0,-1
686 79 m 0,43,44
 741 79 741 79 776 95.5 c 128,-1,45
 811 112 811 112 869.5 176.5 c 128,-1,46
 928 241 928 241 928 273 c 2,47,-1
 928 760 l 1,48,49
 653 982 653 982 537 982 c 0,50,51
 425 982 425 982 364 862 c 0,52,53
 314 766 314 766 314 642 c 0,54,55
 314 477 314 477 417 292 c 0,56,57
 535 79 535 79 686 79 c 0,43,44
EndSplineSet
EndChar

StartChar: e
Encoding: 101 101 72
Width: 1094
Flags: W
LayerCount: 2
Fore
SplineSet
943 846 m 1,0,1
 723 1048 723 1048 590 1048 c 0,2,3
 472 1048 472 1048 404 893 c 0,4,5
 350 769 350 769 352 635 c 1,6,7
 793 624 793 624 810 624 c 0,8,9
 897 624 897 624 990 671 c 1,10,-1
 1007 637 l 1,11,12
 832 517 832 517 581 517 c 0,13,14
 547 517 547 517 472 519 c 128,-1,15
 397 521 397 521 356 521 c 1,16,17
 370 377 370 377 425 293.5 c 128,-1,18
 480 210 480 210 607 135 c 0,19,20
 706 76 706 76 778 76 c 0,21,22
 876 76 876 76 923 170 c 0,23,24
 928 178 928 178 982 348 c 1,25,-1
 1119 300 l 1,26,27
 1069 131 1069 131 986 81 c 0,28,29
 946 56 946 56 737 12 c 0,30,31
 617 -14 617 -14 592 -14 c 0,32,33
 566 -14 566 -14 508 6 c 0,34,35
 125 137 125 137 125 556 c 0,36,37
 125 865 125 865 421 1025 c 0,38,39
 631 1139 631 1139 728 1139 c 0,40,41
 905 1139 905 1139 1087 971 c 1,42,-1
 943 846 l 1,0,1
EndSplineSet
EndChar

StartChar: f
Encoding: 102 102 73
Width: 748
Flags: W
LayerCount: 2
Fore
SplineSet
737 1189 m 1,0,1
 520 1335 520 1335 461 1335 c 0,2,3
 359 1335 359 1335 359 1171 c 0,4,5
 359 1083 359 1083 381 923 c 0,6,7
 405 751 405 751 407 675 c 0,8,9
 408 656 408 656 408 279 c 1,10,11
 440 279 440 279 507 276 c 128,-1,12
 574 273 574 273 608 273 c 0,13,14
 741 273 741 273 822 308 c 1,15,-1
 841 279 l 1,16,17
 709 182 709 182 573 182 c 0,18,19
 552 182 552 182 496 184.5 c 128,-1,20
 440 187 440 187 404 187 c 1,21,-1
 394 -264 l 1,22,-1
 172 -287 l 1,23,-1
 172 194 l 1,24,-1
 95 194 l 1,25,-1
 174 290 l 1,26,27
 150 973 150 973 150 988 c 0,28,29
 150 1125 150 1125 207 1203 c 0,30,31
 248 1260 248 1260 379 1348 c 0,32,33
 518 1442 518 1442 583 1442 c 0,34,35
 697 1442 697 1442 866 1304 c 1,36,-1
 737 1189 l 1,0,1
EndSplineSet
EndChar

StartChar: g
Encoding: 103 103 74
Width: 1180
Flags: W
LayerCount: 2
Fore
SplineSet
992 791 m 1,0,1
 920 878 920 878 823 947 c 0,2,3
 703 1033 703 1033 615 1033 c 0,4,5
 559 1033 559 1033 491.5 988.5 c 128,-1,6
 424 944 424 944 396 892 c 0,7,8
 354 815 354 815 354 656 c 0,9,10
 354 433 354 433 425 302 c 0,11,12
 470 220 470 220 559 151 c 0,13,14
 658 75 658 75 742 75 c 0,15,16
 799 75 799 75 858 132 c 0,17,18
 877 151 877 151 943 237 c 1,19,-1
 944 360 l 2,20,21
 945 514 945 514 886 514 c 0,22,23
 878 514 878 514 868 512 c 1,24,-1
 868 544 l 1,25,-1
 1170 573 l 1,26,-1
 1170 142 l 2,27,28
 1170 -44 1170 -44 1084 -147 c 0,29,30
 1003 -244 1003 -244 820 -298 c 1,31,-1
 804 -269 l 1,32,33
 885 -227 885 -227 915 -167 c 0,34,35
 942 -114 942 -114 942 -19 c 0,36,37
 942 4 942 4 941 46 c 0,38,39
 940 93 940 93 940 112 c 1,40,41
 723 -10 723 -10 605 -10 c 0,42,43
 511 -10 511 -10 400 46 c 0,44,45
 120 187 120 187 120 530 c 0,46,47
 120 768 120 768 298 921 c 0,48,49
 376 989 376 989 513 1053 c 0,50,51
 661 1122 661 1122 751 1122 c 0,52,53
 827 1122 827 1122 941 1068 c 0,54,55
 1046 1019 1046 1019 1110 962 c 1,56,-1
 992 791 l 1,0,1
EndSplineSet
EndChar

StartChar: h
Encoding: 104 104 75
Width: 1162
Flags: W
LayerCount: 2
Fore
SplineSet
427 931 m 1,0,1
 638 1108 638 1108 755 1108 c 0,2,3
 917 1108 917 1108 1041.5 990 c 128,-1,4
 1166 872 1166 872 1166 712 c 0,5,6
 1166 620 1166 620 1137.5 438 c 128,-1,7
 1109 256 1109 256 1109 163 c 0,8,9
 1109 80 1109 80 1148 80 c 0,10,11
 1155 80 1155 80 1164 83 c 1,12,-1
 1172 44 l 1,13,14
 1113 30 1113 30 1054 16 c 0,15,16
 983 0 983 0 935 0 c 0,17,18
 922 0 922 0 913 1 c 0,19,20
 887 5 887 5 887 45 c 0,21,22
 887 157 887 157 914.5 381.5 c 128,-1,23
 942 606 942 606 942 718 c 0,24,25
 942 815 942 815 829 900 c 0,26,27
 723 980 723 980 623 980 c 0,28,29
 422 980 422 980 408 548 c 0,30,31
 398 239 398 239 389 17 c 1,32,-1
 178 -17 l 1,33,34
 178 104 178 104 180.5 345 c 128,-1,35
 183 586 183 586 183 707 c 0,36,37
 183 980 183 980 179 1050 c 0,38,39
 162 1329 162 1329 98 1328 c 2,40,-1
 77 1327 l 1,41,-1
 70 1358 l 1,42,-1
 340 1433 l 1,43,44
 423 1204 423 1204 427 931 c 1,0,1
EndSplineSet
EndChar

StartChar: i
Encoding: 105 105 76
Width: 399
Flags: W
LayerCount: 2
Fore
SplineSet
391 29 m 5,0,-1
 164 -13 l 5,1,2
 164 96 164 96 166.5 314 c 132,-1,3
 169 532 169 532 169 642 c 4,4,5
 169 882 169 882 164 976 c 4,6,7
 160 1061 160 1061 101 1056 c 5,8,-1
 101 1087 l 5,9,-1
 398 1131 l 5,10,-1
 391 29 l 5,0,-1
EndSplineSet
EndChar

StartChar: j
Encoding: 106 106 77
Width: 411
Flags: W
LayerCount: 2
Fore
SplineSet
-195 -317 m 1,0,-1
 -271 -204 l 1,1,-1
 -21 -88 l 1,2,-1
 -22 -142 l 2,3,4
 -22 -184 -22 -184 -3 -220 c 0,5,6
 20 -263 20 -263 60 -263 c 0,7,8
 176 -263 176 -263 176 21 c 0,9,10
 176 123 176 123 178 326.5 c 128,-1,11
 180 530 180 530 180 632 c 0,12,13
 180 984 180 984 160 1041 c 1,14,-1
 39 1050 l 1,15,-1
 39 1110 l 1,16,17
 123 1099 123 1099 205 1099 c 0,18,19
 331 1099 331 1099 400 1125 c 1,20,-1
 400 119 l 2,21,22
 400 -29 400 -29 363 -102 c 0,23,24
 322 -182 322 -182 199 -254 c 0,25,26
 63 -334 63 -334 -106 -334 c 0,27,28
 -164 -334 -164 -334 -195 -317 c 1,0,-1
EndSplineSet
EndChar

StartChar: k
Encoding: 107 107 78
Width: 1094
Flags: W
LayerCount: 2
Fore
SplineSet
808 1098 m 1,0,-1
 1027 1089 l 1,1,2
 886 856 886 856 592 529 c 1,3,4
 682 513 682 513 856 288 c 0,5,6
 1031 59 1031 59 1127 38 c 1,7,-1
 1127 15 l 1,8,9
 992 -23 992 -23 928 -23 c 0,10,11
 857 -23 857 -23 795 31 c 0,12,13
 785 40 785 40 696 140 c 2,14,-1
 501 362 l 1,15,-1
 460 371 l 1,16,-1
 402 310 l 1,17,18
 398 163 398 163 392 19 c 1,19,-1
 182 -15 l 1,20,21
 182 105 182 105 184.5 346.5 c 128,-1,22
 187 588 187 588 187 709 c 0,23,24
 187 962 187 962 182 1042 c 0,25,26
 167 1313 167 1313 110 1328 c 0,27,28
 109 1328 109 1328 81 1327 c 1,29,-1
 73 1360 l 1,30,-1
 344 1433 l 1,31,32
 418 1229 418 1229 418 879 c 0,33,34
 418 868 418 868 408 446 c 1,35,36
 578 622 578 622 656 743 c 0,37,38
 757 897 757 897 808 1098 c 1,0,-1
EndSplineSet
EndChar

StartChar: l
Encoding: 108 108 79
Width: 676
Flags: W
LayerCount: 2
Fore
SplineSet
168 -6 m 1,0,1
 168 113 168 113 170.5 349.5 c 128,-1,2
 173 586 173 586 173 705 c 0,3,4
 173 1307 173 1307 99 1320 c 0,5,6
 97 1320 97 1320 68 1319 c 1,7,-1
 60 1350 l 1,8,-1
 331 1425 l 1,9,10
 425 1166 425 1166 425 796 c 0,11,12
 425 681 425 681 418.5 449.5 c 128,-1,13
 412 218 412 218 412 104 c 1,14,15
 522 72 522 72 536 72 c 0,16,17
 571 72 571 72 621 100 c 0,18,19
 661 124 661 124 700 148 c 1,20,-1
 729 117 l 1,21,22
 679 68 679 68 629 19 c 1,23,24
 590 -8 590 -8 503 -8 c 0,25,26
 469 -8 469 -8 402 -2 c 128,-1,27
 335 4 335 4 302 4 c 0,28,29
 296 4 296 4 168 -6 c 1,0,1
EndSplineSet
EndChar

StartChar: m
Encoding: 109 109 80
Width: 1695
Flags: W
LayerCount: 2
Fore
SplineSet
385 944 m 1,0,1
 545 1066 545 1066 706 1112 c 1,2,3
 824 1065 824 1065 862 1044 c 0,4,5
 932 1004 932 1004 990 931 c 1,6,7
 1097 1020 1097 1020 1152 1050 c 0,8,9
 1234 1094 1234 1094 1346 1102 c 1,10,11
 1518 1046 1518 1046 1598 957 c 0,12,13
 1689 855 1689 855 1689 685 c 0,14,15
 1689 598 1689 598 1666 426 c 128,-1,16
 1643 254 1643 254 1643 167 c 0,17,18
 1643 107 1643 107 1667 75 c 1,19,-1
 1717 65 l 1,20,-1
 1717 40 l 1,21,22
 1655 27 1655 27 1593 14 c 0,23,24
 1516 -3 1516 -3 1468 -3 c 0,25,26
 1423 -3 1423 -3 1423 130 c 0,27,28
 1423 222 1423 222 1448 404.5 c 128,-1,29
 1473 587 1473 587 1473 680 c 0,30,31
 1473 807 1473 807 1383 892 c 128,-1,32
 1293 977 1293 977 1163 977 c 0,33,34
 1137 977 1137 977 1110 973 c 1,35,-1
 1027 846 l 1,36,37
 1040 823 1040 823 1040 691 c 0,38,39
 1040 661 1040 661 1015 21 c 1,40,-1
 800 -6 l 1,41,42
 802 57 802 57 810 289 c 0,43,44
 816 471 816 471 816 583 c 0,45,46
 816 763 816 763 783 849 c 0,47,48
 729 989 729 989 577 989 c 0,49,50
 533 989 533 989 497 973 c 1,51,-1
 400 804 l 1,52,-1
 401 723 l 2,53,54
 401 705 401 705 389 38 c 1,55,-1
 172 -6 l 1,56,-1
 173 415 l 2,57,58
 173 703 173 703 173 702 c 1,59,60
 166 874 166 874 124 979 c 1,61,-1
 73 1010 l 1,62,-1
 70 1035 l 1,63,-1
 315 1116 l 1,64,65
 355 1043 355 1043 385 944 c 1,0,1
EndSplineSet
EndChar

StartChar: n
Encoding: 110 110 81
Width: 1158
Flags: W
LayerCount: 2
Fore
SplineSet
1168 73 m 1,0,-1
 1168 38 l 1,1,2
 1166 38 1166 38 1056 14 c 0,3,4
 988 -1 988 -1 942 -1 c 0,5,6
 876 -1 876 -1 876 67 c 0,7,8
 876 171 876 171 904.5 381 c 128,-1,9
 933 591 933 591 933 695 c 0,10,11
 933 803 933 803 826 897 c 0,12,13
 721 988 721 988 609 988 c 0,14,15
 510 988 510 988 449 826 c 0,16,17
 405 706 405 706 400 579 c 2,18,-1
 381 8 l 1,19,-1
 168 -15 l 1,20,21
 169 64 169 64 174 288 c 0,22,23
 179 479 179 479 179 592 c 0,24,25
 179 744 179 744 168 801 c 0,26,27
 159 848 159 848 104 998 c 1,28,-1
 72 1000 l 1,29,-1
 66 1033 l 1,30,-1
 321 1104 l 1,31,32
 366 993 366 993 398 894 c 1,33,34
 658 1121 658 1121 777 1121 c 0,35,36
 811 1121 811 1121 901 1073 c 0,37,38
 1034 1002 1034 1002 1091 929 c 0,39,40
 1159 840 1159 840 1159 703 c 0,41,42
 1159 609 1159 609 1129 425 c 128,-1,43
 1099 241 1099 241 1099 147 c 0,44,45
 1099 87 1099 87 1133 73 c 1,46,-1
 1168 73 l 1,0,-1
EndSplineSet
EndChar

StartChar: o
Encoding: 111 111 82
Width: 1205
Flags: W
LayerCount: 2
Fore
SplineSet
1225 576 m 0,0,1
 1225 143 1225 143 766 17 c 0,2,3
 637 -18 637 -18 590 -18 c 0,4,5
 566 -18 566 -18 514 -2 c 0,6,7
 326 55 326 55 223.5 196 c 128,-1,8
 121 337 121 337 121 534 c 0,9,10
 121 858 121 858 425 1029 c 0,11,12
 473 1056 473 1056 573 1099 c 0,13,14
 689 1148 689 1148 720 1148 c 0,15,16
 798 1148 798 1148 919 1086 c 0,17,18
 1032 1028 1032 1028 1090 966 c 0,19,20
 1225 820 1225 820 1225 576 c 0,0,1
795 77 m 1,21,22
 917 98 917 98 975 227 c 0,23,24
 1021 327 1021 327 1021 470 c 0,25,26
 1021 660 1021 660 952 778 c 0,27,28
 880 903 880 903 711 981 c 0,29,30
 610 1028 610 1028 542 1028 c 0,31,32
 433 1028 433 1028 379 863 c 0,33,34
 340 746 340 746 340 608 c 0,35,36
 340 360 340 360 449 243 c 0,37,38
 546 138 546 138 795 77 c 1,21,22
EndSplineSet
EndChar

StartChar: p
Encoding: 112 112 83
Width: 1185
Flags: W
LayerCount: 2
Fore
SplineSet
389 -396 m 1,0,-1
 178 -450 l 1,1,-1
 178 729 l 2,2,3
 178 796 178 796 161 884 c 0,4,5
 139 1001 139 1001 104 1007 c 0,6,7
 98 1008 98 1008 77 1006 c 1,8,-1
 68 1037 l 1,9,-1
 340 1114 l 1,10,-1
 398 927 l 1,11,12
 454 988 454 988 577 1063 c 0,13,14
 712 1144 712 1144 779 1144 c 0,15,16
 881 1144 881 1144 998 1050 c 0,17,18
 1102 967 1102 967 1156 866 c 0,19,20
 1214 758 1214 758 1214 617 c 0,21,22
 1214 437 1214 437 1139 296 c 0,23,24
 1085 196 1085 196 923 96 c 128,-1,25
 761 -4 761 -4 646 -12 c 2,26,-1
 628 -13 l 2,27,28
 547 -18 547 -18 402 75 c 1,29,-1
 389 -396 l 1,0,-1
410 260 m 1,30,31
 472 161 472 161 690 60 c 1,32,-1
 705 59 l 1,33,34
 859 55 859 55 940 230 c 0,35,36
 1002 365 1002 365 1002 541 c 0,37,38
 1002 850 1002 850 766 985 c 0,39,40
 688 1029 688 1029 642 1029 c 0,41,42
 604 1029 604 1029 576 1014 c 0,43,44
 477 959 477 959 440 873 c 0,45,46
 410 803 410 803 410 677 c 2,47,-1
 410 260 l 1,30,31
EndSplineSet
EndChar

StartChar: q
Encoding: 113 113 84
Width: 1172
Flags: W
LayerCount: 2
Fore
SplineSet
1166 -185 m 2,0,1
 1166 -264 1166 -264 1218 -346 c 1,2,-1
 955 -406 l 1,3,-1
 943 125 l 1,4,5
 863 76 863 76 753 34 c 0,6,7
 626 -14 626 -14 552 -14 c 0,8,9
 495 -14 495 -14 387 52 c 0,10,11
 262 128 262 128 191 266 c 0,12,13
 123 399 123 399 123 549 c 0,14,15
 123 915 123 915 495 1081 c 0,16,17
 694 1170 694 1170 767 1170 c 0,18,19
 808 1170 808 1170 913 1123 c 0,20,21
 987 1088 987 1088 1061 1054 c 1,22,-1
 1185 1098 l 1,23,24
 1166 999 1166 999 1166 935 c 2,25,-1
 1166 -185 l 2,0,1
727 80 m 0,26,27
 841 80 841 80 896 204 c 0,28,29
 936 296 936 296 936 425 c 2,30,-1
 936 902 l 1,31,32
 876 953 876 953 773 1005 c 0,33,34
 657 1063 657 1063 594 1063 c 0,35,36
 461 1063 461 1063 392 874 c 0,37,38
 341 734 341 734 341 571 c 0,39,40
 341 419 341 419 432 285.5 c 128,-1,41
 523 152 523 152 665 96 c 0,42,43
 706 80 706 80 727 80 c 0,26,27
EndSplineSet
EndChar

StartChar: r
Encoding: 114 114 85
Width: 1152
Flags: W
LayerCount: 2
Fore
SplineSet
1181 42 m 1,0,-1
 1181 8 l 1,1,2
 1094 -24 1094 -24 983 -24 c 0,3,4
 946 -24 946 -24 907 -21 c 0,5,6
 815 -14 815 -14 709 74 c 0,7,8
 671 105 671 105 547 232 c 0,9,10
 467 315 467 315 433 314 c 2,11,-1
 410 314 l 1,12,-1
 400 31 l 1,13,-1
 172 -15 l 1,14,15
 173 74 173 74 176 285 c 0,16,17
 179 478 179 478 179 586 c 0,18,19
 179 689 179 689 175 829 c 0,20,21
 173 925 173 925 167 947 c 0,22,23
 150 1007 150 1007 85 1021 c 1,24,-1
 85 1046 l 1,25,-1
 358 1123 l 1,26,27
 371 1082 371 1082 391 996 c 1,28,29
 640 1161 640 1161 717 1161 c 0,30,31
 873 1161 873 1161 994 1031.5 c 128,-1,32
 1115 902 1115 902 1115 746 c 0,33,34
 1115 589 1115 589 1006 498 c 0,35,36
 975 473 975 473 762 360 c 1,37,38
 840 256 840 256 950 162 c 0,39,40
 1094 39 1094 39 1181 42 c 1,0,-1
890 672 m 0,41,42
 890 788 890 788 793 908 c 0,43,44
 690 1034 690 1034 576 1034 c 0,45,46
 410 1034 410 1034 410 646 c 2,47,-1
 410 360 l 1,48,-1
 463 358 l 2,49,50
 642 352 642 352 755 421 c 0,51,52
 890 503 890 503 890 672 c 0,41,42
EndSplineSet
EndChar

StartChar: s
Encoding: 115 115 86
Width: 875
Flags: W
LayerCount: 2
Fore
SplineSet
737 744 m 1,0,-1
 704 764 l 1,1,2
 710 791 710 791 710 810 c 0,3,4
 710 853 710 853 568 942 c 0,5,6
 431 1029 431 1029 382 1029 c 0,7,8
 249 1029 249 1029 249 867 c 0,9,10
 249 796 249 796 443 699 c 1,11,12
 561 647 561 647 679 596 c 0,13,14
 816 534 816 534 840 515 c 0,15,16
 907 462 907 462 907 354 c 0,17,18
 907 168 907 168 759 70 c 0,19,20
 631 -15 631 -15 436 -15 c 0,21,22
 100 -15 100 -15 97 211 c 2,23,-1
 96 248 l 1,24,-1
 97 275 l 1,25,-1
 344 294 l 1,26,27
 327 202 327 202 327 176 c 0,28,29
 327 118 327 118 376 72.5 c 128,-1,30
 425 27 425 27 484 27 c 0,31,32
 579 27 579 27 633 93 c 0,33,34
 683 155 683 155 683 251 c 0,35,36
 683 337 683 337 534 404 c 0,37,38
 396 463 396 463 259 521 c 1,39,40
 110 603 110 603 110 725 c 0,41,42
 110 869 110 869 201 966 c 0,43,44
 250 1017 250 1017 369.5 1073.5 c 128,-1,45
 489 1130 489 1130 557 1130 c 0,46,47
 610 1130 610 1130 720 1065 c 0,48,49
 806 1015 806 1015 872 962 c 1,50,-1
 737 744 l 1,0,-1
EndSplineSet
EndChar

StartChar: t
Encoding: 116 116 87
Width: 980
Flags: W
LayerCount: 2
Fore
SplineSet
611 1337 m 1,0,1
 556 1255 556 1255 555 1108 c 1,2,3
 583 1108 583 1108 640.5 1106 c 128,-1,4
 698 1104 698 1104 726 1104 c 0,5,6
 877 1104 877 1104 978 1160 c 1,7,-1
 998 1133 l 1,8,9
 885 1022 885 1022 704 1022 c 0,10,11
 681 1022 681 1022 630.5 1023.5 c 128,-1,12
 580 1025 580 1025 553 1025 c 1,13,14
 553 949 553 949 551.5 794.5 c 128,-1,15
 550 640 550 640 550 563 c 0,16,17
 550 544 550 544 549 498 c 128,-1,18
 548 452 548 452 548 427 c 0,19,20
 548 119 548 119 702 56 c 1,21,22
 784 160 784 160 795 340 c 1,23,-1
 971 313 l 1,24,25
 935 -16 935 -16 639 -16 c 0,26,27
 519 -16 519 -16 428 59 c 0,28,29
 333 137 333 137 327 255 c 0,30,31
 320 409 320 409 322 640 c 0,32,33
 327 1038 327 1038 327 1025 c 1,34,35
 312 1025 312 1025 279.5 1026 c 128,-1,36
 247 1027 247 1027 231 1027 c 0,37,38
 151 1027 151 1027 91 985 c 1,39,-1
 77 987 l 1,40,41
 94 1072 94 1072 104 1089 c 0,42,43
 118 1112 118 1112 160 1112 c 0,44,45
 171 1112 171 1112 225.5 1109 c 128,-1,46
 280 1106 280 1106 327 1106 c 1,47,48
 331 1174 331 1174 340 1219 c 1,49,-1
 595 1358 l 1,50,-1
 611 1337 l 1,0,1
EndSplineSet
EndChar

StartChar: u
Encoding: 117 117 88
Width: 1151
Flags: W
LayerCount: 2
Fore
SplineSet
706 87 m 1,0,1
 899 225 899 225 899 477 c 2,2,-1
 899 1100 l 1,3,-1
 1135 1123 l 1,4,-1
 1121 348 l 2,5,6
 1120 274 1120 274 1137 215 c 0,7,8
 1161 129 1161 129 1215 129 c 0,9,10
 1231 129 1231 129 1247 137 c 1,11,-1
 1247 100 l 1,12,-1
 1050 6 l 1,13,14
 959 88 959 88 909 194 c 1,15,16
 838 130 838 130 736 65 c 0,17,18
 609 -15 609 -15 547 -15 c 0,19,20
 365 -15 365 -15 257.5 92.5 c 128,-1,21
 150 200 150 200 150 380 c 0,22,23
 150 457 150 457 162.5 611 c 128,-1,24
 175 765 175 765 175 842 c 0,25,26
 175 1058 175 1058 118 1056 c 1,27,-1
 118 1089 l 1,28,-1
 410 1123 l 1,29,30
 379 442 379 442 379 422 c 0,31,32
 379 277 379 277 471 187 c 0,33,34
 558 101 558 101 706 87 c 1,0,1
EndSplineSet
EndChar

StartChar: v
Encoding: 118 118 89
Width: 1114
Flags: W
LayerCount: 2
Fore
SplineSet
766 200 m 1,0,1
 836 401 836 401 907 602 c 1,2,3
 977 829 977 829 977 1017 c 0,4,5
 977 1054 977 1054 974 1091 c 1,6,7
 1027 1085 1027 1085 1129 1091 c 1,8,-1
 1129 1087 l 2,9,10
 1131 1059 1131 1059 1116 1014 c 2,11,-1
 818 160 l 2,12,13
 799 107 799 107 799 76 c 1,14,15
 799 81 799 81 806 17 c 1,16,-1
 588 -15 l 1,17,18
 587 67 587 67 547 150 c 2,19,-1
 211 844 l 2,20,21
 153 963 153 963 77 996 c 1,22,-1
 77 1014 l 1,23,-1
 325 1123 l 1,24,-1
 766 200 l 1,0,1
EndSplineSet
EndChar

StartChar: w
Encoding: 119 119 90
Width: 1811
Flags: W
LayerCount: 2
Fore
SplineSet
805 77 m 1,0,1
 805 80 805 80 812 17 c 1,2,-1
 595 -15 l 1,3,4
 595 63 595 63 553 150 c 2,5,-1
 218 844 l 2,6,7
 162 962 162 962 83 996 c 1,8,-1
 83 1014 l 1,9,-1
 331 1123 l 1,10,-1
 771 200 l 1,11,12
 839 383 839 383 955 754 c 1,13,14
 889 889 889 889 887 892 c 0,15,16
 841 969 841 969 777 996 c 1,17,-1
 777 1014 l 1,18,-1
 1025 1123 l 1,19,-1
 1465 200 l 1,20,21
 1536 401 1536 401 1607 602 c 1,22,23
 1677 829 1677 829 1677 1017 c 0,24,25
 1677 1054 1677 1054 1674 1091 c 1,26,27
 1710 1087 1710 1087 1738 1087 c 0,28,29
 1759 1087 1759 1087 1829 1091 c 1,30,31
 1828 1049 1828 1049 1815 1014 c 2,32,-1
 1518 160 l 2,33,34
 1499 107 1499 107 1499 76 c 1,35,36
 1499 78 1499 78 1506 17 c 1,37,-1
 1288 -15 l 1,38,39
 1287 67 1287 67 1247 150 c 2,40,-1
 1001 658 l 1,41,42
 946 511 946 511 890 364 c 0,43,44
 805 132 805 132 805 77 c 1,0,1
EndSplineSet
EndChar

StartChar: x
Encoding: 120 120 91
Width: 1187
Flags: W
LayerCount: 2
Fore
SplineSet
694 677 m 1,0,1
 850 865 850 865 860 879 c 0,2,3
 947 999 947 999 972 1114 c 1,4,-1
 1125 1114 l 1,5,6
 1115 1057 1115 1057 951 854 c 0,7,8
 847 730 847 730 742 606 c 1,9,-1
 969 252 l 2,10,11
 1025 163 1025 163 1051 135 c 0,12,13
 1108 74 1108 74 1173 74 c 0,14,15
 1183 74 1183 74 1193 75 c 1,16,-1
 1218 29 l 1,17,18
 1158 14 1158 14 1098 -1 c 0,19,20
 1026 -18 1026 -18 975 -18 c 0,21,22
 907 -18 907 -18 844 53 c 0,23,24
 832 66 832 66 752 181 c 2,25,-1
 592 412 l 1,26,27
 488 280 488 280 384 148 c 1,28,29
 260 6 260 6 126 -54 c 1,30,-1
 102 -17 l 1,31,32
 178 27 178 27 234 98 c 2,33,-1
 541 487 l 1,34,-1
 294 854 l 2,35,36
 248 922 248 922 237 934 c 0,37,38
 201 972 201 972 151 979 c 1,39,-1
 141 1000 l 1,40,41
 365 1126 365 1126 378 1126 c 0,42,43
 422 1126 422 1126 694 677 c 1,0,1
EndSplineSet
EndChar

StartChar: y
Encoding: 121 121 92
Width: 1139
Flags: W
LayerCount: 2
Fore
SplineSet
288 -231 m 1,0,-1
 476 -160 l 1,1,2
 476 -273 476 -273 535 -273 c 0,3,4
 603 -273 603 -273 694 17 c 1,5,-1
 574 6 l 1,6,7
 579 55 579 55 579 71 c 0,8,9
 579 113 579 113 416 448 c 0,10,11
 317 646 317 646 218 844 c 0,12,13
 162 962 162 962 83 996 c 1,14,-1
 83 1014 l 1,15,-1
 331 1123 l 1,16,-1
 771 200 l 1,17,18
 843 400 843 400 914 600 c 1,19,20
 983 821 983 821 983 1012 c 0,21,22
 983 1051 983 1051 980 1091 c 1,23,24
 1033 1085 1033 1085 1135 1091 c 1,25,26
 1134 1049 1134 1049 1121 1014 c 2,27,-1
 824 160 l 2,28,29
 788 52 788 52 752 -55 c 0,30,31
 700 -194 700 -194 639 -266 c 0,32,33
 558 -362 558 -362 451 -362 c 0,34,35
 393 -362 393 -362 343 -326 c 0,36,37
 289 -286 289 -286 288 -231 c 1,0,-1
EndSplineSet
EndChar

StartChar: z
Encoding: 122 122 93
Width: 1042
Flags: W
LayerCount: 2
Fore
SplineSet
967 1108 m 1,0,-1
 1017 1075 l 1,1,-1
 1034 1021 l 1,2,-1
 362 106 l 1,3,4
 667 46 667 46 746 46 c 0,5,6
 834 46 834 46 862 91 c 0,7,8
 879 119 879 119 889 219 c 1,9,-1
 1044 219 l 1,10,11
 1045 92 1045 92 978 37 c 0,12,13
 916 -14 916 -14 784 -14 c 0,14,15
 692 -14 692 -14 515.5 2.5 c 128,-1,16
 339 19 339 19 246 19 c 0,17,18
 213 19 213 19 182 17 c 1,19,-1
 101 121 l 1,20,-1
 773 1044 l 1,21,-1
 381 1044 l 2,22,23
 264 1044 264 1044 166 1014 c 1,24,-1
 178 1108 l 1,25,-1
 967 1108 l 1,0,-1
EndSplineSet
EndChar

StartChar: braceleft
Encoding: 123 123 94
Width: 959
Flags: W
LayerCount: 2
Fore
SplineSet
242 502 m 1,0,1
 500 474 500 474 583 360 c 0,2,3
 655 262 655 262 655 -8 c 0,4,5
 655 -197 655 -197 714 -273 c 0,6,7
 779 -359 779 -359 961 -377 c 1,8,-1
 961 -454 l 1,9,10
 490 -454 490 -454 474 -92 c 0,11,12
 474 -87 474 -87 474 85 c 0,13,14
 474 284 474 284 408 357 c 0,15,16
 344 426 344 426 147 454 c 1,17,-1
 147 550 l 1,18,19
 354 579 354 579 421 662 c 0,20,21
 472 726 472 726 472 889 c 0,22,23
 472 912 472 912 471 965 c 0,24,25
 471 1019 471 1019 471 1050 c 0,26,27
 471 1281 471 1281 602 1375 c 0,28,29
 708 1451 708 1451 955 1464 c 1,30,-1
 955 1389 l 1,31,32
 734 1359 734 1359 681 1236 c 0,33,34
 652 1170 652 1170 652 910 c 0,35,36
 652 693 652 693 550 607 c 0,37,38
 472 542 472 542 242 502 c 1,0,1
EndSplineSet
EndChar

StartChar: bar
Encoding: 124 124 95
Width: 271
Flags: W
LayerCount: 2
Fore
SplineSet
168 -310 m 1,0,-1
 168 1421 l 1,1,-1
 261 1421 l 1,2,-1
 261 -310 l 1,3,-1
 168 -310 l 1,0,-1
EndSplineSet
EndChar

StartChar: braceright
Encoding: 125 125 96
Width: 959
Flags: W
LayerCount: 2
Fore
SplineSet
633 887 m 0,0,1
 633 713 633 713 711 640 c 0,2,3
 780 575 780 575 961 550 c 1,4,-1
 961 454 l 1,5,6
 778 428 778 428 712 369 c 0,7,8
 634 298 634 298 634 121 c 0,9,10
 634 94 634 94 635.5 42.5 c 128,-1,11
 637 -9 637 -9 637 -33 c 0,12,13
 637 -158 637 -158 608 -229 c 0,14,15
 570 -325 570 -325 468 -385 c 0,16,17
 348 -454 348 -454 147 -454 c 1,18,-1
 147 -377 l 1,19,20
 358 -356 358 -356 416 -236 c 0,21,22
 453 -163 453 -163 453 71 c 0,23,24
 453 287 453 287 548 384 c 0,25,26
 640 477 640 477 866 502 c 1,27,28
 585 550 585 550 515 653 c 0,29,30
 457 738 457 738 457 1038 c 0,31,32
 457 1211 457 1211 390.5 1288 c 128,-1,33
 324 1365 324 1365 153 1389 c 1,34,-1
 153 1464 l 1,35,36
 368 1453 368 1453 477 1392 c 0,37,38
 625 1310 625 1310 634 1119 c 1,39,40
 633 1130 633 1130 633 887 c 0,0,1
EndSplineSet
EndChar

StartChar: asciitilde
Encoding: 126 126 97
Width: 641
Flags: W
LayerCount: 2
Fore
SplineSet
232 1225 m 1,0,-1
 137 1214 l 1,1,2
 137 1381 137 1381 258 1381 c 0,3,4
 318 1381 318 1381 410.5 1337 c 128,-1,5
 503 1293 503 1293 511 1293 c 0,6,7
 550 1293 550 1293 549 1377 c 1,8,-1
 646 1389 l 1,9,10
 641 1223 641 1223 521 1223 c 0,11,12
 464 1223 464 1223 373.5 1266.5 c 128,-1,13
 283 1310 283 1310 271 1310 c 0,14,15
 231 1310 231 1310 232 1225 c 1,0,-1
EndSplineSet
EndChar

StartChar: Adieresis
Encoding: 196 196 98
Width: 1071
Flags: W
LayerCount: 2
Fore
SplineSet
889 -27 m 1,0,1
 820 56 820 56 744 183 c 1,2,3
 425 -13 425 -13 290 -13 c 0,4,5
 227 -13 227 -13 163 52 c 128,-1,6
 99 117 99 117 99 180 c 0,7,8
 99 402 99 402 595 610 c 1,9,10
 573 698 573 698 516 867 c 1,11,12
 495 916 495 916 461 939 c 0,13,14
 423 961 423 961 385 983 c 1,15,-1
 290 923 l 1,16,-1
 267 954 l 1,17,18
 360 1035 360 1035 386 1053 c 0,19,20
 465 1108 465 1108 525 1108 c 0,21,22
 669 1108 669 1108 758 842 c 2,23,-1
 918 364 l 2,24,25
 951 266 951 266 1069 96 c 1,26,-1
 889 -27 l 1,0,1
290 312 m 256,27,28
 290 211 290 211 431 94 c 1,29,30
 527 94 527 94 606 149 c 0,31,32
 694 209 694 209 698 300 c 1,33,-1
 624 519 l 1,34,35
 511 519 511 519 413 472 c 0,36,37
 290 413 290 413 290 312 c 256,27,28
497 1339 m 1,38,-1
 412 1214 l 1,39,-1
 323 1279 l 1,40,-1
 404 1404 l 1,41,-1
 497 1339 l 1,38,-1
764 1339 m 1,42,-1
 679 1214 l 1,43,-1
 588 1279 l 1,44,-1
 671 1404 l 1,45,-1
 764 1339 l 1,42,-1
EndSplineSet
EndChar

StartChar: Aring
Encoding: 197 197 99
Width: 1071
Flags: W
LayerCount: 2
Fore
SplineSet
889 -27 m 1,0,1
 820 56 820 56 744 183 c 1,2,3
 425 -13 425 -13 290 -13 c 0,4,5
 227 -13 227 -13 163 52 c 128,-1,6
 99 117 99 117 99 180 c 0,7,8
 99 402 99 402 595 610 c 1,9,10
 573 698 573 698 516 867 c 1,11,12
 495 916 495 916 461 939 c 0,13,14
 423 961 423 961 385 983 c 1,15,-1
 290 923 l 1,16,-1
 267 954 l 1,17,18
 360 1035 360 1035 386 1053 c 0,19,20
 465 1108 465 1108 525 1108 c 0,21,22
 669 1108 669 1108 758 842 c 2,23,-1
 918 364 l 2,24,25
 951 266 951 266 1069 96 c 1,26,-1
 889 -27 l 1,0,1
290 312 m 256,27,28
 290 211 290 211 431 94 c 1,29,30
 527 94 527 94 606 149 c 0,31,32
 694 209 694 209 698 300 c 1,33,-1
 624 519 l 1,34,35
 511 519 511 519 413 472 c 0,36,37
 290 413 290 413 290 312 c 256,27,28
717 1369 m 0,38,39
 717 1303 717 1303 671.5 1257.5 c 128,-1,40
 626 1212 626 1212 559 1212 c 0,41,42
 494 1212 494 1212 448 1258 c 128,-1,43
 402 1304 402 1304 402 1369 c 256,44,45
 402 1434 402 1434 448.5 1480.5 c 128,-1,46
 495 1527 495 1527 561 1527 c 0,47,48
 625 1527 625 1527 671 1480 c 128,-1,49
 717 1433 717 1433 717 1369 c 0,38,39
456 1368 m 0,50,51
 456 1326 456 1326 487.5 1297 c 128,-1,52
 519 1268 519 1268 562 1268 c 0,53,54
 606 1268 606 1268 635.5 1297.5 c 128,-1,55
 665 1327 665 1327 665 1371 c 0,56,57
 665 1412 665 1412 634 1441.5 c 128,-1,58
 603 1471 603 1471 562 1471 c 0,59,60
 518 1471 518 1471 487 1441 c 128,-1,61
 456 1411 456 1411 456 1368 c 0,50,51
EndSplineSet
EndChar

StartChar: Ccedilla
Encoding: 199 199 100
Width: 1054
Flags: W
LayerCount: 2
Fore
SplineSet
530 -15 m 0,0,1
 357 -15 357 -15 233 172 c 0,2,3
 123 340 123 340 123 521 c 0,4,5
 123 741 123 741 244 879 c 0,6,7
 348 997 348 997 570 1081 c 0,8,9
 626 1100 626 1100 737 1143 c 1,10,11
 928 1100 928 1100 1073 979 c 1,12,-1
 930 869 l 1,13,14
 701 1043 701 1043 594 1044 c 1,15,16
 441 976 441 976 384 858 c 0,17,18
 337 761 337 761 337 573 c 0,19,20
 337 393 337 393 450 237 c 0,21,22
 569 73 569 73 742 42 c 1,23,24
 814 64 814 64 867 165 c 0,25,26
 914 254 914 254 916 337 c 1,27,-1
 1096 298 l 1,28,29
 1072 133 1072 133 949 62 c 0,30,31
 859 10 859 10 669 -8 c 1,32,-1
 605 -98 l 1,33,-1
 639 -98 l 2,34,35
 726 -97 726 -97 781 -136 c 0,36,37
 844 -180 844 -180 844 -264 c 0,38,39
 844 -358 844 -358 751 -410 c 0,40,41
 674 -454 674 -454 572 -454 c 0,42,43
 357 -454 357 -454 358 -308 c 1,44,-1
 472 -273 l 1,45,46
 470 -356 470 -356 549 -392 c 1,47,48
 657 -393 657 -393 657 -254 c 0,49,50
 657 -221 657 -221 630.5 -195 c 128,-1,51
 604 -169 604 -169 571 -169 c 0,52,53
 526 -169 526 -169 483 -192 c 1,54,-1
 460 -162 l 1,55,-1
 580 -13 l 1,56,57
 534 -15 534 -15 530 -15 c 0,0,1
EndSplineSet
EndChar

StartChar: Eacute
Encoding: 201 201 101
Width: 1094
Flags: W
LayerCount: 2
Fore
SplineSet
943 846 m 1,0,1
 723 1048 723 1048 590 1048 c 0,2,3
 472 1048 472 1048 404 893 c 0,4,5
 350 769 350 769 352 635 c 1,6,7
 793 624 793 624 810 624 c 0,8,9
 897 624 897 624 990 671 c 1,10,-1
 1007 637 l 1,11,12
 832 517 832 517 581 517 c 0,13,14
 547 517 547 517 472 519 c 128,-1,15
 397 521 397 521 356 521 c 1,16,17
 370 377 370 377 425 293.5 c 128,-1,18
 480 210 480 210 607 135 c 0,19,20
 706 76 706 76 778 76 c 0,21,22
 876 76 876 76 923 170 c 0,23,24
 928 178 928 178 982 348 c 1,25,-1
 1119 300 l 1,26,27
 1069 131 1069 131 986 81 c 0,28,29
 946 56 946 56 737 12 c 0,30,31
 617 -14 617 -14 592 -14 c 0,32,33
 566 -14 566 -14 508 6 c 0,34,35
 125 137 125 137 125 556 c 0,36,37
 125 865 125 865 421 1025 c 0,38,39
 631 1139 631 1139 728 1139 c 0,40,41
 905 1139 905 1139 1087 971 c 1,42,-1
 943 846 l 1,0,1
617 1214 m 1,43,-1
 536 1214 l 1,44,-1
 717 1444 l 1,45,-1
 827 1444 l 1,46,-1
 841 1427 l 1,47,-1
 617 1214 l 1,43,-1
EndSplineSet
EndChar

StartChar: Ntilde
Encoding: 209 209 102
Width: 1158
Flags: W
LayerCount: 2
Fore
SplineSet
1175 73 m 1,0,-1
 1175 38 l 1,1,2
 1174 38 1174 38 1062 14 c 0,3,4
 993 -1 993 -1 947 -1 c 0,5,6
 883 -1 883 -1 883 68 c 0,7,8
 883 172 883 172 912 380.5 c 128,-1,9
 941 589 941 589 941 692 c 0,10,11
 941 801 941 801 832 896 c 0,12,13
 726 988 726 988 615 988 c 0,14,15
 515 988 515 988 456 826 c 0,16,17
 413 708 413 708 408 579 c 2,18,-1
 387 8 l 1,19,-1
 174 -15 l 1,20,21
 175 62 175 62 181 295 c 0,22,23
 187 488 187 488 187 605 c 0,24,25
 187 728 187 728 172 803 c 0,26,27
 159 870 159 870 112 998 c 1,28,-1
 77 1000 l 1,29,-1
 72 1033 l 1,30,-1
 327 1104 l 1,31,32
 379 977 379 977 404 894 c 1,33,34
 664 1121 664 1121 782 1121 c 0,35,36
 817 1121 817 1121 907 1073 c 0,37,38
 1041 1002 1041 1002 1097 928 c 0,39,40
 1165 839 1165 839 1165 701 c 0,41,42
 1165 608 1165 608 1136 424.5 c 128,-1,43
 1107 241 1107 241 1107 148 c 0,44,45
 1107 88 1107 88 1139 73 c 1,46,-1
 1175 73 l 1,0,-1
516 1227 m 1,47,-1
 420 1216 l 1,48,49
 425 1381 425 1381 541 1381 c 0,50,51
 601 1381 601 1381 692.5 1337.5 c 128,-1,52
 784 1294 784 1294 792 1294 c 0,53,54
 832 1294 832 1294 831 1379 c 1,55,-1
 928 1391 l 1,56,57
 923 1225 923 1225 804 1225 c 0,58,59
 747 1225 747 1225 657.5 1268.5 c 128,-1,60
 568 1312 568 1312 555 1312 c 0,61,62
 515 1312 515 1312 516 1227 c 1,47,-1
EndSplineSet
EndChar

StartChar: Odieresis
Encoding: 214 214 103
Width: 1205
Flags: W
LayerCount: 2
Fore
SplineSet
1225 576 m 0,0,1
 1225 143 1225 143 766 17 c 0,2,3
 637 -18 637 -18 590 -18 c 0,4,5
 566 -18 566 -18 514 -2 c 0,6,7
 326 55 326 55 223.5 196 c 128,-1,8
 121 337 121 337 121 534 c 0,9,10
 121 858 121 858 425 1029 c 0,11,12
 473 1056 473 1056 573 1099 c 0,13,14
 689 1148 689 1148 720 1148 c 0,15,16
 798 1148 798 1148 919 1086 c 0,17,18
 1032 1028 1032 1028 1090 966 c 0,19,20
 1225 820 1225 820 1225 576 c 0,0,1
795 77 m 1,21,22
 917 98 917 98 975 227 c 0,23,24
 1021 327 1021 327 1021 470 c 0,25,26
 1021 660 1021 660 952 778 c 0,27,28
 880 903 880 903 711 981 c 0,29,30
 610 1028 610 1028 542 1028 c 0,31,32
 433 1028 433 1028 379 863 c 0,33,34
 340 746 340 746 340 608 c 0,35,36
 340 360 340 360 449 243 c 0,37,38
 546 138 546 138 795 77 c 1,21,22
640 1339 m 1,39,-1
 555 1212 l 1,40,-1
 466 1277 l 1,41,-1
 547 1402 l 1,42,-1
 640 1339 l 1,39,-1
907 1339 m 1,43,-1
 822 1212 l 1,44,-1
 731 1277 l 1,45,-1
 812 1402 l 1,46,-1
 907 1339 l 1,43,-1
EndSplineSet
EndChar

StartChar: Udieresis
Encoding: 220 220 104
Width: 1151
Flags: W
LayerCount: 2
Fore
SplineSet
692 87 m 1,0,1
 885 225 885 225 885 477 c 2,2,-1
 885 1100 l 1,3,-1
 1121 1123 l 1,4,-1
 1108 348 l 2,5,6
 1107 274 1107 274 1123 215 c 0,7,8
 1148 129 1148 129 1201 129 c 0,9,10
 1217 129 1217 129 1233 137 c 1,11,-1
 1233 100 l 1,12,-1
 1036 6 l 1,13,14
 945 88 945 88 895 194 c 1,15,16
 824 130 824 130 723 65 c 0,17,18
 596 -15 596 -15 534 -15 c 0,19,20
 352 -15 352 -15 244 93.5 c 128,-1,21
 136 202 136 202 136 381 c 0,22,23
 136 458 136 458 149 611.5 c 128,-1,24
 162 765 162 765 162 842 c 0,25,26
 162 1058 162 1058 104 1056 c 1,27,-1
 104 1089 l 1,28,-1
 398 1123 l 1,29,30
 388 949 388 949 378 774 c 0,31,32
 366 564 366 564 366 424 c 0,33,34
 366 278 366 278 457 188 c 0,35,36
 544 101 544 101 692 87 c 1,0,1
603 1339 m 1,37,-1
 518 1212 l 1,38,-1
 429 1277 l 1,39,-1
 510 1402 l 1,40,-1
 603 1339 l 1,37,-1
870 1339 m 1,41,-1
 785 1212 l 1,42,-1
 694 1277 l 1,43,-1
 777 1402 l 1,44,-1
 870 1339 l 1,41,-1
EndSplineSet
EndChar

StartChar: aacute
Encoding: 225 225 105
Width: 1071
Flags: W
LayerCount: 2
Fore
SplineSet
889 -27 m 1,0,1
 820 56 820 56 744 183 c 1,2,3
 425 -13 425 -13 290 -13 c 0,4,5
 227 -13 227 -13 163 52 c 128,-1,6
 99 117 99 117 99 180 c 0,7,8
 99 402 99 402 595 610 c 1,9,10
 573 698 573 698 516 867 c 1,11,12
 495 916 495 916 461 939 c 0,13,14
 423 961 423 961 385 983 c 1,15,-1
 290 923 l 1,16,-1
 267 954 l 1,17,18
 360 1035 360 1035 386 1053 c 0,19,20
 465 1108 465 1108 525 1108 c 0,21,22
 669 1108 669 1108 758 842 c 2,23,-1
 918 364 l 2,24,25
 951 266 951 266 1069 96 c 1,26,-1
 889 -27 l 1,0,1
290 312 m 256,27,28
 290 211 290 211 431 94 c 1,29,30
 527 94 527 94 606 149 c 0,31,32
 694 209 694 209 698 300 c 1,33,-1
 624 519 l 1,34,35
 511 519 511 519 413 472 c 0,36,37
 290 413 290 413 290 312 c 256,27,28
524 1214 m 1,38,-1
 443 1214 l 1,39,-1
 624 1444 l 1,40,-1
 735 1444 l 1,41,-1
 748 1427 l 1,42,-1
 524 1214 l 1,38,-1
EndSplineSet
EndChar

StartChar: agrave
Encoding: 224 224 106
Width: 1071
Flags: W
LayerCount: 2
Fore
SplineSet
889 -27 m 1,0,1
 820 56 820 56 744 183 c 1,2,3
 425 -13 425 -13 290 -13 c 0,4,5
 227 -13 227 -13 163 52 c 128,-1,6
 99 117 99 117 99 180 c 0,7,8
 99 402 99 402 595 610 c 1,9,10
 573 698 573 698 516 867 c 1,11,12
 495 916 495 916 461 939 c 0,13,14
 423 961 423 961 385 983 c 1,15,-1
 290 923 l 1,16,-1
 267 954 l 1,17,18
 360 1035 360 1035 386 1053 c 0,19,20
 465 1108 465 1108 525 1108 c 0,21,22
 669 1108 669 1108 758 842 c 2,23,-1
 918 364 l 2,24,25
 951 266 951 266 1069 96 c 1,26,-1
 889 -27 l 1,0,1
290 312 m 256,27,28
 290 211 290 211 431 94 c 1,29,30
 527 94 527 94 606 149 c 0,31,32
 694 209 694 209 698 300 c 1,33,-1
 624 519 l 1,34,35
 511 519 511 519 413 472 c 0,36,37
 290 413 290 413 290 312 c 256,27,28
373 1444 m 1,38,-1
 555 1214 l 1,39,-1
 474 1214 l 1,40,-1
 249 1427 l 1,41,-1
 263 1445 l 1,42,-1
 373 1444 l 1,38,-1
EndSplineSet
EndChar

StartChar: acircumflex
Encoding: 226 226 107
Width: 1071
Flags: W
LayerCount: 2
Fore
SplineSet
889 -27 m 1,0,1
 820 56 820 56 744 183 c 1,2,3
 425 -13 425 -13 290 -13 c 0,4,5
 227 -13 227 -13 163 52 c 128,-1,6
 99 117 99 117 99 180 c 0,7,8
 99 402 99 402 595 610 c 1,9,10
 573 698 573 698 516 867 c 1,11,12
 495 916 495 916 461 939 c 0,13,14
 423 961 423 961 385 983 c 1,15,-1
 290 923 l 1,16,-1
 267 954 l 1,17,18
 360 1035 360 1035 386 1053 c 0,19,20
 465 1108 465 1108 525 1108 c 0,21,22
 669 1108 669 1108 758 842 c 2,23,-1
 918 364 l 2,24,25
 951 266 951 266 1069 96 c 1,26,-1
 889 -27 l 1,0,1
290 312 m 256,27,28
 290 211 290 211 431 94 c 1,29,30
 527 94 527 94 606 149 c 0,31,32
 694 209 694 209 698 300 c 1,33,-1
 624 519 l 1,34,35
 511 519 511 519 413 472 c 0,36,37
 290 413 290 413 290 312 c 256,27,28
574 1444 m 1,38,-1
 760 1214 l 1,39,-1
 655 1214 l 1,40,-1
 537 1352 l 1,41,-1
 437 1214 l 1,42,-1
 309 1214 l 1,43,-1
 286 1243 l 1,44,-1
 464 1444 l 1,45,-1
 574 1444 l 1,38,-1
EndSplineSet
EndChar

StartChar: adieresis
Encoding: 228 228 108
Width: 1071
Flags: W
LayerCount: 2
Fore
SplineSet
889 -27 m 1,0,1
 820 56 820 56 744 183 c 1,2,3
 425 -13 425 -13 290 -13 c 0,4,5
 227 -13 227 -13 163 52 c 128,-1,6
 99 117 99 117 99 180 c 0,7,8
 99 402 99 402 595 610 c 1,9,10
 573 698 573 698 516 867 c 1,11,12
 495 916 495 916 461 939 c 0,13,14
 423 961 423 961 385 983 c 1,15,-1
 290 923 l 1,16,-1
 267 954 l 1,17,18
 360 1035 360 1035 386 1053 c 0,19,20
 465 1108 465 1108 525 1108 c 0,21,22
 669 1108 669 1108 758 842 c 2,23,-1
 918 364 l 2,24,25
 951 266 951 266 1069 96 c 1,26,-1
 889 -27 l 1,0,1
290 312 m 256,27,28
 290 211 290 211 431 94 c 1,29,30
 527 94 527 94 606 149 c 0,31,32
 694 209 694 209 698 300 c 1,33,-1
 624 519 l 1,34,35
 511 519 511 519 413 472 c 0,36,37
 290 413 290 413 290 312 c 256,27,28
497 1339 m 1,38,-1
 412 1214 l 1,39,-1
 323 1279 l 1,40,-1
 404 1404 l 1,41,-1
 497 1339 l 1,38,-1
764 1339 m 1,42,-1
 679 1214 l 1,43,-1
 588 1279 l 1,44,-1
 671 1404 l 1,45,-1
 764 1339 l 1,42,-1
EndSplineSet
EndChar

StartChar: atilde
Encoding: 227 227 109
Width: 1071
Flags: W
LayerCount: 2
Fore
SplineSet
889 -27 m 1,0,1
 820 56 820 56 744 183 c 1,2,3
 425 -13 425 -13 290 -13 c 0,4,5
 227 -13 227 -13 163 52 c 128,-1,6
 99 117 99 117 99 180 c 0,7,8
 99 402 99 402 595 610 c 1,9,10
 573 698 573 698 516 867 c 1,11,12
 495 916 495 916 461 939 c 0,13,14
 423 961 423 961 385 983 c 1,15,-1
 290 923 l 1,16,-1
 267 954 l 1,17,18
 360 1035 360 1035 386 1053 c 0,19,20
 465 1108 465 1108 525 1108 c 0,21,22
 669 1108 669 1108 758 842 c 2,23,-1
 918 364 l 2,24,25
 951 266 951 266 1069 96 c 1,26,-1
 889 -27 l 1,0,1
290 312 m 256,27,28
 290 211 290 211 431 94 c 1,29,30
 527 94 527 94 606 149 c 0,31,32
 694 209 694 209 698 300 c 1,33,-1
 624 519 l 1,34,35
 511 519 511 519 413 472 c 0,36,37
 290 413 290 413 290 312 c 256,27,28
360 1223 m 1,38,-1
 263 1212 l 1,39,40
 268 1379 268 1379 385 1379 c 0,41,42
 446 1379 446 1379 538 1335 c 128,-1,43
 630 1291 630 1291 636 1291 c 0,44,45
 676 1291 676 1291 675 1375 c 1,46,-1
 771 1387 l 1,47,48
 766 1221 766 1221 646 1221 c 0,49,50
 588 1221 588 1221 499 1265 c 128,-1,51
 410 1309 410 1309 398 1309 c 0,52,53
 359 1309 359 1309 360 1223 c 1,38,-1
EndSplineSet
EndChar

StartChar: aring
Encoding: 229 229 110
Width: 1071
Flags: W
LayerCount: 2
Fore
SplineSet
889 -27 m 1,0,1
 820 56 820 56 744 183 c 1,2,3
 425 -13 425 -13 290 -13 c 0,4,5
 227 -13 227 -13 163 52 c 128,-1,6
 99 117 99 117 99 180 c 0,7,8
 99 402 99 402 595 610 c 1,9,10
 573 698 573 698 516 867 c 1,11,12
 495 916 495 916 461 939 c 0,13,14
 423 961 423 961 385 983 c 1,15,-1
 290 923 l 1,16,-1
 267 954 l 1,17,18
 360 1035 360 1035 386 1053 c 0,19,20
 465 1108 465 1108 525 1108 c 0,21,22
 669 1108 669 1108 758 842 c 2,23,-1
 918 364 l 2,24,25
 951 266 951 266 1069 96 c 1,26,-1
 889 -27 l 1,0,1
290 312 m 256,27,28
 290 211 290 211 431 94 c 1,29,30
 527 94 527 94 606 149 c 0,31,32
 694 209 694 209 698 300 c 1,33,-1
 624 519 l 1,34,35
 511 519 511 519 413 472 c 0,36,37
 290 413 290 413 290 312 c 256,27,28
717 1369 m 0,38,39
 717 1303 717 1303 671.5 1257.5 c 128,-1,40
 626 1212 626 1212 559 1212 c 0,41,42
 494 1212 494 1212 448 1258 c 128,-1,43
 402 1304 402 1304 402 1369 c 256,44,45
 402 1434 402 1434 448.5 1480.5 c 128,-1,46
 495 1527 495 1527 561 1527 c 0,47,48
 625 1527 625 1527 671 1480 c 128,-1,49
 717 1433 717 1433 717 1369 c 0,38,39
456 1368 m 0,50,51
 456 1326 456 1326 487.5 1297 c 128,-1,52
 519 1268 519 1268 562 1268 c 0,53,54
 606 1268 606 1268 635.5 1297.5 c 128,-1,55
 665 1327 665 1327 665 1371 c 0,56,57
 665 1412 665 1412 634 1441.5 c 128,-1,58
 603 1471 603 1471 562 1471 c 0,59,60
 518 1471 518 1471 487 1441 c 128,-1,61
 456 1411 456 1411 456 1368 c 0,50,51
EndSplineSet
EndChar

StartChar: ccedilla
Encoding: 231 231 111
Width: 1054
Flags: W
LayerCount: 2
Fore
SplineSet
530 -15 m 0,0,1
 357 -15 357 -15 233 172 c 0,2,3
 123 340 123 340 123 521 c 0,4,5
 123 741 123 741 244 879 c 0,6,7
 348 997 348 997 570 1081 c 0,8,9
 626 1100 626 1100 737 1143 c 1,10,11
 928 1100 928 1100 1073 979 c 1,12,-1
 930 869 l 1,13,14
 701 1043 701 1043 594 1044 c 1,15,16
 441 976 441 976 384 858 c 0,17,18
 337 761 337 761 337 573 c 0,19,20
 337 393 337 393 450 237 c 0,21,22
 569 73 569 73 742 42 c 1,23,24
 814 64 814 64 867 165 c 0,25,26
 914 254 914 254 916 337 c 1,27,-1
 1096 298 l 1,28,29
 1072 133 1072 133 949 62 c 0,30,31
 859 10 859 10 669 -8 c 1,32,-1
 605 -98 l 1,33,-1
 639 -98 l 2,34,35
 726 -97 726 -97 781 -136 c 0,36,37
 844 -180 844 -180 844 -264 c 0,38,39
 844 -358 844 -358 751 -410 c 0,40,41
 674 -454 674 -454 572 -454 c 0,42,43
 357 -454 357 -454 358 -308 c 1,44,-1
 472 -273 l 1,45,46
 470 -356 470 -356 549 -392 c 1,47,48
 657 -393 657 -393 657 -254 c 0,49,50
 657 -221 657 -221 630.5 -195 c 128,-1,51
 604 -169 604 -169 571 -169 c 0,52,53
 526 -169 526 -169 483 -192 c 1,54,-1
 460 -162 l 1,55,-1
 580 -13 l 1,56,57
 534 -15 534 -15 530 -15 c 0,0,1
EndSplineSet
EndChar

StartChar: eacute
Encoding: 233 233 112
Width: 1094
Flags: W
LayerCount: 2
Fore
SplineSet
943 846 m 1,0,1
 723 1048 723 1048 590 1048 c 0,2,3
 472 1048 472 1048 404 893 c 0,4,5
 350 769 350 769 352 635 c 1,6,7
 793 624 793 624 810 624 c 0,8,9
 897 624 897 624 990 671 c 1,10,-1
 1007 637 l 1,11,12
 832 517 832 517 581 517 c 0,13,14
 547 517 547 517 472 519 c 128,-1,15
 397 521 397 521 356 521 c 1,16,17
 370 377 370 377 425 293.5 c 128,-1,18
 480 210 480 210 607 135 c 0,19,20
 706 76 706 76 778 76 c 0,21,22
 876 76 876 76 923 170 c 0,23,24
 928 178 928 178 982 348 c 1,25,-1
 1119 300 l 1,26,27
 1069 131 1069 131 986 81 c 0,28,29
 946 56 946 56 737 12 c 0,30,31
 617 -14 617 -14 592 -14 c 0,32,33
 566 -14 566 -14 508 6 c 0,34,35
 125 137 125 137 125 556 c 0,36,37
 125 865 125 865 421 1025 c 0,38,39
 631 1139 631 1139 728 1139 c 0,40,41
 905 1139 905 1139 1087 971 c 1,42,-1
 943 846 l 1,0,1
617 1214 m 1,43,-1
 536 1214 l 1,44,-1
 717 1444 l 1,45,-1
 827 1444 l 1,46,-1
 841 1427 l 1,47,-1
 617 1214 l 1,43,-1
EndSplineSet
EndChar

StartChar: egrave
Encoding: 232 232 113
Width: 1094
Flags: W
LayerCount: 2
Fore
SplineSet
943 846 m 1,0,1
 723 1048 723 1048 590 1048 c 0,2,3
 472 1048 472 1048 404 893 c 0,4,5
 350 769 350 769 352 635 c 1,6,7
 793 624 793 624 810 624 c 0,8,9
 897 624 897 624 990 671 c 1,10,-1
 1007 637 l 1,11,12
 832 517 832 517 581 517 c 0,13,14
 547 517 547 517 472 519 c 128,-1,15
 397 521 397 521 356 521 c 1,16,17
 370 377 370 377 425 293.5 c 128,-1,18
 480 210 480 210 607 135 c 0,19,20
 706 76 706 76 778 76 c 0,21,22
 876 76 876 76 923 170 c 0,23,24
 928 178 928 178 982 348 c 1,25,-1
 1119 300 l 1,26,27
 1069 131 1069 131 986 81 c 0,28,29
 946 56 946 56 737 12 c 0,30,31
 617 -14 617 -14 592 -14 c 0,32,33
 566 -14 566 -14 508 6 c 0,34,35
 125 137 125 137 125 556 c 0,36,37
 125 865 125 865 421 1025 c 0,38,39
 631 1139 631 1139 728 1139 c 0,40,41
 905 1139 905 1139 1087 971 c 1,42,-1
 943 846 l 1,0,1
599 1444 m 1,43,-1
 781 1214 l 1,44,-1
 700 1214 l 1,45,-1
 476 1427 l 1,46,-1
 489 1444 l 1,47,-1
 599 1444 l 1,43,-1
EndSplineSet
EndChar

StartChar: ecircumflex
Encoding: 234 234 114
Width: 1094
Flags: W
LayerCount: 2
Fore
SplineSet
936 846 m 1,0,1
 715 1048 715 1048 584 1048 c 0,2,3
 470 1048 470 1048 400 898 c 0,4,5
 344 776 344 776 346 648 c 2,6,-1
 346 635 l 1,7,8
 786 624 786 624 803 624 c 0,9,10
 891 624 891 624 984 671 c 1,11,-1
 1001 637 l 1,12,13
 826 517 826 517 576 517 c 0,14,15
 542 517 542 517 466.5 519 c 128,-1,16
 391 521 391 521 350 521 c 1,17,18
 364 377 364 377 418.5 293.5 c 128,-1,19
 473 210 473 210 599 135 c 0,20,21
 698 76 698 76 771 76 c 0,22,23
 869 76 869 76 917 170 c 0,24,25
 923 181 923 181 976 348 c 1,26,-1
 1112 300 l 1,27,28
 1064 131 1064 131 979 81 c 0,29,30
 938 56 938 56 729 12 c 0,31,32
 611 -14 611 -14 586 -14 c 0,33,34
 560 -14 560 -14 503 6 c 0,35,36
 119 135 119 135 119 554 c 0,37,38
 119 866 119 866 414 1025 c 0,39,40
 625 1139 625 1139 722 1139 c 0,41,42
 895 1139 895 1139 1081 971 c 1,43,-1
 936 846 l 1,0,1
710 1443 m 1,44,-1
 895 1212 l 1,45,-1
 791 1212 l 1,46,-1
 673 1350 l 1,47,-1
 574 1212 l 1,48,-1
 445 1212 l 1,49,-1
 421 1241 l 1,50,-1
 599 1443 l 1,51,-1
 710 1443 l 1,44,-1
EndSplineSet
EndChar

StartChar: edieresis
Encoding: 235 235 115
Width: 1094
Flags: W
LayerCount: 2
Fore
SplineSet
943 846 m 1,0,1
 723 1048 723 1048 590 1048 c 0,2,3
 472 1048 472 1048 404 893 c 0,4,5
 350 769 350 769 352 635 c 1,6,7
 793 624 793 624 810 624 c 0,8,9
 897 624 897 624 990 671 c 1,10,-1
 1007 637 l 1,11,12
 832 517 832 517 581 517 c 0,13,14
 547 517 547 517 472 519 c 128,-1,15
 397 521 397 521 356 521 c 1,16,17
 370 377 370 377 425 293.5 c 128,-1,18
 480 210 480 210 607 135 c 0,19,20
 706 76 706 76 778 76 c 0,21,22
 876 76 876 76 923 170 c 0,23,24
 928 178 928 178 982 348 c 1,25,-1
 1119 300 l 1,26,27
 1069 131 1069 131 986 81 c 0,28,29
 946 56 946 56 737 12 c 0,30,31
 617 -14 617 -14 592 -14 c 0,32,33
 566 -14 566 -14 508 6 c 0,34,35
 125 137 125 137 125 556 c 0,36,37
 125 865 125 865 421 1025 c 0,38,39
 631 1139 631 1139 728 1139 c 0,40,41
 905 1139 905 1139 1087 971 c 1,42,-1
 943 846 l 1,0,1
623 1339 m 1,43,-1
 539 1212 l 1,44,-1
 449 1277 l 1,45,-1
 530 1402 l 1,46,-1
 623 1339 l 1,43,-1
889 1339 m 1,47,-1
 804 1212 l 1,48,-1
 715 1277 l 1,49,-1
 797 1402 l 1,50,-1
 889 1339 l 1,47,-1
EndSplineSet
EndChar

StartChar: iacute
Encoding: 237 237 116
Width: 399
Flags: W
LayerCount: 2
Fore
SplineSet
391 29 m 1,0,-1
 164 -13 l 1,1,2
 164 96 164 96 166.5 314 c 128,-1,3
 169 532 169 532 169 642 c 0,4,5
 169 882 169 882 164 976 c 0,6,7
 160 1061 160 1061 101 1056 c 1,8,-1
 101 1087 l 1,9,-1
 398 1131 l 1,10,-1
 391 29 l 1,0,-1
290 1214 m 1,11,-1
 209 1214 l 1,12,-1
 392 1444 l 1,13,-1
 503 1444 l 1,14,-1
 516 1427 l 1,15,-1
 290 1214 l 1,11,-1
EndSplineSet
EndChar

StartChar: igrave
Encoding: 236 236 117
Width: 399
Flags: W
LayerCount: 2
Fore
SplineSet
391 29 m 1,0,-1
 164 -13 l 1,1,2
 164 96 164 96 166.5 314 c 128,-1,3
 169 532 169 532 169 642 c 0,4,5
 169 882 169 882 164 976 c 0,6,7
 160 1061 160 1061 101 1056 c 1,8,-1
 101 1087 l 1,9,-1
 398 1131 l 1,10,-1
 391 29 l 1,0,-1
126 1445 m 1,11,-1
 309 1214 l 1,12,-1
 228 1214 l 1,13,-1
 4 1427 l 1,14,-1
 17 1445 l 1,15,-1
 126 1445 l 1,11,-1
EndSplineSet
EndChar

StartChar: icircumflex
Encoding: 238 238 118
Width: 399
Flags: W
LayerCount: 2
Fore
SplineSet
391 29 m 1,0,-1
 164 -13 l 1,1,2
 164 96 164 96 166.5 314 c 128,-1,3
 169 532 169 532 169 642 c 0,4,5
 169 882 169 882 164 976 c 0,6,7
 160 1061 160 1061 101 1056 c 1,8,-1
 101 1087 l 1,9,-1
 398 1131 l 1,10,-1
 391 29 l 1,0,-1
307 1444 m 1,11,-1
 493 1214 l 1,12,-1
 389 1214 l 1,13,-1
 271 1352 l 1,14,-1
 172 1214 l 1,15,-1
 43 1214 l 1,16,-1
 19 1243 l 1,17,-1
 197 1445 l 1,18,-1
 307 1444 l 1,11,-1
EndSplineSet
EndChar

StartChar: idieresis
Encoding: 239 239 119
Width: 399
Flags: W
LayerCount: 2
Fore
SplineSet
391 29 m 1,0,-1
 164 -13 l 1,1,2
 164 96 164 96 166.5 314 c 128,-1,3
 169 532 169 532 169 642 c 0,4,5
 169 882 169 882 164 976 c 0,6,7
 160 1061 160 1061 101 1056 c 1,8,-1
 101 1087 l 1,9,-1
 398 1131 l 1,10,-1
 391 29 l 1,0,-1
215 1339 m 1,11,-1
 130 1212 l 1,12,-1
 41 1277 l 1,13,-1
 122 1402 l 1,14,-1
 215 1339 l 1,11,-1
479 1339 m 1,15,-1
 396 1212 l 1,16,-1
 305 1277 l 1,17,-1
 387 1402 l 1,18,-1
 479 1339 l 1,15,-1
EndSplineSet
EndChar

StartChar: ntilde
Encoding: 241 241 120
Width: 1158
Flags: W
LayerCount: 2
Fore
SplineSet
1175 73 m 1,0,-1
 1175 38 l 1,1,2
 1174 38 1174 38 1062 14 c 0,3,4
 993 -1 993 -1 947 -1 c 0,5,6
 883 -1 883 -1 883 68 c 0,7,8
 883 172 883 172 912 380.5 c 128,-1,9
 941 589 941 589 941 692 c 0,10,11
 941 801 941 801 832 896 c 0,12,13
 726 988 726 988 615 988 c 0,14,15
 515 988 515 988 456 826 c 0,16,17
 413 708 413 708 408 579 c 2,18,-1
 387 8 l 1,19,-1
 174 -15 l 1,20,21
 175 62 175 62 181 295 c 0,22,23
 187 488 187 488 187 605 c 0,24,25
 187 728 187 728 172 803 c 0,26,27
 159 870 159 870 112 998 c 1,28,-1
 77 1000 l 1,29,-1
 72 1033 l 1,30,-1
 327 1104 l 1,31,32
 379 977 379 977 404 894 c 1,33,34
 664 1121 664 1121 782 1121 c 0,35,36
 817 1121 817 1121 907 1073 c 0,37,38
 1041 1002 1041 1002 1097 928 c 0,39,40
 1165 839 1165 839 1165 701 c 0,41,42
 1165 608 1165 608 1136 424.5 c 128,-1,43
 1107 241 1107 241 1107 148 c 0,44,45
 1107 88 1107 88 1139 73 c 1,46,-1
 1175 73 l 1,0,-1
516 1227 m 1,47,-1
 420 1216 l 1,48,49
 425 1381 425 1381 541 1381 c 0,50,51
 601 1381 601 1381 692.5 1337.5 c 128,-1,52
 784 1294 784 1294 792 1294 c 0,53,54
 832 1294 832 1294 831 1379 c 1,55,-1
 928 1391 l 1,56,57
 923 1225 923 1225 804 1225 c 0,58,59
 747 1225 747 1225 657.5 1268.5 c 128,-1,60
 568 1312 568 1312 555 1312 c 0,61,62
 515 1312 515 1312 516 1227 c 1,47,-1
EndSplineSet
EndChar

StartChar: oacute
Encoding: 243 243 121
Width: 1205
Flags: W
LayerCount: 2
Fore
SplineSet
1225 576 m 0,0,1
 1225 143 1225 143 766 17 c 0,2,3
 637 -18 637 -18 590 -18 c 0,4,5
 566 -18 566 -18 514 -2 c 0,6,7
 326 55 326 55 223.5 196 c 128,-1,8
 121 337 121 337 121 534 c 0,9,10
 121 858 121 858 425 1029 c 0,11,12
 473 1056 473 1056 573 1099 c 0,13,14
 689 1148 689 1148 720 1148 c 0,15,16
 798 1148 798 1148 919 1086 c 0,17,18
 1032 1028 1032 1028 1090 966 c 0,19,20
 1225 820 1225 820 1225 576 c 0,0,1
795 77 m 1,21,22
 917 98 917 98 975 227 c 0,23,24
 1021 327 1021 327 1021 470 c 0,25,26
 1021 660 1021 660 952 778 c 0,27,28
 880 903 880 903 711 981 c 0,29,30
 610 1028 610 1028 542 1028 c 0,31,32
 433 1028 433 1028 379 863 c 0,33,34
 340 746 340 746 340 608 c 0,35,36
 340 360 340 360 449 243 c 0,37,38
 546 138 546 138 795 77 c 1,21,22
617 1214 m 1,39,-1
 536 1214 l 1,40,-1
 717 1444 l 1,41,-1
 827 1444 l 1,42,-1
 841 1427 l 1,43,-1
 617 1214 l 1,39,-1
EndSplineSet
EndChar

StartChar: ograve
Encoding: 242 242 122
Width: 1205
Flags: W
LayerCount: 2
Fore
SplineSet
1225 576 m 0,0,1
 1225 143 1225 143 766 17 c 0,2,3
 637 -18 637 -18 590 -18 c 0,4,5
 566 -18 566 -18 514 -2 c 0,6,7
 326 55 326 55 223.5 196 c 128,-1,8
 121 337 121 337 121 534 c 0,9,10
 121 858 121 858 425 1029 c 0,11,12
 473 1056 473 1056 573 1099 c 0,13,14
 689 1148 689 1148 720 1148 c 0,15,16
 798 1148 798 1148 919 1086 c 0,17,18
 1032 1028 1032 1028 1090 966 c 0,19,20
 1225 820 1225 820 1225 576 c 0,0,1
795 77 m 1,21,22
 917 98 917 98 975 227 c 0,23,24
 1021 327 1021 327 1021 470 c 0,25,26
 1021 660 1021 660 952 778 c 0,27,28
 880 903 880 903 711 981 c 0,29,30
 610 1028 610 1028 542 1028 c 0,31,32
 433 1028 433 1028 379 863 c 0,33,34
 340 746 340 746 340 608 c 0,35,36
 340 360 340 360 449 243 c 0,37,38
 546 138 546 138 795 77 c 1,21,22
615 1444 m 1,39,-1
 798 1214 l 1,40,-1
 717 1214 l 1,41,-1
 493 1427 l 1,42,-1
 505 1444 l 1,43,-1
 615 1444 l 1,39,-1
EndSplineSet
EndChar

StartChar: ocircumflex
Encoding: 244 244 123
Width: 1205
Flags: W
LayerCount: 2
Fore
SplineSet
1225 576 m 0,0,1
 1225 143 1225 143 766 17 c 0,2,3
 637 -18 637 -18 590 -18 c 0,4,5
 566 -18 566 -18 514 -2 c 0,6,7
 326 55 326 55 223.5 196 c 128,-1,8
 121 337 121 337 121 534 c 0,9,10
 121 858 121 858 425 1029 c 0,11,12
 473 1056 473 1056 573 1099 c 0,13,14
 689 1148 689 1148 720 1148 c 0,15,16
 798 1148 798 1148 919 1086 c 0,17,18
 1032 1028 1032 1028 1090 966 c 0,19,20
 1225 820 1225 820 1225 576 c 0,0,1
795 77 m 1,21,22
 917 98 917 98 975 227 c 0,23,24
 1021 327 1021 327 1021 470 c 0,25,26
 1021 660 1021 660 952 778 c 0,27,28
 880 903 880 903 711 981 c 0,29,30
 610 1028 610 1028 542 1028 c 0,31,32
 433 1028 433 1028 379 863 c 0,33,34
 340 746 340 746 340 608 c 0,35,36
 340 360 340 360 449 243 c 0,37,38
 546 138 546 138 795 77 c 1,21,22
733 1444 m 1,39,-1
 918 1214 l 1,40,-1
 814 1214 l 1,41,-1
 696 1352 l 1,42,-1
 597 1214 l 1,43,-1
 468 1214 l 1,44,-1
 445 1243 l 1,45,-1
 623 1444 l 1,46,-1
 733 1444 l 1,39,-1
EndSplineSet
EndChar

StartChar: odieresis
Encoding: 246 246 124
Width: 1205
Flags: W
LayerCount: 2
Fore
SplineSet
1225 576 m 0,0,1
 1225 143 1225 143 766 17 c 0,2,3
 637 -18 637 -18 590 -18 c 0,4,5
 566 -18 566 -18 514 -2 c 0,6,7
 326 55 326 55 223.5 196 c 128,-1,8
 121 337 121 337 121 534 c 0,9,10
 121 858 121 858 425 1029 c 0,11,12
 473 1056 473 1056 573 1099 c 0,13,14
 689 1148 689 1148 720 1148 c 0,15,16
 798 1148 798 1148 919 1086 c 0,17,18
 1032 1028 1032 1028 1090 966 c 0,19,20
 1225 820 1225 820 1225 576 c 0,0,1
795 77 m 1,21,22
 917 98 917 98 975 227 c 0,23,24
 1021 327 1021 327 1021 470 c 0,25,26
 1021 660 1021 660 952 778 c 0,27,28
 880 903 880 903 711 981 c 0,29,30
 610 1028 610 1028 542 1028 c 0,31,32
 433 1028 433 1028 379 863 c 0,33,34
 340 746 340 746 340 608 c 0,35,36
 340 360 340 360 449 243 c 0,37,38
 546 138 546 138 795 77 c 1,21,22
640 1339 m 1,39,-1
 555 1212 l 1,40,-1
 466 1277 l 1,41,-1
 547 1402 l 1,42,-1
 640 1339 l 1,39,-1
907 1339 m 1,43,-1
 822 1212 l 1,44,-1
 731 1277 l 1,45,-1
 812 1402 l 1,46,-1
 907 1339 l 1,43,-1
EndSplineSet
EndChar

StartChar: otilde
Encoding: 245 245 125
Width: 1205
Flags: W
LayerCount: 2
Fore
SplineSet
1219 575 m 0,0,1
 1219 143 1219 143 758 17 c 0,2,3
 629 -18 629 -18 582 -18 c 0,4,5
 558 -18 558 -18 507 -2 c 0,6,7
 321 55 321 55 218 196.5 c 128,-1,8
 115 338 115 338 115 532 c 0,9,10
 115 857 115 857 420 1029 c 0,11,12
 467 1056 467 1056 568 1099 c 0,13,14
 683 1148 683 1148 714 1148 c 0,15,16
 792 1148 792 1148 913 1086 c 0,17,18
 1026 1028 1026 1028 1085 966 c 0,19,20
 1219 821 1219 821 1219 575 c 0,0,1
789 77 m 1,21,22
 911 98 911 98 970 227 c 0,23,24
 1015 328 1015 328 1015 470 c 0,25,26
 1015 660 1015 660 947 778 c 0,27,28
 874 904 874 904 706 981 c 0,29,30
 603 1028 603 1028 535 1028 c 0,31,32
 426 1028 426 1028 372 865 c 0,33,34
 334 750 334 750 334 610 c 0,35,36
 334 359 334 359 441 243 c 0,37,38
 537 138 537 138 789 77 c 1,21,22
512 1221 m 1,39,-1
 416 1210 l 1,40,41
 421 1377 421 1377 539 1377 c 0,42,43
 600 1377 600 1377 691 1333 c 128,-1,44
 782 1289 782 1289 789 1289 c 0,45,46
 828 1289 828 1289 827 1375 c 1,47,-1
 924 1387 l 1,48,49
 919 1219 919 1219 800 1219 c 0,50,51
 742 1219 742 1219 652 1263 c 128,-1,52
 562 1307 562 1307 551 1307 c 0,53,54
 511 1307 511 1307 512 1221 c 1,39,-1
EndSplineSet
EndChar

StartChar: uacute
Encoding: 250 250 126
Width: 1151
Flags: W
LayerCount: 2
Fore
SplineSet
698 87 m 1,0,1
 893 227 893 227 893 477 c 2,2,-1
 893 1100 l 1,3,-1
 1129 1123 l 1,4,-1
 1114 348 l 2,5,6
 1112 278 1112 278 1130 216 c 0,7,8
 1155 130 1155 130 1208 130 c 0,9,10
 1223 130 1223 130 1239 137 c 1,11,-1
 1239 100 l 1,12,-1
 1042 6 l 1,13,14
 948 93 948 93 903 194 c 1,15,16
 831 130 831 130 729 66 c 0,17,18
 601 -15 601 -15 539 -15 c 0,19,20
 362 -15 362 -15 252 92 c 128,-1,21
 142 199 142 199 142 374 c 0,22,23
 142 447 142 447 156 591 c 128,-1,24
 170 735 170 735 170 808 c 0,25,26
 170 1063 170 1063 112 1056 c 1,27,-1
 112 1089 l 1,28,-1
 404 1123 l 1,29,30
 394 949 394 949 384 774 c 0,31,32
 372 564 372 564 372 425 c 0,33,34
 372 278 372 278 461 189.5 c 128,-1,35
 550 101 550 101 698 87 c 1,0,1
702 1214 m 1,36,-1
 621 1214 l 1,37,-1
 802 1444 l 1,38,-1
 913 1444 l 1,39,-1
 926 1427 l 1,40,-1
 702 1214 l 1,36,-1
EndSplineSet
EndChar

StartChar: ugrave
Encoding: 249 249 127
Width: 1151
Flags: W
LayerCount: 2
Fore
SplineSet
698 87 m 1,0,1
 893 227 893 227 893 477 c 2,2,-1
 893 1100 l 1,3,-1
 1129 1123 l 1,4,-1
 1114 348 l 2,5,6
 1112 278 1112 278 1130 216 c 0,7,8
 1155 130 1155 130 1208 130 c 0,9,10
 1223 130 1223 130 1239 137 c 1,11,-1
 1239 100 l 1,12,-1
 1042 6 l 1,13,14
 948 93 948 93 903 194 c 1,15,16
 831 130 831 130 729 66 c 0,17,18
 601 -15 601 -15 539 -15 c 0,19,20
 362 -15 362 -15 252 92 c 128,-1,21
 142 199 142 199 142 374 c 0,22,23
 142 447 142 447 156 591 c 128,-1,24
 170 735 170 735 170 808 c 0,25,26
 170 1063 170 1063 112 1056 c 1,27,-1
 112 1089 l 1,28,-1
 404 1123 l 1,29,30
 394 949 394 949 384 774 c 0,31,32
 372 564 372 564 372 425 c 0,33,34
 372 278 372 278 461 189.5 c 128,-1,35
 550 101 550 101 698 87 c 1,0,1
518 1444 m 1,36,-1
 702 1214 l 1,37,-1
 621 1214 l 1,38,-1
 396 1427 l 1,39,-1
 410 1444 l 1,40,-1
 518 1444 l 1,36,-1
EndSplineSet
EndChar

StartChar: ucircumflex
Encoding: 251 251 128
Width: 1151
Flags: W
LayerCount: 2
Fore
SplineSet
692 87 m 1,0,1
 885 225 885 225 885 477 c 2,2,-1
 885 1100 l 1,3,-1
 1121 1123 l 1,4,-1
 1108 348 l 2,5,6
 1107 274 1107 274 1123 215 c 0,7,8
 1148 129 1148 129 1201 129 c 0,9,10
 1217 129 1217 129 1233 137 c 1,11,-1
 1233 100 l 1,12,-1
 1036 6 l 1,13,14
 945 88 945 88 895 194 c 1,15,16
 824 130 824 130 723 65 c 0,17,18
 596 -15 596 -15 534 -15 c 0,19,20
 352 -15 352 -15 244 93.5 c 128,-1,21
 136 202 136 202 136 381 c 0,22,23
 136 458 136 458 149 611.5 c 128,-1,24
 162 765 162 765 162 842 c 0,25,26
 162 1058 162 1058 104 1056 c 1,27,-1
 104 1089 l 1,28,-1
 398 1123 l 1,29,30
 388 949 388 949 378 774 c 0,31,32
 366 564 366 564 366 424 c 0,33,34
 366 278 366 278 457 188 c 0,35,36
 544 101 544 101 692 87 c 1,0,1
696 1444 m 1,37,-1
 884 1214 l 1,38,-1
 777 1214 l 1,39,-1
 659 1352 l 1,40,-1
 561 1214 l 1,41,-1
 433 1214 l 1,42,-1
 410 1243 l 1,43,-1
 588 1444 l 1,44,-1
 696 1444 l 1,37,-1
EndSplineSet
EndChar

StartChar: udieresis
Encoding: 252 252 129
Width: 1151
Flags: W
LayerCount: 2
Fore
SplineSet
692 87 m 1,0,1
 885 225 885 225 885 477 c 2,2,-1
 885 1100 l 1,3,-1
 1121 1123 l 1,4,-1
 1108 348 l 2,5,6
 1107 274 1107 274 1123 215 c 0,7,8
 1148 129 1148 129 1201 129 c 0,9,10
 1217 129 1217 129 1233 137 c 1,11,-1
 1233 100 l 1,12,-1
 1036 6 l 1,13,14
 945 88 945 88 895 194 c 1,15,16
 824 130 824 130 723 65 c 0,17,18
 596 -15 596 -15 534 -15 c 0,19,20
 352 -15 352 -15 244 93.5 c 128,-1,21
 136 202 136 202 136 381 c 0,22,23
 136 458 136 458 149 611.5 c 128,-1,24
 162 765 162 765 162 842 c 0,25,26
 162 1058 162 1058 104 1056 c 1,27,-1
 104 1089 l 1,28,-1
 398 1123 l 1,29,30
 388 949 388 949 378 774 c 0,31,32
 366 564 366 564 366 424 c 0,33,34
 366 278 366 278 457 188 c 0,35,36
 544 101 544 101 692 87 c 1,0,1
603 1339 m 1,37,-1
 518 1212 l 1,38,-1
 429 1277 l 1,39,-1
 510 1402 l 1,40,-1
 603 1339 l 1,37,-1
870 1339 m 1,41,-1
 785 1212 l 1,42,-1
 694 1277 l 1,43,-1
 777 1402 l 1,44,-1
 870 1339 l 1,41,-1
EndSplineSet
EndChar

StartChar: degree
Encoding: 176 176 130
Width: 517
Flags: W
LayerCount: 2
Fore
SplineSet
552 670 m 0,0,1
 552 583 552 583 476 520 c 0,2,3
 404 459 404 459 315 459 c 0,4,5
 234 459 234 459 176 500 c 0,6,7
 110 545 110 545 110 623 c 0,8,9
 110 672 110 672 144 712 c 0,10,11
 162 733 162 733 218 777 c 1,12,13
 137 819 137 819 137 898 c 0,14,15
 137 975 137 975 202 1033 c 128,-1,16
 267 1091 267 1091 346 1091 c 0,17,18
 398 1091 398 1091 453 1051 c 0,19,20
 513 1009 513 1009 513 958 c 0,21,22
 513 909 513 909 483 874 c 0,23,24
 470 858 470 858 414 814 c 1,25,26
 483 783 483 783 508 763 c 0,27,28
 552 727 552 727 552 670 c 0,0,1
263 1036 m 0,29,30
 234 1036 234 1036 215.5 1011 c 128,-1,31
 197 986 197 986 197 955 c 0,32,33
 197 916 197 916 276 875 c 1,34,35
 333 850 333 850 391 825 c 1,36,37
 439 868 439 868 439 911 c 0,38,39
 439 951 439 951 370 995 c 0,40,41
 306 1036 306 1036 263 1036 c 0,29,30
400 502 m 0,42,43
 432 502 432 502 457 545 c 0,44,45
 478 583 478 583 478 617 c 0,46,47
 478 668 478 668 384 712 c 0,48,49
 315 740 315 740 246 767 c 1,50,51
 188 731 188 731 188 675 c 0,52,53
 188 611 188 611 263 555 c 0,54,55
 334 502 334 502 400 502 c 0,42,43
EndSplineSet
EndChar

StartChar: cent
Encoding: 162 162 131
Width: 1054
Flags: W
LayerCount: 2
Fore
SplineSet
729 1143 m 1,0,1
 924 1100 924 1100 1065 979 c 1,2,-1
 922 869 l 1,3,4
 695 1042 695 1042 588 1044 c 1,5,6
 434 976 434 976 377 860 c 0,7,8
 330 763 330 763 330 576 c 0,9,10
 330 395 330 395 443 238 c 0,11,12
 563 73 563 73 737 42 c 1,13,14
 815 67 815 67 858 164 c 0,15,16
 874 200 874 200 909 337 c 1,17,-1
 1088 298 l 1,18,19
 1066 129 1066 129 930 56 c 0,20,21
 835 5 835 5 636 -12 c 1,22,-1
 636 -233 l 1,23,-1
 576 -233 l 1,24,-1
 576 -15 l 1,25,-1
 541 -16 l 2,26,27
 356 -18 356 -18 229 165 c 0,28,29
 115 329 115 329 115 523 c 0,30,31
 115 748 115 748 242 885 c 0,32,33
 344 994 344 994 576 1087 c 1,34,-1
 576 1319 l 1,35,-1
 636 1319 l 1,36,-1
 636 1108 l 1,37,38
 697 1128 697 1128 729 1143 c 1,0,1
EndSplineSet
EndChar

StartChar: sterling
Encoding: 163 163 132
Width: 922
Flags: W
LayerCount: 2
Fore
SplineSet
632 754 m 1,0,1
 763 817 763 817 763 925 c 0,2,3
 763 959 763 959 692 993 c 0,4,5
 629 1024 629 1024 590 1024 c 0,6,7
 496 1024 496 1024 408 917 c 0,8,9
 323 816 323 816 323 721 c 0,10,11
 323 681 323 681 366 617 c 0,12,13
 402 570 402 570 437 523 c 1,14,-1
 742 523 l 1,15,-1
 742 454 l 1,16,-1
 478 454 l 1,17,18
 488 412 488 412 488 385 c 0,19,20
 488 242 488 242 333 171 c 1,21,22
 484 73 484 73 542 73 c 0,23,24
 610 73 610 73 680 185 c 0,25,26
 733 269 733 269 760 360 c 1,27,-1
 928 262 l 1,28,29
 887 149 887 149 812 73 c 0,30,31
 723 -18 723 -18 617 -18 c 0,32,33
 567 -18 567 -18 470 10.5 c 128,-1,34
 373 39 373 39 322 39 c 0,35,36
 226 39 226 39 97 -15 c 1,37,-1
 186 252 l 1,38,39
 239 220 239 220 257 220 c 0,40,41
 298 220 298 220 338.5 259 c 128,-1,42
 379 298 379 298 379 339 c 0,43,44
 379 415 379 415 309 458 c 1,45,-1
 147 458 l 1,46,-1
 147 525 l 1,47,-1
 232 525 l 1,48,49
 118 670 118 670 118 793 c 0,50,51
 118 925 118 925 230 1024 c 0,52,53
 338 1121 338 1121 472 1121 c 0,54,55
 578 1121 578 1121 741 1024 c 0,56,57
 917 919 917 919 917 823 c 0,58,59
 917 745 917 745 837 639 c 1,60,-1
 632 754 l 1,0,1
EndSplineSet
EndChar

StartChar: bullet
Encoding: 8226 8226 133
Width: 473
Flags: W
LayerCount: 2
Fore
SplineSet
470 652 m 1,0,-1
 315 394 l 1,1,-1
 130 510 l 1,2,-1
 286 767 l 1,3,-1
 470 652 l 1,0,-1
EndSplineSet
EndChar

StartChar: paragraph
Encoding: 182 182 134
Width: 492
Flags: W
LayerCount: 2
Fore
SplineSet
334 1108 m 1,0,1
 495 1104 495 1104 495 1009 c 0,2,3
 495 994 495 994 493 983 c 1,4,-1
 385 960 l 1,5,6
 398 990 398 990 398 1006 c 0,7,8
 398 1028 398 1028 377.5 1051.5 c 128,-1,9
 357 1075 357 1075 334 1079 c 1,10,-1
 334 875 l 1,11,12
 401 848 401 848 467 821 c 1,13,14
 530 783 530 783 530 703 c 0,15,16
 530 610 530 610 475 555 c 0,17,18
 432 511 432 511 334 475 c 1,19,-1
 334 315 l 1,20,-1
 302 315 l 1,21,-1
 302 465 l 1,22,23
 229 470 229 470 124 548 c 1,24,-1
 182 625 l 1,25,26
 241 583 241 583 302 548 c 1,27,-1
 302 752 l 1,28,29
 241 777 241 777 179 802 c 1,30,31
 118 838 118 838 118 909 c 0,32,33
 118 1068 118 1068 302 1106 c 1,34,-1
 302 1252 l 1,35,-1
 334 1252 l 1,36,-1
 334 1108 l 1,0,1
302 889 m 1,37,-1
 302 1079 l 1,38,39
 210 1079 210 1079 210 965 c 0,40,41
 210 929 210 929 240 912 c 1,42,43
 271 900 271 900 302 889 c 1,37,-1
334 742 m 1,44,-1
 334 537 l 1,45,-1
 365 535 l 2,46,47
 458 530 458 530 458 631 c 0,48,49
 458 683 458 683 420 708 c 0,50,51
 413 712 413 712 334 742 c 1,44,-1
EndSplineSet
EndChar

StartChar: germandbls
Encoding: 223 223 135
Width: 1160
Flags: W
LayerCount: 2
Fore
SplineSet
363 1171 m 0,0,1
 363 1077 363 1077 385 907 c 0,2,3
 408 723 408 723 410 642 c 0,4,5
 413 555 413 555 413 444 c 0,6,7
 413 409 413 409 398 -264 c 1,8,-1
 176 -287 l 1,9,-1
 176 194 l 1,10,-1
 99 194 l 1,11,-1
 178 290 l 1,12,13
 154 973 154 973 154 988 c 0,14,15
 154 1125 154 1125 211 1203 c 0,16,17
 252 1261 252 1261 383 1348 c 0,18,19
 521 1441 521 1441 606 1441 c 0,20,21
 697 1441 697 1441 771.5 1374 c 128,-1,22
 846 1307 846 1307 846 1218 c 0,23,24
 846 1132 846 1132 787 1067 c 1,25,26
 731 1017 731 1017 675 968 c 1,27,28
 615 909 615 909 615 835 c 0,29,30
 615 739 615 739 702 700 c 2,31,-1
 932 596 l 2,32,33
 1044 545 1044 545 1085 513 c 0,34,35
 1158 453 1158 453 1158 364 c 0,36,37
 1158 192 1158 192 1035 86 c 0,38,39
 918 -15 918 -15 743 -15 c 0,40,41
 636 -15 636 -15 551 29 c 0,42,43
 480 66 480 66 457.5 99.5 c 128,-1,44
 435 133 435 133 433 209 c 2,45,-1
 433 247 l 1,46,-1
 433 275 l 1,47,-1
 663 294 l 1,48,49
 644 187 644 187 644 160 c 0,50,51
 644 108 644 108 685.5 67.5 c 128,-1,52
 727 27 727 27 779 27 c 0,53,54
 844 27 844 27 893 104 c 0,55,56
 938 174 938 174 938 242 c 0,57,58
 938 335 938 335 811 392 c 0,59,60
 692 445 692 445 574 498 c 1,61,62
 447 582 447 582 447 739 c 0,63,64
 447 851 447 851 506 933 c 1,65,66
 562 994 562 994 617 1055 c 0,67,68
 677 1126 677 1126 677 1210 c 0,69,70
 677 1264 677 1264 609 1304 c 0,71,72
 550 1339 550 1339 492 1339 c 0,73,74
 363 1339 363 1339 363 1171 c 0,0,1
EndSplineSet
EndChar

StartChar: acute
Encoding: 180 180 136
Width: 413
Flags: W
LayerCount: 2
Fore
SplineSet
188 1214 m 1,0,-1
 106 1214 l 1,1,-1
 290 1444 l 1,2,-1
 398 1444 l 1,3,-1
 412 1427 l 1,4,-1
 188 1214 l 1,0,-1
EndSplineSet
EndChar

StartChar: dieresis
Encoding: 168 168 137
Width: 560
Flags: W
LayerCount: 2
Fore
SplineSet
284 1339 m 1,0,-1
 199 1212 l 1,1,-1
 110 1277 l 1,2,-1
 191 1402 l 1,3,-1
 284 1339 l 1,0,-1
551 1339 m 1,4,-1
 466 1212 l 1,5,-1
 375 1277 l 1,6,-1
 456 1402 l 1,7,-1
 551 1339 l 1,4,-1
EndSplineSet
EndChar

StartChar: AE
Encoding: 198 198 138
Width: 1646
Flags: W
LayerCount: 2
Fore
SplineSet
1612 971 m 1,0,-1
 1467 846 l 1,1,2
 1247 1048 1247 1048 1116 1048 c 0,3,4
 1001 1048 1001 1048 931 899 c 0,5,6
 875 777 875 777 877 649 c 1,7,-1
 878 635 l 1,8,9
 1318 624 1318 624 1334 624 c 0,10,11
 1423 624 1423 624 1516 671 c 1,12,-1
 1533 637 l 1,13,14
 1358 517 1358 517 1107 517 c 0,15,16
 1074 517 1074 517 998.5 519 c 128,-1,17
 923 521 923 521 882 521 c 1,18,19
 896 376 896 376 952 292 c 0,20,21
 1005 211 1005 211 1133 135 c 0,22,23
 1231 76 1231 76 1303 76 c 0,24,25
 1401 76 1401 76 1449 170 c 0,26,27
 1455 182 1455 182 1508 348 c 1,28,-1
 1643 300 l 1,29,30
 1596 133 1596 133 1511 81 c 0,31,32
 1469 56 1469 56 1262 12 c 0,33,34
 1145 -14 1145 -14 1118 -14 c 0,35,36
 1039 -14 1039 -14 922 55 c 0,37,38
 812 120 812 120 760 188 c 1,39,40
 757 183 757 183 752 179 c 0,41,42
 745 174 745 174 744 183 c 1,43,44
 425 -13 425 -13 290 -13 c 0,45,46
 226 -13 226 -13 162 53 c 128,-1,47
 98 119 98 119 98 183 c 0,48,49
 98 402 98 402 595 610 c 1,50,51
 573 698 573 698 516 867 c 1,52,53
 495 916 495 916 461 939 c 0,54,55
 423 961 423 961 385 983 c 1,56,-1
 290 923 l 1,57,-1
 267 954 l 1,58,59
 361 1035 361 1035 386 1053 c 0,60,61
 465 1108 465 1108 525 1108 c 0,62,63
 674 1108 674 1108 750 871 c 1,64,65
 818 956 818 956 983 1046 c 0,66,67
 1154 1139 1154 1139 1256 1139 c 0,68,69
 1426 1139 1426 1139 1612 971 c 1,0,-1
624 519 m 1,70,71
 505 519 505 519 409 471 c 0,72,73
 290 410 290 410 290 302 c 0,74,75
 290 211 290 211 431 94 c 1,76,77
 524 94 524 94 604 148 c 0,78,79
 693 207 693 207 698 296 c 1,80,81
 674 371 674 371 624 519 c 1,70,71
EndSplineSet
EndChar

StartChar: Oslash
Encoding: 216 216 139
Width: 1205
Flags: W
LayerCount: 2
Fore
SplineSet
872 879 m 1,0,1
 807 935 807 935 717 978 c 0,2,3
 614 1028 614 1028 542 1028 c 0,4,5
 433 1028 433 1028 379 863 c 0,6,7
 340 746 340 746 340 607 c 0,8,9
 340 425 340 425 398 315 c 1,10,-1
 872 879 l 1,0,1
452 235 m 1,11,12
 544 138 544 138 795 77 c 1,13,14
 917 98 917 98 975 227 c 0,15,16
 1021 327 1021 327 1021 469 c 0,17,18
 1021 689 1021 689 932 810 c 1,19,-1
 452 235 l 1,11,12
1225 576 m 0,20,21
 1225 143 1225 143 766 17 c 0,22,23
 637 -18 637 -18 590 -18 c 0,24,25
 488 -18 488 -18 331 88 c 1,26,-1
 244 -17 l 1,27,-1
 143 -17 l 1,28,-1
 126 8 l 1,29,30
 183 55 183 55 259 152 c 1,31,32
 121 306 121 306 121 536 c 0,33,34
 121 857 121 857 425 1029 c 0,35,36
 473 1056 473 1056 573 1099 c 0,37,38
 689 1148 689 1148 720 1148 c 0,39,40
 840 1148 840 1148 1003 1037 c 1,41,-1
 1096 1146 l 1,42,-1
 1210 1146 l 1,43,-1
 1073 983 l 1,44,45
 1146 930 1146 930 1189 797 c 0,46,47
 1225 685 1225 685 1225 576 c 0,20,21
EndSplineSet
EndChar

StartChar: plusminus
Encoding: 177 177 140
Width: 525
Flags: W
LayerCount: 2
Fore
SplineSet
394 887 m 1,0,1
 467 919 467 919 467 980 c 0,2,3
 467 999 467 999 427 1018 c 0,4,5
 393 1034 393 1034 370 1034 c 0,6,7
 318 1034 318 1034 271.5 976.5 c 128,-1,8
 225 919 225 919 225 866 c 0,9,10
 225 843 225 843 288 760 c 1,11,-1
 456 760 l 1,12,-1
 456 721 l 1,13,-1
 309 721 l 1,14,15
 315 698 315 698 315 682 c 0,16,17
 315 611 315 611 230 565 c 1,18,19
 305 511 305 511 345 511 c 0,20,21
 415 511 415 511 464 667 c 1,22,-1
 557 615 l 1,23,24
 535 555 535 555 494 513 c 0,25,26
 444 463 444 463 387 463 c 0,27,28
 358 463 358 463 302 475.5 c 128,-1,29
 246 488 246 488 217 488 c 0,30,31
 160 488 160 488 101 464 c 1,32,-1
 149 610 l 1,33,34
 178 592 178 592 188 592 c 0,35,36
 212 592 212 592 233.5 613.5 c 128,-1,37
 255 635 255 635 255 658 c 0,38,39
 255 699 255 699 217 723 c 1,40,-1
 126 723 l 1,41,-1
 126 760 l 1,42,-1
 174 760 l 1,43,44
 113 838 113 838 113 894 c 0,45,46
 113 973 113 973 170 1030.5 c 128,-1,47
 227 1088 227 1088 307 1088 c 0,48,49
 366 1088 366 1088 454 1035 c 0,50,51
 551 978 551 978 551 925 c 0,52,53
 551 880 551 880 507 821 c 1,54,-1
 394 887 l 1,0,1
EndSplineSet
EndChar

StartChar: ordfeminine
Encoding: 170 170 141
Width: 564
Flags: W
LayerCount: 2
Fore
SplineSet
220 442 m 1,0,1
 384 561 384 561 437 691 c 1,2,3
 310 652 310 652 304 652 c 0,4,5
 241 652 241 652 183 725 c 0,6,7
 128 794 128 794 128 857 c 0,8,9
 128 952 128 952 201 1029.5 c 128,-1,10
 274 1107 274 1107 369 1107 c 0,11,12
 467 1107 467 1107 529 1034 c 0,13,14
 588 964 588 964 588 864 c 0,15,16
 588 727 588 727 473 602 c 0,17,18
 380 501 380 501 234 427 c 1,19,-1
 220 442 l 1,0,1
216 924 m 0,20,21
 216 858 216 858 266 786 c 0,22,23
 320 709 320 709 383 709 c 0,24,25
 417 709 417 709 450 725 c 1,26,27
 475 781 475 781 475 838 c 0,28,29
 475 913 475 913 433 986 c 0,30,31
 384 1069 384 1069 313 1069 c 0,32,33
 266 1069 266 1069 239 1018 c 0,34,35
 216 976 216 976 216 924 c 0,20,21
EndSplineSet
EndChar

StartChar: ordmasculine
Encoding: 186 186 142
Width: 672
Flags: W
LayerCount: 2
Fore
SplineSet
133 762 m 0,0,1
 133 918 133 918 261 1016 c 0,2,3
 350 1083 350 1083 409 1083 c 0,4,5
 524 1083 524 1083 608.5 993.5 c 128,-1,6
 693 904 693 904 693 789 c 0,7,8
 693 664 693 664 617 570 c 0,9,10
 535 468 535 468 413 468 c 0,11,12
 302 468 302 468 217.5 559 c 128,-1,13
 133 650 133 650 133 762 c 0,0,1
505 525 m 1,14,15
 583 591 583 591 583 716 c 0,16,17
 583 962 583 962 319 1021 c 1,18,19
 248 941 248 941 248 810 c 0,20,21
 248 693 248 693 317.5 617 c 128,-1,22
 387 541 387 541 505 525 c 1,14,15
EndSplineSet
EndChar

StartChar: ae
Encoding: 230 230 143
Width: 1646
Flags: W
LayerCount: 2
Fore
SplineSet
1612 971 m 1,0,-1
 1467 846 l 1,1,2
 1247 1048 1247 1048 1116 1048 c 0,3,4
 1001 1048 1001 1048 931 899 c 0,5,6
 875 777 875 777 877 649 c 1,7,-1
 878 635 l 1,8,9
 1318 624 1318 624 1334 624 c 0,10,11
 1423 624 1423 624 1516 671 c 1,12,-1
 1533 637 l 1,13,14
 1358 517 1358 517 1107 517 c 0,15,16
 1074 517 1074 517 998.5 519 c 128,-1,17
 923 521 923 521 882 521 c 1,18,19
 896 376 896 376 952 292 c 0,20,21
 1005 211 1005 211 1133 135 c 0,22,23
 1231 76 1231 76 1303 76 c 0,24,25
 1401 76 1401 76 1449 170 c 0,26,27
 1455 182 1455 182 1508 348 c 1,28,-1
 1643 300 l 1,29,30
 1596 133 1596 133 1511 81 c 0,31,32
 1469 56 1469 56 1262 12 c 0,33,34
 1145 -14 1145 -14 1118 -14 c 0,35,36
 1039 -14 1039 -14 922 55 c 0,37,38
 812 120 812 120 760 188 c 1,39,40
 757 183 757 183 752 179 c 0,41,42
 745 174 745 174 744 183 c 1,43,44
 425 -13 425 -13 290 -13 c 0,45,46
 226 -13 226 -13 162 53 c 128,-1,47
 98 119 98 119 98 183 c 0,48,49
 98 402 98 402 595 610 c 1,50,51
 573 698 573 698 516 867 c 1,52,53
 495 916 495 916 461 939 c 0,54,55
 423 961 423 961 385 983 c 1,56,-1
 290 923 l 1,57,-1
 267 954 l 1,58,59
 361 1035 361 1035 386 1053 c 0,60,61
 465 1108 465 1108 525 1108 c 0,62,63
 674 1108 674 1108 750 871 c 1,64,65
 818 956 818 956 983 1046 c 0,66,67
 1154 1139 1154 1139 1256 1139 c 0,68,69
 1426 1139 1426 1139 1612 971 c 1,0,-1
624 519 m 1,70,71
 505 519 505 519 409 471 c 0,72,73
 290 410 290 410 290 302 c 0,74,75
 290 211 290 211 431 94 c 1,76,77
 524 94 524 94 604 148 c 0,78,79
 693 207 693 207 698 296 c 1,80,81
 674 371 674 371 624 519 c 1,70,71
EndSplineSet
EndChar

StartChar: oslash
Encoding: 248 248 144
Width: 1205
Flags: W
LayerCount: 2
Fore
SplineSet
872 879 m 1,0,1
 807 935 807 935 717 978 c 0,2,3
 614 1028 614 1028 542 1028 c 0,4,5
 433 1028 433 1028 379 863 c 0,6,7
 340 746 340 746 340 607 c 0,8,9
 340 425 340 425 398 315 c 1,10,-1
 872 879 l 1,0,1
452 235 m 1,11,12
 544 138 544 138 795 77 c 1,13,14
 917 98 917 98 975 227 c 0,15,16
 1021 327 1021 327 1021 469 c 0,17,18
 1021 689 1021 689 932 810 c 1,19,-1
 452 235 l 1,11,12
1225 576 m 0,20,21
 1225 143 1225 143 766 17 c 0,22,23
 637 -18 637 -18 590 -18 c 0,24,25
 488 -18 488 -18 331 88 c 1,26,-1
 244 -17 l 1,27,-1
 143 -17 l 1,28,-1
 126 8 l 1,29,30
 183 55 183 55 259 152 c 1,31,32
 121 306 121 306 121 536 c 0,33,34
 121 857 121 857 425 1029 c 0,35,36
 473 1056 473 1056 573 1099 c 0,37,38
 689 1148 689 1148 720 1148 c 0,39,40
 840 1148 840 1148 1003 1037 c 1,41,-1
 1096 1146 l 1,42,-1
 1210 1146 l 1,43,-1
 1073 983 l 1,44,45
 1146 930 1146 930 1189 797 c 0,46,47
 1225 685 1225 685 1225 576 c 0,20,21
EndSplineSet
EndChar

StartChar: exclamdown
Encoding: 161 161 145
Width: 333
Flags: W
LayerCount: 2
Fore
SplineSet
362 514 m 1,0,-1
 362 490 l 1,1,-1
 195 465 l 1,2,-1
 188 1012 l 1,3,-1
 91 992 l 1,4,-1
 87 1014 l 1,5,6
 211 1047 211 1047 315 1094 c 1,7,8
 315 1034 315 1034 314 912.5 c 128,-1,9
 313 791 313 791 313 731 c 0,10,11
 313 562 313 562 315 542 c 0,12,13
 320 505 320 505 362 514 c 1,0,-1
EndSplineSet
EndChar

StartChar: florin
Encoding: 402 402 146
Width: 748
Flags: W
LayerCount: 2
Fore
SplineSet
733 1154 m 1,0,1
 533 1319 533 1319 460 1319 c 0,2,3
 394 1319 394 1319 394 1167 c 0,4,5
 394 1156 394 1156 414 702 c 1,6,7
 435 701 435 701 513 698 c 0,8,9
 575 695 575 695 613 695 c 0,10,11
 726 695 726 695 804 719 c 1,12,13
 754 597 754 597 572 597 c 0,14,15
 546 597 546 597 494 599.5 c 128,-1,16
 442 602 442 602 418 602 c 1,17,-1
 400 12 l 1,18,-1
 180 -15 l 1,19,-1
 191 617 l 1,20,-1
 112 619 l 1,21,-1
 191 706 l 1,22,23
 191 758 191 758 189 862 c 128,-1,24
 187 966 187 966 187 1018 c 0,25,26
 187 1132 187 1132 243 1205 c 0,27,28
 283 1257 283 1257 394 1331 c 0,29,30
 558 1439 558 1439 619 1439 c 0,31,32
 728 1439 728 1439 895 1294 c 1,33,-1
 733 1154 l 1,0,1
EndSplineSet
EndChar

StartChar: Agrave
Encoding: 192 192 148
Width: 1071
Flags: W
LayerCount: 2
Fore
SplineSet
889 -27 m 1,0,1
 820 56 820 56 744 183 c 1,2,3
 425 -13 425 -13 290 -13 c 0,4,5
 227 -13 227 -13 163 52 c 128,-1,6
 99 117 99 117 99 180 c 0,7,8
 99 402 99 402 595 610 c 1,9,10
 573 698 573 698 516 867 c 1,11,12
 495 916 495 916 461 939 c 0,13,14
 423 961 423 961 385 983 c 1,15,-1
 290 923 l 1,16,-1
 267 954 l 1,17,18
 360 1035 360 1035 386 1053 c 0,19,20
 465 1108 465 1108 525 1108 c 0,21,22
 669 1108 669 1108 758 842 c 2,23,-1
 918 364 l 2,24,25
 951 266 951 266 1069 96 c 1,26,-1
 889 -27 l 1,0,1
290 312 m 256,27,28
 290 211 290 211 431 94 c 1,29,30
 527 94 527 94 606 149 c 0,31,32
 694 209 694 209 698 300 c 1,33,-1
 624 519 l 1,34,35
 511 519 511 519 413 472 c 0,36,37
 290 413 290 413 290 312 c 256,27,28
373 1444 m 1,38,-1
 555 1214 l 1,39,-1
 474 1214 l 1,40,-1
 249 1427 l 1,41,-1
 263 1445 l 1,42,-1
 373 1444 l 1,38,-1
EndSplineSet
EndChar

StartChar: Atilde
Encoding: 195 195 149
Width: 1071
Flags: W
LayerCount: 2
Fore
SplineSet
889 -27 m 1,0,1
 820 56 820 56 744 183 c 1,2,3
 425 -13 425 -13 290 -13 c 0,4,5
 227 -13 227 -13 163 52 c 128,-1,6
 99 117 99 117 99 180 c 0,7,8
 99 402 99 402 595 610 c 1,9,10
 573 698 573 698 516 867 c 1,11,12
 495 916 495 916 461 939 c 0,13,14
 423 961 423 961 385 983 c 1,15,-1
 290 923 l 1,16,-1
 267 954 l 1,17,18
 360 1035 360 1035 386 1053 c 0,19,20
 465 1108 465 1108 525 1108 c 0,21,22
 669 1108 669 1108 758 842 c 2,23,-1
 918 364 l 2,24,25
 951 266 951 266 1069 96 c 1,26,-1
 889 -27 l 1,0,1
290 312 m 256,27,28
 290 211 290 211 431 94 c 1,29,30
 527 94 527 94 606 149 c 0,31,32
 694 209 694 209 698 300 c 1,33,-1
 624 519 l 1,34,35
 511 519 511 519 413 472 c 0,36,37
 290 413 290 413 290 312 c 256,27,28
360 1223 m 1,38,-1
 263 1212 l 1,39,40
 268 1379 268 1379 385 1379 c 0,41,42
 446 1379 446 1379 538 1335 c 128,-1,43
 630 1291 630 1291 636 1291 c 0,44,45
 676 1291 676 1291 675 1375 c 1,46,-1
 771 1387 l 1,47,48
 766 1221 766 1221 646 1221 c 0,49,50
 588 1221 588 1221 499 1265 c 128,-1,51
 410 1309 410 1309 398 1309 c 0,52,53
 359 1309 359 1309 360 1223 c 1,38,-1
EndSplineSet
EndChar

StartChar: Otilde
Encoding: 213 213 150
Width: 1205
Flags: W
LayerCount: 2
Fore
SplineSet
1219 575 m 0,0,1
 1219 143 1219 143 758 17 c 0,2,3
 629 -18 629 -18 582 -18 c 0,4,5
 558 -18 558 -18 507 -2 c 0,6,7
 321 55 321 55 218 196.5 c 128,-1,8
 115 338 115 338 115 532 c 0,9,10
 115 857 115 857 420 1029 c 0,11,12
 467 1056 467 1056 568 1099 c 0,13,14
 683 1148 683 1148 714 1148 c 0,15,16
 792 1148 792 1148 913 1086 c 0,17,18
 1026 1028 1026 1028 1085 966 c 0,19,20
 1219 821 1219 821 1219 575 c 0,0,1
789 77 m 1,21,22
 911 98 911 98 970 227 c 0,23,24
 1015 328 1015 328 1015 470 c 0,25,26
 1015 660 1015 660 947 778 c 0,27,28
 874 904 874 904 706 981 c 0,29,30
 603 1028 603 1028 535 1028 c 0,31,32
 426 1028 426 1028 372 865 c 0,33,34
 334 750 334 750 334 610 c 0,35,36
 334 359 334 359 441 243 c 0,37,38
 537 138 537 138 789 77 c 1,21,22
512 1221 m 1,39,-1
 416 1210 l 1,40,41
 421 1377 421 1377 539 1377 c 0,42,43
 600 1377 600 1377 691 1333 c 128,-1,44
 782 1289 782 1289 789 1289 c 0,45,46
 828 1289 828 1289 827 1375 c 1,47,-1
 924 1387 l 1,48,49
 919 1219 919 1219 800 1219 c 0,50,51
 742 1219 742 1219 652 1263 c 128,-1,52
 562 1307 562 1307 551 1307 c 0,53,54
 511 1307 511 1307 512 1221 c 1,39,-1
EndSplineSet
EndChar

StartChar: OE
Encoding: 338 338 151
Width: 2014
Flags: W
LayerCount: 2
Fore
SplineSet
542 1028 m 0,0,1
 433 1028 433 1028 379 863 c 0,2,3
 340 746 340 746 340 607 c 0,4,5
 340 360 340 360 449 242 c 0,6,7
 546 138 546 138 795 77 c 1,8,9
 910 98 910 98 971 218 c 0,10,11
 1021 316 1021 316 1021 446 c 0,12,13
 1021 648 1021 648 957 768 c 0,14,15
 886 901 886 901 711 981 c 0,16,17
 609 1028 609 1028 542 1028 c 0,0,1
1978 971 m 1,18,-1
 1833 846 l 1,19,20
 1612 1048 1612 1048 1481 1048 c 0,21,22
 1366 1048 1366 1048 1297 899 c 0,23,24
 1241 777 1241 777 1243 649 c 2,25,-1
 1243 635 l 1,26,27
 1683 624 1683 624 1700 624 c 0,28,29
 1788 624 1788 624 1881 671 c 1,30,-1
 1899 637 l 1,31,32
 1723 517 1723 517 1473 517 c 0,33,34
 1439 517 1439 517 1363.5 519 c 128,-1,35
 1288 521 1288 521 1247 521 c 1,36,37
 1261 376 1261 376 1316 293.5 c 128,-1,38
 1371 211 1371 211 1498 135 c 0,39,40
 1597 76 1597 76 1669 76 c 0,41,42
 1766 76 1766 76 1814 170 c 0,43,44
 1821 182 1821 182 1873 348 c 1,45,-1
 2011 300 l 1,46,47
 1961 131 1961 131 1878 81 c 0,48,49
 1836 56 1836 56 1628 11 c 0,50,51
 1509 -14 1509 -14 1483 -14 c 0,52,53
 1398 -14 1398 -14 1274.5 62.5 c 128,-1,54
 1151 139 1151 139 1108 215 c 1,55,56
 1030 122 1030 122 871 51 c 0,57,58
 716 -18 716 -18 590 -18 c 0,59,60
 566 -18 566 -18 514 -2 c 0,61,62
 327 55 327 55 224 196.5 c 128,-1,63
 121 338 121 338 121 534 c 0,64,65
 121 858 121 858 425 1029 c 0,66,67
 473 1056 473 1056 573 1099 c 0,68,69
 689 1148 689 1148 720 1148 c 0,70,71
 821 1148 821 1148 954 1068 c 0,72,73
 1081 991 1081 991 1141 902 c 1,74,75
 1212 975 1212 975 1366 1055 c 0,76,77
 1530 1139 1530 1139 1621 1139 c 0,78,79
 1796 1139 1796 1139 1978 971 c 1,18,-1
EndSplineSet
EndChar

StartChar: oe
Encoding: 339 339 152
Width: 2014
Flags: W
LayerCount: 2
Fore
SplineSet
542 1028 m 0,0,1
 433 1028 433 1028 379 863 c 0,2,3
 340 746 340 746 340 607 c 0,4,5
 340 360 340 360 449 242 c 0,6,7
 546 138 546 138 795 77 c 1,8,9
 910 98 910 98 971 218 c 0,10,11
 1021 316 1021 316 1021 446 c 0,12,13
 1021 648 1021 648 957 768 c 0,14,15
 886 901 886 901 711 981 c 0,16,17
 609 1028 609 1028 542 1028 c 0,0,1
1978 971 m 1,18,-1
 1833 846 l 1,19,20
 1612 1048 1612 1048 1481 1048 c 0,21,22
 1366 1048 1366 1048 1297 899 c 0,23,24
 1241 777 1241 777 1243 649 c 2,25,-1
 1243 635 l 1,26,27
 1683 624 1683 624 1700 624 c 0,28,29
 1788 624 1788 624 1881 671 c 1,30,-1
 1899 637 l 1,31,32
 1723 517 1723 517 1473 517 c 0,33,34
 1439 517 1439 517 1363.5 519 c 128,-1,35
 1288 521 1288 521 1247 521 c 1,36,37
 1261 376 1261 376 1316 293.5 c 128,-1,38
 1371 211 1371 211 1498 135 c 0,39,40
 1597 76 1597 76 1669 76 c 0,41,42
 1766 76 1766 76 1814 170 c 0,43,44
 1821 182 1821 182 1873 348 c 1,45,-1
 2011 300 l 1,46,47
 1961 131 1961 131 1878 81 c 0,48,49
 1836 56 1836 56 1628 11 c 0,50,51
 1509 -14 1509 -14 1483 -14 c 0,52,53
 1398 -14 1398 -14 1274.5 62.5 c 128,-1,54
 1151 139 1151 139 1108 215 c 1,55,56
 1030 122 1030 122 871 51 c 0,57,58
 716 -18 716 -18 590 -18 c 0,59,60
 566 -18 566 -18 514 -2 c 0,61,62
 327 55 327 55 224 196.5 c 128,-1,63
 121 338 121 338 121 534 c 0,64,65
 121 858 121 858 425 1029 c 0,66,67
 473 1056 473 1056 573 1099 c 0,68,69
 689 1148 689 1148 720 1148 c 0,70,71
 821 1148 821 1148 954 1068 c 0,72,73
 1081 991 1081 991 1141 902 c 1,74,75
 1212 975 1212 975 1366 1055 c 0,76,77
 1530 1139 1530 1139 1621 1139 c 0,78,79
 1796 1139 1796 1139 1978 971 c 1,18,-1
EndSplineSet
EndChar

StartChar: endash
Encoding: 8211 8211 153
Width: 1207
Flags: W
LayerCount: 2
Fore
SplineSet
1204 775 m 1,0,1
 1094 575 1094 575 1018 577 c 2,2,-1
 959 579 l 2,3,4
 890 581 890 581 267 581 c 0,5,6
 200 581 200 581 166 544 c 1,7,-1
 141 554 l 1,8,9
 186 613 186 613 230 672 c 1,10,11
 290 737 290 737 356 737 c 2,12,-1
 1062 736 l 2,13,14
 1142 736 1142 736 1174 775 c 1,15,-1
 1204 775 l 1,0,1
EndSplineSet
EndChar

StartChar: emdash
Encoding: 8212 8212 154
Width: 1722
Flags: W
LayerCount: 2
Fore
SplineSet
1705 775 m 1,0,1
 1601 575 1601 575 1522 577 c 2,2,-1
 1462 579 l 2,3,4
 1282 584 1282 584 1059 585 c 0,5,6
 918 585 918 585 657 583 c 0,7,8
 379 581 379 581 255 581 c 0,9,10
 187 581 187 581 153 544 c 1,11,-1
 128 554 l 1,12,13
 172 613 172 613 217 672 c 1,14,15
 277 737 277 737 342 737 c 2,16,-1
 1565 736 l 2,17,18
 1645 736 1645 736 1676 775 c 1,19,-1
 1705 775 l 1,0,1
EndSplineSet
EndChar

StartChar: quotedblleft
Encoding: 8220 8220 155
Width: 571
Flags: W
LayerCount: 2
Fore
SplineSet
334 1091 m 1,0,-1
 526 1368 l 1,1,-1
 568 1368 l 1,2,3
 510 1276 510 1276 510 1240 c 0,4,5
 510 1212 510 1212 568 1168 c 1,6,-1
 458 1002 l 1,7,-1
 334 1091 l 1,0,-1
118 1091 m 1,8,-1
 309 1368 l 1,9,-1
 352 1368 l 1,10,11
 294 1272 294 1272 294 1241 c 0,12,13
 294 1211 294 1211 352 1168 c 1,14,-1
 244 1002 l 1,15,-1
 118 1091 l 1,8,-1
EndSplineSet
EndChar

StartChar: quotedblright
Encoding: 8221 8221 156
Width: 571
Flags: W
LayerCount: 2
Fore
SplineSet
360 1281 m 1,0,-1
 168 1004 l 1,1,-1
 124 1004 l 1,2,3
 183 1096 183 1096 183 1131 c 0,4,5
 183 1164 183 1164 124 1204 c 1,6,-1
 234 1369 l 1,7,-1
 360 1281 l 1,0,-1
576 1281 m 1,8,-1
 385 1004 l 1,9,-1
 340 1004 l 1,10,11
 400 1096 400 1096 400 1131 c 0,12,13
 400 1164 400 1164 340 1204 c 1,14,-1
 450 1369 l 1,15,-1
 576 1281 l 1,8,-1
EndSplineSet
EndChar

StartChar: quoteleft
Encoding: 8216 8216 157
Width: 372
Flags: W
LayerCount: 2
Fore
SplineSet
137 1091 m 1,0,-1
 329 1368 l 1,1,-1
 373 1368 l 1,2,3
 314 1276 314 1276 314 1240 c 0,4,5
 314 1212 314 1212 373 1168 c 1,6,-1
 263 1002 l 1,7,-1
 137 1091 l 1,0,-1
EndSplineSet
EndChar

StartChar: quoteright
Encoding: 8217 8217 158
Width: 372
Flags: W
LayerCount: 2
Fore
SplineSet
373 1281 m 1,0,-1
 182 1004 l 1,1,-1
 137 1004 l 1,2,3
 197 1096 197 1096 197 1131 c 0,4,5
 197 1164 197 1164 137 1204 c 1,6,-1
 247 1369 l 1,7,-1
 373 1281 l 1,0,-1
EndSplineSet
EndChar

StartChar: ydieresis
Encoding: 255 255 159
Width: 1139
Flags: W
LayerCount: 2
Fore
SplineSet
280 -231 m 1,0,-1
 468 -160 l 1,1,2
 468 -273 468 -273 529 -273 c 0,3,4
 597 -273 597 -273 688 17 c 1,5,-1
 566 6 l 1,6,7
 573 55 573 55 573 73 c 0,8,9
 573 112 573 112 408 448 c 0,10,11
 310 646 310 646 211 844 c 0,12,13
 153 963 153 963 77 996 c 1,14,-1
 77 1014 l 1,15,-1
 325 1123 l 1,16,-1
 766 200 l 1,17,18
 836 401 836 401 907 602 c 1,19,20
 977 829 977 829 977 1017 c 0,21,22
 977 1054 977 1054 974 1091 c 1,23,24
 1027 1085 1027 1085 1129 1091 c 1,25,26
 1128 1048 1128 1048 1116 1014 c 2,27,-1
 818 160 l 2,28,29
 782 52 782 52 746 -56 c 1,30,31
 694 -194 694 -194 633 -267 c 0,32,33
 553 -362 553 -362 445 -362 c 0,34,35
 387 -362 387 -362 336 -326 c 0,36,37
 281 -286 281 -286 280 -231 c 1,0,-1
617 1344 m 1,38,-1
 532 1219 l 1,39,-1
 443 1283 l 1,40,-1
 524 1410 l 1,41,-1
 617 1344 l 1,38,-1
884 1344 m 1,42,-1
 798 1219 l 1,43,-1
 708 1283 l 1,44,-1
 789 1410 l 1,45,-1
 884 1344 l 1,42,-1
EndSplineSet
EndChar

StartChar: Ydieresis
Encoding: 376 376 160
Width: 1139
Flags: W
LayerCount: 2
Fore
SplineSet
280 -231 m 1,0,-1
 468 -160 l 1,1,2
 468 -273 468 -273 529 -273 c 0,3,4
 597 -273 597 -273 688 17 c 1,5,-1
 566 6 l 1,6,7
 573 55 573 55 573 73 c 0,8,9
 573 112 573 112 408 448 c 0,10,11
 310 646 310 646 211 844 c 0,12,13
 153 963 153 963 77 996 c 1,14,-1
 77 1014 l 1,15,-1
 325 1123 l 1,16,-1
 766 200 l 1,17,18
 836 401 836 401 907 602 c 1,19,20
 977 829 977 829 977 1017 c 0,21,22
 977 1054 977 1054 974 1091 c 1,23,24
 1027 1085 1027 1085 1129 1091 c 1,25,26
 1128 1048 1128 1048 1116 1014 c 2,27,-1
 818 160 l 2,28,29
 782 52 782 52 746 -56 c 1,30,31
 694 -194 694 -194 633 -267 c 0,32,33
 553 -362 553 -362 445 -362 c 0,34,35
 387 -362 387 -362 336 -326 c 0,36,37
 281 -286 281 -286 280 -231 c 1,0,-1
704 1214 m 1,38,-1
 623 1214 l 1,39,-1
 804 1444 l 1,40,-1
 914 1444 l 1,41,-1
 928 1427 l 1,42,-1
 704 1214 l 1,38,-1
EndSplineSet
EndChar

StartChar: currency
Encoding: 164 164 161
Width: 529
Flags: W
LayerCount: 2
Fore
SplineSet
557 612 m 1,0,-1
 572 602 l 1,1,2
 548 550 548 550 523 498 c 1,3,4
 500 471 500 471 418 471 c 2,5,-1
 112 471 l 1,6,-1
 112 481 l 1,7,8
 200 562 200 562 287 643 c 1,9,10
 417 776 417 776 417 851 c 0,11,12
 417 927 417 927 371.5 973.5 c 128,-1,13
 326 1020 326 1020 250 1020 c 0,14,15
 226 1020 226 1020 195 1004 c 1,16,17
 184 984 184 984 184 957 c 0,18,19
 184 882 184 882 223 882 c 0,20,21
 227 882 227 882 232 883 c 1,22,-1
 242 866 l 1,23,-1
 135 812 l 1,24,25
 99 869 99 869 99 890 c 0,26,27
 99 953 99 953 186 1020 c 0,28,29
 268 1084 268 1084 333 1084 c 0,30,31
 410 1084 410 1084 472 1020.5 c 128,-1,32
 534 957 534 957 534 881 c 0,33,34
 534 791 534 791 430 700 c 1,35,36
 343 636 343 636 255 571 c 1,37,38
 276 571 276 571 319.5 569 c 128,-1,39
 363 567 363 567 385 567 c 0,40,41
 505 567 505 567 557 612 c 1,0,-1
EndSplineSet
EndChar

StartChar: guilsinglleft
Encoding: 8249 8249 162
Width: 529
Flags: W
LayerCount: 2
Fore
SplineSet
559 666 m 0,0,1
 559 573 559 573 466 513 c 0,2,3
 383 459 383 459 284 459 c 0,4,5
 232 459 232 459 183 494 c 0,6,7
 136 526 136 526 112 575 c 1,8,-1
 220 606 l 1,9,10
 290 490 290 490 346 490 c 0,11,12
 396 490 396 490 426 552 c 0,13,14
 449 601 449 601 449 658 c 0,15,16
 449 700 449 700 412.5 739 c 128,-1,17
 376 778 376 778 334 778 c 0,18,19
 316 778 316 778 271 769 c 1,20,-1
 267 792 l 1,21,22
 346 813 346 813 370 829 c 0,23,24
 418 858 418 858 418 920 c 0,25,26
 418 965 418 965 377 1002 c 128,-1,27
 336 1039 336 1039 290 1039 c 0,28,29
 243 1039 243 1039 243 990 c 0,30,31
 243 971 243 971 263 935 c 1,32,-1
 164 904 l 1,33,34
 160 924 160 924 160 936 c 0,35,36
 160 1000 160 1000 232 1046 c 0,37,38
 296 1088 296 1088 364 1088 c 0,39,40
 430 1088 430 1088 475 1049 c 128,-1,41
 520 1010 520 1010 520 945 c 0,42,43
 520 903 520 903 489 871 c 0,44,45
 477 858 477 858 423 819 c 1,46,47
 559 778 559 778 559 666 c 0,0,1
EndSplineSet
EndChar

StartChar: guilsinglright
Encoding: 8250 8250 163
Width: 529
Flags: W
LayerCount: 2
Fore
SplineSet
510 679 m 1,0,1
 553 679 553 679 576 683 c 1,2,-1
 510 631 l 1,3,-1
 510 489 l 1,4,-1
 391 465 l 1,5,-1
 387 631 l 1,6,-1
 108 631 l 1,7,-1
 101 656 l 1,8,-1
 398 1075 l 1,9,-1
 508 1093 l 1,10,-1
 510 679 l 1,0,1
387 681 m 1,11,-1
 383 956 l 1,12,-1
 178 681 l 1,13,-1
 387 681 l 1,11,-1
EndSplineSet
EndChar

StartChar: daggerdbl
Encoding: 8225 8225 164
Width: 529
Flags: W
LayerCount: 2
Fore
SplineSet
160 1087 m 1,0,1
 167 1077 167 1077 257 1075 c 0,2,3
 321 1073 321 1073 431 1075 c 0,4,5
 565 1077 565 1077 551 1077 c 1,6,7
 459 930 459 930 366 783 c 1,8,9
 262 607 262 607 218 471 c 1,10,-1
 133 471 l 1,11,12
 150 530 150 530 178 571 c 2,13,-1
 449 977 l 1,14,15
 423 977 423 977 370.5 979.5 c 128,-1,16
 318 982 318 982 291 982 c 0,17,18
 184 982 184 982 126 950 c 1,19,-1
 118 952 l 1,20,-1
 149 1087 l 1,21,-1
 160 1087 l 1,0,1
EndSplineSet
EndChar

StartChar: periodcentered
Encoding: 183 183 165
AltUni2: 002219.ffffffff.0
Width: 566
Flags: W
LayerCount: 2
Fore
SplineSet
429 6 m 1,0,-1
 356 -98 l 1,1,-1
 401 -96 l 2,2,3
 480 -93 480 -93 536 -137 c 0,4,5
 595 -184 595 -184 595 -264 c 256,6,7
 595 -344 595 -344 515 -402 c 0,8,9
 441 -456 441 -456 357 -456 c 0,10,11
 108 -456 108 -456 108 -308 c 1,12,-1
 222 -273 l 1,13,-1
 222 -287 l 2,14,15
 222 -355 222 -355 300 -392 c 1,16,17
 410 -392 410 -392 410 -266 c 0,18,19
 410 -168 410 -168 312 -168 c 0,20,21
 278 -168 278 -168 234 -192 c 1,22,-1
 211 -162 l 1,23,-1
 346 6 l 1,24,-1
 429 6 l 1,0,-1
EndSplineSet
EndChar

StartChar: quotesinglbase
Encoding: 8218 8218 166
Width: 372
Flags: W
LayerCount: 2
Fore
SplineSet
312 77 m 1,0,-1
 120 -200 l 1,1,-1
 76 -200 l 1,2,3
 135 -108 135 -108 135 -73 c 0,4,5
 135 -40 135 -40 76 0 c 1,6,-1
 186 165 l 1,7,-1
 312 77 l 1,0,-1
EndSplineSet
EndChar

StartChar: quotedblbase
Encoding: 8222 8222 167
Width: 571
Flags: W
LayerCount: 2
Fore
SplineSet
312 87 m 1,0,-1
 121 -190 l 1,1,-1
 77 -190 l 1,2,3
 136 -98 136 -98 136 -63 c 0,4,5
 136 -30 136 -30 77 10 c 1,6,-1
 187 176 l 1,7,-1
 312 87 l 1,0,-1
529 87 m 1,8,-1
 338 -190 l 1,9,-1
 293 -190 l 1,10,11
 352 -98 352 -98 352 -63 c 0,12,13
 352 -30 352 -30 293 10 c 1,14,-1
 403 175 l 1,15,-1
 529 87 l 1,8,-1
EndSplineSet
EndChar

StartChar: Acircumflex
Encoding: 194 194 168
Width: 1071
Flags: W
LayerCount: 2
Fore
SplineSet
889 -27 m 1,0,1
 820 56 820 56 744 183 c 1,2,3
 425 -13 425 -13 290 -13 c 0,4,5
 227 -13 227 -13 163 52 c 128,-1,6
 99 117 99 117 99 180 c 0,7,8
 99 402 99 402 595 610 c 1,9,10
 573 698 573 698 516 867 c 1,11,12
 495 916 495 916 461 939 c 0,13,14
 423 961 423 961 385 983 c 1,15,-1
 290 923 l 1,16,-1
 267 954 l 1,17,18
 360 1035 360 1035 386 1053 c 0,19,20
 465 1108 465 1108 525 1108 c 0,21,22
 669 1108 669 1108 758 842 c 2,23,-1
 918 364 l 2,24,25
 951 266 951 266 1069 96 c 1,26,-1
 889 -27 l 1,0,1
290 312 m 256,27,28
 290 211 290 211 431 94 c 1,29,30
 527 94 527 94 606 149 c 0,31,32
 694 209 694 209 698 300 c 1,33,-1
 624 519 l 1,34,35
 511 519 511 519 413 472 c 0,36,37
 290 413 290 413 290 312 c 256,27,28
574 1444 m 1,38,-1
 760 1214 l 1,39,-1
 655 1214 l 1,40,-1
 537 1352 l 1,41,-1
 437 1214 l 1,42,-1
 309 1214 l 1,43,-1
 286 1243 l 1,44,-1
 464 1444 l 1,45,-1
 574 1444 l 1,38,-1
EndSplineSet
EndChar

StartChar: Ecircumflex
Encoding: 202 202 169
Width: 1094
Flags: W
LayerCount: 2
Fore
SplineSet
936 846 m 1,0,1
 715 1048 715 1048 584 1048 c 0,2,3
 470 1048 470 1048 400 898 c 0,4,5
 344 776 344 776 346 648 c 2,6,-1
 346 635 l 1,7,8
 786 624 786 624 803 624 c 0,9,10
 891 624 891 624 984 671 c 1,11,-1
 1001 637 l 1,12,13
 826 517 826 517 576 517 c 0,14,15
 542 517 542 517 466.5 519 c 128,-1,16
 391 521 391 521 350 521 c 1,17,18
 364 377 364 377 418.5 293.5 c 128,-1,19
 473 210 473 210 599 135 c 0,20,21
 698 76 698 76 771 76 c 0,22,23
 869 76 869 76 917 170 c 0,24,25
 923 181 923 181 976 348 c 1,26,-1
 1112 300 l 1,27,28
 1064 131 1064 131 979 81 c 0,29,30
 938 56 938 56 729 12 c 0,31,32
 611 -14 611 -14 586 -14 c 0,33,34
 560 -14 560 -14 503 6 c 0,35,36
 119 135 119 135 119 554 c 0,37,38
 119 866 119 866 414 1025 c 0,39,40
 625 1139 625 1139 722 1139 c 0,41,42
 895 1139 895 1139 1081 971 c 1,43,-1
 936 846 l 1,0,1
710 1443 m 1,44,-1
 895 1212 l 1,45,-1
 791 1212 l 1,46,-1
 673 1350 l 1,47,-1
 574 1212 l 1,48,-1
 445 1212 l 1,49,-1
 421 1241 l 1,50,-1
 599 1443 l 1,51,-1
 710 1443 l 1,44,-1
EndSplineSet
EndChar

StartChar: Aacute
Encoding: 193 193 170
Width: 1071
Flags: W
LayerCount: 2
Fore
SplineSet
889 -27 m 1,0,1
 820 56 820 56 744 183 c 1,2,3
 425 -13 425 -13 290 -13 c 0,4,5
 227 -13 227 -13 163 52 c 128,-1,6
 99 117 99 117 99 180 c 0,7,8
 99 402 99 402 595 610 c 1,9,10
 573 698 573 698 516 867 c 1,11,12
 495 916 495 916 461 939 c 0,13,14
 423 961 423 961 385 983 c 1,15,-1
 290 923 l 1,16,-1
 267 954 l 1,17,18
 360 1035 360 1035 386 1053 c 0,19,20
 465 1108 465 1108 525 1108 c 0,21,22
 669 1108 669 1108 758 842 c 2,23,-1
 918 364 l 2,24,25
 951 266 951 266 1069 96 c 1,26,-1
 889 -27 l 1,0,1
290 312 m 256,27,28
 290 211 290 211 431 94 c 1,29,30
 527 94 527 94 606 149 c 0,31,32
 694 209 694 209 698 300 c 1,33,-1
 624 519 l 1,34,35
 511 519 511 519 413 472 c 0,36,37
 290 413 290 413 290 312 c 256,27,28
524 1214 m 1,38,-1
 443 1214 l 1,39,-1
 624 1444 l 1,40,-1
 735 1444 l 1,41,-1
 748 1427 l 1,42,-1
 524 1214 l 1,38,-1
EndSplineSet
EndChar

StartChar: Edieresis
Encoding: 203 203 171
Width: 1094
Flags: W
LayerCount: 2
Fore
SplineSet
943 846 m 1,0,1
 723 1048 723 1048 590 1048 c 0,2,3
 472 1048 472 1048 404 893 c 0,4,5
 350 769 350 769 352 635 c 1,6,7
 793 624 793 624 810 624 c 0,8,9
 897 624 897 624 990 671 c 1,10,-1
 1007 637 l 1,11,12
 832 517 832 517 581 517 c 0,13,14
 547 517 547 517 472 519 c 128,-1,15
 397 521 397 521 356 521 c 1,16,17
 370 377 370 377 425 293.5 c 128,-1,18
 480 210 480 210 607 135 c 0,19,20
 706 76 706 76 778 76 c 0,21,22
 876 76 876 76 923 170 c 0,23,24
 928 178 928 178 982 348 c 1,25,-1
 1119 300 l 1,26,27
 1069 131 1069 131 986 81 c 0,28,29
 946 56 946 56 737 12 c 0,30,31
 617 -14 617 -14 592 -14 c 0,32,33
 566 -14 566 -14 508 6 c 0,34,35
 125 137 125 137 125 556 c 0,36,37
 125 865 125 865 421 1025 c 0,38,39
 631 1139 631 1139 728 1139 c 0,40,41
 905 1139 905 1139 1087 971 c 1,42,-1
 943 846 l 1,0,1
623 1339 m 1,43,-1
 539 1212 l 1,44,-1
 449 1277 l 1,45,-1
 530 1402 l 1,46,-1
 623 1339 l 1,43,-1
889 1339 m 1,47,-1
 804 1212 l 1,48,-1
 715 1277 l 1,49,-1
 797 1402 l 1,50,-1
 889 1339 l 1,47,-1
EndSplineSet
EndChar

StartChar: Egrave
Encoding: 200 200 172
Width: 1094
Flags: W
LayerCount: 2
Fore
SplineSet
943 846 m 1,0,1
 723 1048 723 1048 590 1048 c 0,2,3
 472 1048 472 1048 404 893 c 0,4,5
 350 769 350 769 352 635 c 1,6,7
 793 624 793 624 810 624 c 0,8,9
 897 624 897 624 990 671 c 1,10,-1
 1007 637 l 1,11,12
 832 517 832 517 581 517 c 0,13,14
 547 517 547 517 472 519 c 128,-1,15
 397 521 397 521 356 521 c 1,16,17
 370 377 370 377 425 293.5 c 128,-1,18
 480 210 480 210 607 135 c 0,19,20
 706 76 706 76 778 76 c 0,21,22
 876 76 876 76 923 170 c 0,23,24
 928 178 928 178 982 348 c 1,25,-1
 1119 300 l 1,26,27
 1069 131 1069 131 986 81 c 0,28,29
 946 56 946 56 737 12 c 0,30,31
 617 -14 617 -14 592 -14 c 0,32,33
 566 -14 566 -14 508 6 c 0,34,35
 125 137 125 137 125 556 c 0,36,37
 125 865 125 865 421 1025 c 0,38,39
 631 1139 631 1139 728 1139 c 0,40,41
 905 1139 905 1139 1087 971 c 1,42,-1
 943 846 l 1,0,1
599 1444 m 1,43,-1
 781 1214 l 1,44,-1
 700 1214 l 1,45,-1
 476 1427 l 1,46,-1
 489 1444 l 1,47,-1
 599 1444 l 1,43,-1
EndSplineSet
EndChar

StartChar: Iacute
Encoding: 205 205 173
Width: 399
Flags: W
LayerCount: 2
Fore
SplineSet
391 29 m 1,0,-1
 164 -13 l 1,1,2
 164 96 164 96 166.5 314 c 128,-1,3
 169 532 169 532 169 642 c 0,4,5
 169 882 169 882 164 976 c 0,6,7
 160 1061 160 1061 101 1056 c 1,8,-1
 101 1087 l 1,9,-1
 398 1131 l 1,10,-1
 391 29 l 1,0,-1
290 1214 m 1,11,-1
 209 1214 l 1,12,-1
 392 1444 l 1,13,-1
 503 1444 l 1,14,-1
 516 1427 l 1,15,-1
 290 1214 l 1,11,-1
EndSplineSet
EndChar

StartChar: Icircumflex
Encoding: 206 206 174
Width: 399
Flags: W
LayerCount: 2
Fore
SplineSet
391 29 m 1,0,-1
 164 -13 l 1,1,2
 164 96 164 96 166.5 314 c 128,-1,3
 169 532 169 532 169 642 c 0,4,5
 169 882 169 882 164 976 c 0,6,7
 160 1061 160 1061 101 1056 c 1,8,-1
 101 1087 l 1,9,-1
 398 1131 l 1,10,-1
 391 29 l 1,0,-1
307 1444 m 1,11,-1
 493 1214 l 1,12,-1
 389 1214 l 1,13,-1
 271 1352 l 1,14,-1
 172 1214 l 1,15,-1
 43 1214 l 1,16,-1
 19 1243 l 1,17,-1
 197 1445 l 1,18,-1
 307 1444 l 1,11,-1
EndSplineSet
EndChar

StartChar: Idieresis
Encoding: 207 207 175
Width: 399
Flags: W
LayerCount: 2
Fore
SplineSet
391 29 m 1,0,-1
 164 -13 l 1,1,2
 164 96 164 96 166.5 314 c 128,-1,3
 169 532 169 532 169 642 c 0,4,5
 169 882 169 882 164 976 c 0,6,7
 160 1061 160 1061 101 1056 c 1,8,-1
 101 1087 l 1,9,-1
 398 1131 l 1,10,-1
 391 29 l 1,0,-1
215 1339 m 1,11,-1
 130 1212 l 1,12,-1
 41 1277 l 1,13,-1
 122 1402 l 1,14,-1
 215 1339 l 1,11,-1
479 1339 m 1,15,-1
 396 1212 l 1,16,-1
 305 1277 l 1,17,-1
 387 1402 l 1,18,-1
 479 1339 l 1,15,-1
EndSplineSet
EndChar

StartChar: Igrave
Encoding: 204 204 176
Width: 399
Flags: W
LayerCount: 2
Fore
SplineSet
391 29 m 1,0,-1
 164 -13 l 1,1,2
 164 96 164 96 166.5 314 c 128,-1,3
 169 532 169 532 169 642 c 0,4,5
 169 882 169 882 164 976 c 0,6,7
 160 1061 160 1061 101 1056 c 1,8,-1
 101 1087 l 1,9,-1
 398 1131 l 1,10,-1
 391 29 l 1,0,-1
126 1445 m 1,11,-1
 309 1214 l 1,12,-1
 228 1214 l 1,13,-1
 4 1427 l 1,14,-1
 17 1445 l 1,15,-1
 126 1445 l 1,11,-1
EndSplineSet
EndChar

StartChar: Oacute
Encoding: 211 211 177
Width: 1205
Flags: W
LayerCount: 2
Fore
SplineSet
1225 576 m 0,0,1
 1225 143 1225 143 766 17 c 0,2,3
 637 -18 637 -18 590 -18 c 0,4,5
 566 -18 566 -18 514 -2 c 0,6,7
 326 55 326 55 223.5 196 c 128,-1,8
 121 337 121 337 121 534 c 0,9,10
 121 858 121 858 425 1029 c 0,11,12
 473 1056 473 1056 573 1099 c 0,13,14
 689 1148 689 1148 720 1148 c 0,15,16
 798 1148 798 1148 919 1086 c 0,17,18
 1032 1028 1032 1028 1090 966 c 0,19,20
 1225 820 1225 820 1225 576 c 0,0,1
795 77 m 1,21,22
 917 98 917 98 975 227 c 0,23,24
 1021 327 1021 327 1021 470 c 0,25,26
 1021 660 1021 660 952 778 c 0,27,28
 880 903 880 903 711 981 c 0,29,30
 610 1028 610 1028 542 1028 c 0,31,32
 433 1028 433 1028 379 863 c 0,33,34
 340 746 340 746 340 608 c 0,35,36
 340 360 340 360 449 243 c 0,37,38
 546 138 546 138 795 77 c 1,21,22
617 1214 m 5,39,-1
 536 1214 l 5,40,-1
 717 1444 l 5,41,-1
 827 1444 l 5,42,-1
 841 1427 l 5,43,-1
 617 1214 l 5,39,-1
EndSplineSet
EndChar

StartChar: Ocircumflex
Encoding: 212 212 178
Width: 1205
Flags: W
LayerCount: 2
Fore
SplineSet
1225 576 m 0,0,1
 1225 143 1225 143 766 17 c 0,2,3
 637 -18 637 -18 590 -18 c 0,4,5
 566 -18 566 -18 514 -2 c 0,6,7
 326 55 326 55 223.5 196 c 128,-1,8
 121 337 121 337 121 534 c 0,9,10
 121 858 121 858 425 1029 c 0,11,12
 473 1056 473 1056 573 1099 c 0,13,14
 689 1148 689 1148 720 1148 c 0,15,16
 798 1148 798 1148 919 1086 c 0,17,18
 1032 1028 1032 1028 1090 966 c 0,19,20
 1225 820 1225 820 1225 576 c 0,0,1
795 77 m 1,21,22
 917 98 917 98 975 227 c 0,23,24
 1021 327 1021 327 1021 470 c 0,25,26
 1021 660 1021 660 952 778 c 0,27,28
 880 903 880 903 711 981 c 0,29,30
 610 1028 610 1028 542 1028 c 0,31,32
 433 1028 433 1028 379 863 c 0,33,34
 340 746 340 746 340 608 c 0,35,36
 340 360 340 360 449 243 c 0,37,38
 546 138 546 138 795 77 c 1,21,22
733 1444 m 1,39,-1
 918 1214 l 1,40,-1
 814 1214 l 1,41,-1
 696 1352 l 1,42,-1
 597 1214 l 1,43,-1
 468 1214 l 1,44,-1
 445 1243 l 1,45,-1
 623 1444 l 1,46,-1
 733 1444 l 1,39,-1
EndSplineSet
EndChar

StartChar: Ograve
Encoding: 210 210 179
Width: 1205
Flags: W
LayerCount: 2
Fore
SplineSet
1225 576 m 0,0,1
 1225 143 1225 143 766 17 c 0,2,3
 637 -18 637 -18 590 -18 c 0,4,5
 566 -18 566 -18 514 -2 c 0,6,7
 326 55 326 55 223.5 196 c 128,-1,8
 121 337 121 337 121 534 c 0,9,10
 121 858 121 858 425 1029 c 0,11,12
 473 1056 473 1056 573 1099 c 0,13,14
 689 1148 689 1148 720 1148 c 0,15,16
 798 1148 798 1148 919 1086 c 0,17,18
 1032 1028 1032 1028 1090 966 c 0,19,20
 1225 820 1225 820 1225 576 c 0,0,1
795 77 m 1,21,22
 917 98 917 98 975 227 c 0,23,24
 1021 327 1021 327 1021 470 c 0,25,26
 1021 660 1021 660 952 778 c 0,27,28
 880 903 880 903 711 981 c 0,29,30
 610 1028 610 1028 542 1028 c 0,31,32
 433 1028 433 1028 379 863 c 0,33,34
 340 746 340 746 340 608 c 0,35,36
 340 360 340 360 449 243 c 0,37,38
 546 138 546 138 795 77 c 1,21,22
615 1444 m 1,39,-1
 798 1214 l 1,40,-1
 717 1214 l 1,41,-1
 493 1427 l 1,42,-1
 505 1444 l 1,43,-1
 615 1444 l 1,39,-1
EndSplineSet
EndChar

StartChar: Uacute
Encoding: 218 218 180
Width: 1151
Flags: W
LayerCount: 2
Fore
SplineSet
698 87 m 1,0,1
 893 227 893 227 893 477 c 2,2,-1
 893 1100 l 1,3,-1
 1129 1123 l 1,4,-1
 1114 348 l 2,5,6
 1112 278 1112 278 1130 216 c 0,7,8
 1155 130 1155 130 1208 130 c 0,9,10
 1223 130 1223 130 1239 137 c 1,11,-1
 1239 100 l 1,12,-1
 1042 6 l 1,13,14
 948 93 948 93 903 194 c 1,15,16
 831 130 831 130 729 66 c 0,17,18
 601 -15 601 -15 539 -15 c 0,19,20
 362 -15 362 -15 252 92 c 128,-1,21
 142 199 142 199 142 374 c 0,22,23
 142 447 142 447 156 591 c 128,-1,24
 170 735 170 735 170 808 c 0,25,26
 170 1063 170 1063 112 1056 c 1,27,-1
 112 1089 l 1,28,-1
 404 1123 l 1,29,30
 394 949 394 949 384 774 c 0,31,32
 372 564 372 564 372 425 c 0,33,34
 372 278 372 278 461 189.5 c 128,-1,35
 550 101 550 101 698 87 c 1,0,1
702 1214 m 1,36,-1
 621 1214 l 1,37,-1
 802 1444 l 1,38,-1
 913 1444 l 1,39,-1
 926 1427 l 1,40,-1
 702 1214 l 1,36,-1
EndSplineSet
EndChar

StartChar: Ucircumflex
Encoding: 219 219 181
Width: 1151
Flags: W
LayerCount: 2
Fore
SplineSet
692 87 m 1,0,1
 885 225 885 225 885 477 c 2,2,-1
 885 1100 l 1,3,-1
 1121 1123 l 1,4,-1
 1108 348 l 2,5,6
 1107 274 1107 274 1123 215 c 0,7,8
 1148 129 1148 129 1201 129 c 0,9,10
 1217 129 1217 129 1233 137 c 1,11,-1
 1233 100 l 1,12,-1
 1036 6 l 1,13,14
 945 88 945 88 895 194 c 1,15,16
 824 130 824 130 723 65 c 0,17,18
 596 -15 596 -15 534 -15 c 0,19,20
 352 -15 352 -15 244 93.5 c 128,-1,21
 136 202 136 202 136 381 c 0,22,23
 136 458 136 458 149 611.5 c 128,-1,24
 162 765 162 765 162 842 c 0,25,26
 162 1058 162 1058 104 1056 c 1,27,-1
 104 1089 l 1,28,-1
 398 1123 l 1,29,30
 388 949 388 949 378 774 c 0,31,32
 366 564 366 564 366 424 c 0,33,34
 366 278 366 278 457 188 c 0,35,36
 544 101 544 101 692 87 c 1,0,1
696 1444 m 1,37,-1
 884 1214 l 1,38,-1
 777 1214 l 1,39,-1
 659 1352 l 1,40,-1
 561 1214 l 1,41,-1
 433 1214 l 1,42,-1
 410 1243 l 1,43,-1
 588 1444 l 1,44,-1
 696 1444 l 1,37,-1
EndSplineSet
EndChar

StartChar: Ugrave
Encoding: 217 217 182
Width: 1151
Flags: W
LayerCount: 2
Fore
SplineSet
698 87 m 1,0,1
 893 227 893 227 893 477 c 2,2,-1
 893 1100 l 1,3,-1
 1129 1123 l 1,4,-1
 1114 348 l 2,5,6
 1112 278 1112 278 1130 216 c 0,7,8
 1155 130 1155 130 1208 130 c 0,9,10
 1223 130 1223 130 1239 137 c 1,11,-1
 1239 100 l 1,12,-1
 1042 6 l 1,13,14
 948 93 948 93 903 194 c 1,15,16
 831 130 831 130 729 66 c 0,17,18
 601 -15 601 -15 539 -15 c 0,19,20
 362 -15 362 -15 252 92 c 128,-1,21
 142 199 142 199 142 374 c 0,22,23
 142 447 142 447 156 591 c 128,-1,24
 170 735 170 735 170 808 c 0,25,26
 170 1063 170 1063 112 1056 c 1,27,-1
 112 1089 l 1,28,-1
 404 1123 l 1,29,30
 394 949 394 949 384 774 c 0,31,32
 372 564 372 564 372 425 c 0,33,34
 372 278 372 278 461 189.5 c 128,-1,35
 550 101 550 101 698 87 c 1,0,1
518 1444 m 1,36,-1
 702 1214 l 1,37,-1
 621 1214 l 1,38,-1
 396 1427 l 1,39,-1
 410 1444 l 1,40,-1
 518 1444 l 1,36,-1
EndSplineSet
EndChar

StartChar: circumflex
Encoding: 710 710 183
Width: 600
Flags: W
LayerCount: 2
Fore
SplineSet
404 1444 m 5,0,-1
 590 1214 l 5,1,-1
 485 1214 l 5,2,-1
 367 1352 l 5,3,-1
 267 1214 l 5,4,-1
 139 1214 l 5,5,-1
 116 1243 l 5,6,-1
 294 1444 l 5,7,-1
 404 1444 l 5,0,-1
EndSplineSet
EndChar

StartChar: tilde
Encoding: 732 732 184
Width: 641
Flags: W
LayerCount: 2
Fore
SplineSet
232 1223 m 1,0,-1
 137 1212 l 1,1,2
 137 1379 137 1379 259 1379 c 0,3,4
 320 1379 320 1379 412 1335 c 128,-1,5
 504 1291 504 1291 511 1291 c 0,6,7
 550 1291 550 1291 549 1375 c 1,8,-1
 646 1387 l 1,9,10
 641 1221 641 1221 520 1221 c 0,11,12
 462 1221 462 1221 372 1265 c 128,-1,13
 282 1309 282 1309 271 1309 c 0,14,15
 231 1309 231 1309 232 1223 c 1,0,-1
EndSplineSet
EndChar

StartChar: notequal
Encoding: 8800 8800 185
Width: 635
Flags: W
LayerCount: 2
Fore
SplineSet
450 1100 m 1,0,1
 557 1076 557 1076 634 1010 c 1,2,-1
 557 950 l 1,3,4
 437 1043 437 1043 373 1044 c 1,5,6
 231 984 231 984 231 801 c 0,7,8
 231 696 231 696 290 607 c 0,9,10
 355 510 355 510 454 494 c 1,11,12
 498 508 498 508 520 562 c 0,13,14
 535 609 535 609 549 656 c 1,15,-1
 648 635 l 1,16,17
 633 540 633 540 561 501 c 0,18,19
 510 474 510 474 398 465 c 1,20,-1
 398 342 l 1,21,-1
 365 342 l 1,22,-1
 365 464 l 1,23,24
 248 464 248 464 178 553 c 0,25,26
 113 636 113 636 113 758 c 0,27,28
 113 881 113 881 182 957 c 0,29,30
 239 1019 239 1019 365 1068 c 1,31,-1
 365 1198 l 1,32,-1
 398 1198 l 1,33,-1
 398 1079 l 1,34,-1
 450 1100 l 1,0,1
EndSplineSet
EndChar

StartChar: infinity
Encoding: 8734 8734 186
Width: 1139
Flags: W
LayerCount: 2
Fore
SplineSet
280 -231 m 1,0,-1
 468 -160 l 1,1,2
 468 -273 468 -273 529 -273 c 0,3,4
 597 -273 597 -273 688 17 c 1,5,-1
 566 6 l 1,6,7
 573 55 573 55 573 73 c 0,8,9
 573 112 573 112 408 448 c 0,10,11
 310 646 310 646 211 844 c 0,12,13
 153 963 153 963 77 996 c 1,14,-1
 77 1014 l 1,15,-1
 325 1123 l 1,16,-1
 766 200 l 1,17,18
 836 401 836 401 907 602 c 1,19,20
 977 829 977 829 977 1017 c 0,21,22
 977 1054 977 1054 974 1091 c 1,23,24
 1027 1085 1027 1085 1129 1091 c 1,25,26
 1128 1048 1128 1048 1116 1014 c 2,27,-1
 818 160 l 2,28,29
 782 52 782 52 746 -56 c 1,30,31
 694 -194 694 -194 633 -267 c 0,32,33
 553 -362 553 -362 445 -362 c 0,34,35
 387 -362 387 -362 336 -326 c 0,36,37
 281 -286 281 -286 280 -231 c 1,0,-1
704 1214 m 1,38,-1
 623 1214 l 1,39,-1
 804 1444 l 1,40,-1
 914 1444 l 1,41,-1
 928 1427 l 1,42,-1
 704 1214 l 1,38,-1
EndSplineSet
EndChar

StartChar: partialdiff
Encoding: 8706 8706 187
Width: 1174
Flags: W
LayerCount: 2
Fore
SplineSet
559 1421 m 1,0,-1
 539 1385 l 1,1,-1
 924 1048 l 2,2,3
 1198 808 1198 808 1198 560 c 0,4,5
 1198 370 1198 370 1090 233 c 0,6,7
 986 103 986 103 799 42 c 128,-1,8
 612 -19 612 -19 588 -19 c 0,9,10
 543 -19 543 -19 438 29 c 0,11,12
 341 73 341 73 298 108 c 0,13,14
 123 247 123 247 123 504 c 0,15,16
 123 705 123 705 248 828 c 0,17,18
 322 901 322 901 549 1019 c 1,19,-1
 566 994 l 1,20,21
 444 899 444 899 397 830 c 0,22,23
 334 736 334 736 334 606 c 0,24,25
 334 438 334 438 397 329 c 0,26,27
 461 217 461 217 607 137 c 0,28,29
 710 80 710 80 779 80 c 0,30,31
 895 80 895 80 955 243 c 0,32,33
 999 363 999 363 999 505 c 0,34,35
 999 634 999 634 914 741 c 0,36,37
 868 798 868 798 725 916 c 2,38,-1
 367 1210 l 2,39,40
 341 1232 341 1232 341 1252 c 0,41,42
 341 1275 341 1275 518 1456 c 1,43,-1
 559 1421 l 1,0,-1
EndSplineSet
EndChar

StartChar: radical
Encoding: 8730 8730 188
Width: 600
Flags: W
LayerCount: 2
Fore
SplineSet
130 1416 m 1,0,-1
 153 1445 l 1,1,-1
 280 1444 l 1,2,-1
 381 1304 l 1,3,-1
 499 1444 l 1,4,-1
 603 1444 l 1,5,-1
 418 1214 l 1,6,-1
 307 1214 l 1,7,-1
 130 1416 l 1,0,-1
EndSplineSet
EndChar

StartChar: fraction
Encoding: 8260 8260 189
Width: 1139
Flags: W
LayerCount: 2
Fore
SplineSet
280 -231 m 1,0,-1
 468 -160 l 1,1,2
 468 -273 468 -273 529 -273 c 0,3,4
 597 -273 597 -273 688 17 c 1,5,-1
 566 6 l 1,6,7
 573 55 573 55 573 73 c 0,8,9
 573 112 573 112 408 448 c 0,10,11
 310 646 310 646 211 844 c 0,12,13
 153 963 153 963 77 996 c 1,14,-1
 77 1014 l 1,15,-1
 325 1123 l 1,16,-1
 766 200 l 1,17,18
 836 401 836 401 907 602 c 1,19,20
 977 829 977 829 977 1017 c 0,21,22
 977 1054 977 1054 974 1091 c 1,23,24
 1027 1085 1027 1085 1129 1091 c 1,25,26
 1128 1048 1128 1048 1116 1014 c 2,27,-1
 818 160 l 2,28,29
 782 52 782 52 746 -56 c 1,30,31
 694 -194 694 -194 633 -267 c 0,32,33
 553 -362 553 -362 445 -362 c 0,34,35
 387 -362 387 -362 336 -326 c 0,36,37
 281 -286 281 -286 280 -231 c 1,0,-1
617 1344 m 1,38,-1
 532 1219 l 1,39,-1
 443 1283 l 1,40,-1
 524 1410 l 1,41,-1
 617 1344 l 1,38,-1
884 1344 m 1,42,-1
 798 1219 l 1,43,-1
 708 1283 l 1,44,-1
 789 1410 l 1,45,-1
 884 1344 l 1,42,-1
EndSplineSet
EndChar

StartChar: fi
Encoding: 61441 61441 190
Width: 529
Flags: W
LayerCount: 2
Fore
SplineSet
547 1087 m 1,0,1
 521 1005 521 1005 521 1005 c 1,2,3
 503 973 503 973 447 973 c 2,4,-1
 232 973 l 1,5,-1
 178 816 l 1,6,7
 283 883 283 883 334 883 c 0,8,9
 411 883 411 883 471 830.5 c 128,-1,10
 531 778 531 778 531 702 c 0,11,12
 531 607 531 607 425 520 c 0,13,14
 339 449 339 449 230 415 c 1,15,-1
 220 435 l 1,16,17
 318 491 318 491 355 531 c 0,18,19
 414 593 414 593 414 681 c 0,20,21
 414 802 414 802 245 802 c 0,22,23
 174 802 174 802 155 756 c 1,24,-1
 126 769 l 1,25,-1
 211 1077 l 1,26,27
 238 1077 238 1077 302 1075 c 0,28,29
 362 1072 362 1072 393 1072 c 0,30,31
 512 1072 512 1072 534 1091 c 1,32,-1
 547 1087 l 1,0,1
EndSplineSet
EndChar

StartChar: fl
Encoding: 61442 61442 191
Width: 529
Flags: W
LayerCount: 2
Fore
SplineSet
479 1127 m 1,0,1
 315 1004 315 1004 263 877 c 1,2,3
 390 916 390 916 396 916 c 0,4,5
 459 916 459 916 517 843 c 0,6,7
 572 774 572 774 572 710 c 0,8,9
 572 615 572 615 498.5 538 c 128,-1,10
 425 461 425 461 329 461 c 0,11,12
 232 461 232 461 170 534 c 0,13,14
 112 604 112 604 112 704 c 0,15,16
 112 960 112 960 466 1143 c 1,17,-1
 479 1127 l 1,0,1
484 644 m 0,18,19
 484 712 484 712 435 783 c 0,20,21
 381 861 381 861 316 861 c 0,22,23
 283 861 283 861 249 844 c 1,24,25
 225 789 225 789 225 731 c 0,26,27
 225 655 225 655 266 584 c 0,28,29
 314 501 314 501 385 501 c 0,30,31
 434 501 434 501 461 551 c 0,32,33
 484 592 484 592 484 644 c 0,18,19
EndSplineSet
EndChar

StartChar: apple
Encoding: 61440 61440 192
Width: 1240
Flags: W
LayerCount: 2
Fore
SplineSet
488 1337 m 1,0,-1
 488 1222 l 1,1,-1
 -62 1222 l 1,2,-1
 -62 1337 l 1,3,-1
 488 1337 l 1,0,-1
1185 1098 m 1,4,-1
 1185 975 l 1,5,-1
 -62 975 l 1,6,-1
 -62 1098 l 1,7,-1
 1185 1098 l 1,4,-1
1185 854 m 1,8,-1
 1185 732 l 1,9,-1
 -62 732 l 1,10,-1
 -62 854 l 1,11,-1
 1185 854 l 1,8,-1
1185 607 m 1,12,-1
 1185 486 l 1,13,-1
 -62 486 l 1,14,-1
 -62 607 l 1,15,-1
 1185 607 l 1,12,-1
1185 121 m 1,16,-1
 1185 0 l 1,17,-1
 -62 0 l 1,18,-1
 -62 121 l 1,19,-1
 1185 121 l 1,16,-1
1185 1337 m 1,20,-1
 1185 1222 l 1,21,-1
 637 1222 l 1,22,-1
 637 1337 l 1,23,-1
 1185 1337 l 1,20,-1
488 362 m 1,24,-1
 488 249 l 1,25,-1
 -62 249 l 1,26,-1
 -62 362 l 1,27,-1
 488 362 l 1,24,-1
1185 362 m 1,28,-1
 1185 249 l 1,29,-1
 637 249 l 1,30,-1
 637 362 l 1,31,-1
 1185 362 l 1,28,-1
EndSplineSet
EndChar

StartChar: dotlessi
Encoding: 305 305 193
Width: 399
Flags: W
LayerCount: 2
Fore
SplineSet
398 29 m 1,0,-1
 164 -13 l 1,1,2
 164 96 164 96 166.5 314 c 128,-1,3
 169 532 169 532 169 642 c 0,4,5
 169 882 169 882 164 976 c 0,6,7
 160 1061 160 1061 101 1056 c 1,8,-1
 101 1087 l 1,9,-1
 398 1131 l 1,10,-1
 398 29 l 1,0,-1
EndSplineSet
EndChar

StartChar: ring
Encoding: 730 730 194
Width: 511
Flags: W
LayerCount: 2
Fore
SplineSet
489 1446 m 0,0,1
 489 1381 489 1381 442 1331 c 128,-1,2
 395 1281 395 1281 330 1281 c 0,3,4
 256 1281 256 1281 206.5 1327 c 128,-1,5
 157 1373 157 1373 157 1446 c 0,6,7
 157 1512 157 1512 205.5 1560.5 c 128,-1,8
 254 1609 254 1609 320 1609 c 0,9,10
 389 1609 389 1609 439 1562 c 128,-1,11
 489 1515 489 1515 489 1446 c 0,0,1
213 1445 m 256,12,13
 213 1400 213 1400 246 1368.5 c 128,-1,14
 279 1337 279 1337 324 1337 c 256,15,16
 369 1337 369 1337 401 1369 c 128,-1,17
 433 1401 433 1401 433 1446 c 0,18,19
 433 1489 433 1489 400 1520.5 c 128,-1,20
 367 1552 367 1552 324 1552 c 0,21,22
 278 1552 278 1552 245.5 1521 c 128,-1,23
 213 1490 213 1490 213 1445 c 256,12,13
EndSplineSet
EndChar

StartChar: eogonek
Encoding: 281 281 195
Width: 1094
Flags: W
LayerCount: 2
Fore
SplineSet
828 57 m 5,0,-1
 1058 243 l 5,1,-1
 1058 138 l 5,2,-1
 920 20 l 5,3,-1
 1058 -80 l 5,4,-1
 1058 -208 l 5,5,-1
 1029 -231 l 5,6,-1
 828 -53 l 5,7,-1
 828 57 l 5,0,-1
943 846 m 1,8,9
 723 1048 723 1048 590 1048 c 0,10,11
 472 1048 472 1048 404 893 c 0,12,13
 350 769 350 769 352 635 c 1,14,15
 793 624 793 624 810 624 c 0,16,17
 897 624 897 624 990 671 c 1,18,-1
 1007 637 l 1,19,20
 832 517 832 517 581 517 c 0,21,22
 547 517 547 517 472 519 c 128,-1,23
 397 521 397 521 356 521 c 1,24,25
 370 377 370 377 425 293.5 c 128,-1,26
 480 210 480 210 607 135 c 0,27,28
 706 76 706 76 778 76 c 0,29,30
 876 76 876 76 923 170 c 0,31,32
 928 178 928 178 982 348 c 1,33,-1
 1119 300 l 1,34,35
 1069 131 1069 131 986 81 c 0,36,37
 946 56 946 56 737 12 c 0,38,39
 617 -14 617 -14 592 -14 c 0,40,41
 566 -14 566 -14 508 6 c 0,42,43
 125 137 125 137 125 556 c 0,44,45
 125 865 125 865 421 1025 c 0,46,47
 631 1139 631 1139 728 1139 c 0,48,49
 905 1139 905 1139 1087 971 c 1,50,-1
 943 846 l 1,8,9
EndSplineSet
EndChar

StartChar: sacute
Encoding: 347 347 196
Width: 875
Flags: W
LayerCount: 2
Fore
SplineSet
617 1214 m 5,0,-1
 536 1214 l 5,1,-1
 717 1444 l 5,2,-1
 827 1444 l 5,3,-1
 841 1427 l 5,4,-1
 617 1214 l 5,0,-1
737 744 m 1,5,-1
 704 764 l 1,6,7
 710 791 710 791 710 810 c 0,8,9
 710 853 710 853 568 942 c 0,10,11
 431 1029 431 1029 382 1029 c 0,12,13
 249 1029 249 1029 249 867 c 0,14,15
 249 796 249 796 443 699 c 1,16,17
 561 647 561 647 679 596 c 0,18,19
 816 534 816 534 840 515 c 0,20,21
 907 462 907 462 907 354 c 0,22,23
 907 168 907 168 759 70 c 0,24,25
 631 -15 631 -15 436 -15 c 0,26,27
 100 -15 100 -15 97 211 c 2,28,-1
 96 248 l 1,29,-1
 97 275 l 1,30,-1
 344 294 l 1,31,32
 327 202 327 202 327 176 c 0,33,34
 327 118 327 118 376 72.5 c 128,-1,35
 425 27 425 27 484 27 c 0,36,37
 579 27 579 27 633 93 c 0,38,39
 683 155 683 155 683 251 c 0,40,41
 683 337 683 337 534 404 c 0,42,43
 396 463 396 463 259 521 c 1,44,45
 110 603 110 603 110 725 c 0,46,47
 110 869 110 869 201 966 c 0,48,49
 250 1017 250 1017 369.5 1073.5 c 128,-1,50
 489 1130 489 1130 557 1130 c 0,51,52
 610 1130 610 1130 720 1065 c 0,53,54
 806 1015 806 1015 872 962 c 1,55,-1
 737 744 l 1,5,-1
EndSplineSet
EndChar

StartChar: Scircumflex
Encoding: 348 348 197
Width: 875
Flags: W
LayerCount: 2
Fore
SplineSet
617 1214 m 5,0,-1
 536 1214 l 5,1,-1
 717 1444 l 5,2,-1
 827 1444 l 5,3,-1
 841 1427 l 5,4,-1
 617 1214 l 5,0,-1
737 744 m 1,5,-1
 704 764 l 1,6,7
 710 791 710 791 710 810 c 0,8,9
 710 853 710 853 568 942 c 0,10,11
 431 1029 431 1029 382 1029 c 0,12,13
 249 1029 249 1029 249 867 c 0,14,15
 249 796 249 796 443 699 c 1,16,17
 561 647 561 647 679 596 c 0,18,19
 816 534 816 534 840 515 c 0,20,21
 907 462 907 462 907 354 c 0,22,23
 907 168 907 168 759 70 c 0,24,25
 631 -15 631 -15 436 -15 c 0,26,27
 100 -15 100 -15 97 211 c 2,28,-1
 96 248 l 1,29,-1
 97 275 l 1,30,-1
 344 294 l 1,31,32
 327 202 327 202 327 176 c 0,33,34
 327 118 327 118 376 72.5 c 128,-1,35
 425 27 425 27 484 27 c 0,36,37
 579 27 579 27 633 93 c 0,38,39
 683 155 683 155 683 251 c 0,40,41
 683 337 683 337 534 404 c 0,42,43
 396 463 396 463 259 521 c 1,44,45
 110 603 110 603 110 725 c 0,46,47
 110 869 110 869 201 966 c 0,48,49
 250 1017 250 1017 369.5 1073.5 c 128,-1,50
 489 1130 489 1130 557 1130 c 0,51,52
 610 1130 610 1130 720 1065 c 0,53,54
 806 1015 806 1015 872 962 c 1,55,-1
 737 744 l 1,5,-1
EndSplineSet
EndChar

StartChar: Eogonek
Encoding: 280 280 198
Width: 1094
Flags: W
LayerCount: 2
Fore
SplineSet
828 57 m 5,0,-1
 1058 243 l 5,1,-1
 1058 138 l 5,2,-1
 920 20 l 5,3,-1
 1058 -80 l 5,4,-1
 1058 -208 l 5,5,-1
 1029 -231 l 5,6,-1
 828 -53 l 5,7,-1
 828 57 l 5,0,-1
943 846 m 1,8,9
 723 1048 723 1048 590 1048 c 0,10,11
 472 1048 472 1048 404 893 c 0,12,13
 350 769 350 769 352 635 c 1,14,15
 793 624 793 624 810 624 c 0,16,17
 897 624 897 624 990 671 c 1,18,-1
 1007 637 l 1,19,20
 832 517 832 517 581 517 c 0,21,22
 547 517 547 517 472 519 c 128,-1,23
 397 521 397 521 356 521 c 1,24,25
 370 377 370 377 425 293.5 c 128,-1,26
 480 210 480 210 607 135 c 0,27,28
 706 76 706 76 778 76 c 0,29,30
 876 76 876 76 923 170 c 0,31,32
 928 178 928 178 982 348 c 1,33,-1
 1119 300 l 1,34,35
 1069 131 1069 131 986 81 c 0,36,37
 946 56 946 56 737 12 c 0,38,39
 617 -14 617 -14 592 -14 c 0,40,41
 566 -14 566 -14 508 6 c 0,42,43
 125 137 125 137 125 556 c 0,44,45
 125 865 125 865 421 1025 c 0,46,47
 631 1139 631 1139 728 1139 c 0,48,49
 905 1139 905 1139 1087 971 c 1,50,-1
 943 846 l 1,8,9
EndSplineSet
EndChar

StartChar: Aogonek
Encoding: 260 260 199
Width: 1071
Flags: W
LayerCount: 2
Fore
SplineSet
762.224609375 -34.431640625 m 5,0,-1
 958 123.890625 l 5,1,-1
 958 34.5146484375 l 5,2,-1
 840.534179688 -65.9267578125 l 5,3,-1
 958 -151.046875 l 5,4,-1
 958 -260 l 5,5,-1
 933.315429688 -279.578125 l 5,6,-1
 762.224609375 -128.064453125 l 5,7,-1
 762.224609375 -34.431640625 l 5,0,-1
889 -27 m 1,8,9
 870.744123394 -5.04003248787 870.744123394 -5.04003248787 851.99823645 20 c 1,10,11
 799.892077941 89.6013960728 799.892077941 89.6013960728 744 183 c 1,12,13
 425 -13 425 -13 290 -13 c 0,14,15
 227 -13 227 -13 163 52 c 128,-1,16
 99 117 99 117 99 180 c 0,17,18
 99 402 99 402 595 610 c 1,19,20
 573 698 573 698 516 867 c 1,21,22
 495 916 495 916 461 939 c 0,23,24
 423 961 423 961 385 983 c 1,25,-1
 290 923 l 1,26,-1
 267 954 l 1,27,28
 360 1035 360 1035 386 1053 c 0,29,30
 465 1108 465 1108 525 1108 c 0,31,32
 669 1108 669 1108 758 842 c 2,33,-1
 918 364 l 2,34,35
 951 266 951 266 1069 96 c 1,36,-1
 889 -27 l 1,8,9
290 312 m 256,37,38
 290 211 290 211 431 94 c 1,39,40
 527 94 527 94 606 149 c 0,41,42
 694 209 694 209 698 300 c 1,43,-1
 624 519 l 1,44,45
 511 519 511 519 413 472 c 0,46,47
 290 413 290 413 290 312 c 256,37,38
EndSplineSet
EndChar

StartChar: aogonek
Encoding: 261 261 200
Width: 1071
Flags: W
LayerCount: 2
Fore
SplineSet
762.224609375 -34.431640625 m 5,0,-1
 958 123.890625 l 5,1,-1
 958 34.5146484375 l 5,2,-1
 840.534179688 -65.9267578125 l 5,3,-1
 958 -151.046875 l 5,4,-1
 958 -260 l 5,5,-1
 933.315429688 -279.578125 l 5,6,-1
 762.224609375 -128.064453125 l 5,7,-1
 762.224609375 -34.431640625 l 5,0,-1
889 -27 m 1,8,9
 870.744123394 -5.04003248787 870.744123394 -5.04003248787 851.99823645 20 c 1,10,11
 799.892077941 89.6013960728 799.892077941 89.6013960728 744 183 c 1,12,13
 425 -13 425 -13 290 -13 c 0,14,15
 227 -13 227 -13 163 52 c 128,-1,16
 99 117 99 117 99 180 c 0,17,18
 99 402 99 402 595 610 c 1,19,20
 573 698 573 698 516 867 c 1,21,22
 495 916 495 916 461 939 c 0,23,24
 423 961 423 961 385 983 c 1,25,-1
 290 923 l 1,26,-1
 267 954 l 1,27,28
 360 1035 360 1035 386 1053 c 0,29,30
 465 1108 465 1108 525 1108 c 0,31,32
 669 1108 669 1108 758 842 c 2,33,-1
 918 364 l 2,34,35
 951 266 951 266 1069 96 c 1,36,-1
 889 -27 l 1,8,9
290 312 m 256,37,38
 290 211 290 211 431 94 c 1,39,40
 527 94 527 94 606 149 c 0,41,42
 694 209 694 209 698 300 c 1,43,-1
 624 519 l 1,44,45
 511 519 511 519 413 472 c 0,46,47
 290 413 290 413 290 312 c 256,37,38
EndSplineSet
EndChar

StartChar: Lslash
Encoding: 321 321 201
Width: 676
Flags: WO
LayerCount: 2
Fore
SplineSet
574.012695312 843.923828125 m 5,0,-1
 624 696 l 5,1,2
 563.888671875 685.391601562 563.888671875 685.391601562 443.37109375 665.850585938 c 132,-1,3
 322.852539062 646.309570312 322.852539062 646.309570312 262.190429688 635.604492188 c 4,4,5
 129.834960938 612.247070312 129.834960938 612.247070312 78.5869140625 599.750976562 c 4,6,7
 32.1845703125 588.799804688 32.1845703125 588.799804688 41.9140625 549.77734375 c 5,8,-1
 24.818359375 546.759765625 l 5,9,-1
 -34.5439453125 741.365234375 l 5,10,-1
 574.012695312 843.923828125 l 5,0,-1
168 -6 m 1,11,12
 168 113 168 113 170.5 349.5 c 128,-1,13
 173 586 173 586 173 705 c 0,14,15
 173 1307 173 1307 99 1320 c 0,16,17
 97 1320 97 1320 68 1319 c 1,18,-1
 60 1350 l 1,19,-1
 331 1425 l 1,20,21
 425 1166 425 1166 425 796 c 0,22,23
 425 681 425 681 418.5 449.5 c 128,-1,24
 412 218 412 218 412 104 c 1,25,26
 522 72 522 72 536 72 c 0,27,28
 571 72 571 72 621 100 c 0,29,30
 661 124 661 124 700 148 c 1,31,-1
 729 117 l 1,32,33
 679 68 679 68 629 19 c 1,34,35
 590 -8 590 -8 503 -8 c 0,36,37
 469 -8 469 -8 402 -2 c 128,-1,38
 335 4 335 4 302 4 c 0,39,40
 296 4 296 4 168 -6 c 1,11,12
EndSplineSet
EndChar

StartChar: lslash
Encoding: 322 322 202
Width: 676
Flags: W
LayerCount: 2
Fore
SplineSet
574.012695312 843.923828125 m 5,0,-1
 624 696 l 5,1,2
 563.888671875 685.391601562 563.888671875 685.391601562 443.37109375 665.850585938 c 132,-1,3
 322.852539062 646.309570312 322.852539062 646.309570312 262.190429688 635.604492188 c 4,4,5
 129.834960938 612.247070312 129.834960938 612.247070312 78.5869140625 599.750976562 c 4,6,7
 32.1845703125 588.799804688 32.1845703125 588.799804688 41.9140625 549.77734375 c 5,8,-1
 24.818359375 546.759765625 l 5,9,-1
 -34.5439453125 741.365234375 l 5,10,-1
 574.012695312 843.923828125 l 5,0,-1
168 -6 m 1,11,12
 168 113 168 113 170.5 349.5 c 128,-1,13
 173 586 173 586 173 705 c 0,14,15
 173 1307 173 1307 99 1320 c 0,16,17
 97 1320 97 1320 68 1319 c 1,18,-1
 60 1350 l 1,19,-1
 331 1425 l 1,20,21
 425 1166 425 1166 425 796 c 0,22,23
 425 681 425 681 418.5 449.5 c 128,-1,24
 412 218 412 218 412 104 c 1,25,26
 522 72 522 72 536 72 c 0,27,28
 571 72 571 72 621 100 c 0,29,30
 661 124 661 124 700 148 c 1,31,-1
 729 117 l 1,32,33
 679 68 679 68 629 19 c 1,34,35
 590 -8 590 -8 503 -8 c 0,36,37
 469 -8 469 -8 402 -2 c 128,-1,38
 335 4 335 4 302 4 c 0,39,40
 296 4 296 4 168 -6 c 1,11,12
EndSplineSet
EndChar

StartChar: Nacute
Encoding: 323 323 203
Width: 1158
Flags: W
LayerCount: 2
Fore
SplineSet
617 1214 m 5,0,-1
 536 1214 l 5,1,-1
 717 1444 l 5,2,-1
 827 1444 l 5,3,-1
 841 1427 l 5,4,-1
 617 1214 l 5,0,-1
1168 73 m 1,5,-1
 1168 38 l 1,6,7
 1166 38 1166 38 1056 14 c 0,8,9
 988 -1 988 -1 942 -1 c 0,10,11
 876 -1 876 -1 876 67 c 0,12,13
 876 171 876 171 904.5 381 c 128,-1,14
 933 591 933 591 933 695 c 0,15,16
 933 803 933 803 826 897 c 0,17,18
 721 988 721 988 609 988 c 0,19,20
 510 988 510 988 449 826 c 0,21,22
 405 706 405 706 400 579 c 2,23,-1
 381 8 l 1,24,-1
 168 -15 l 1,25,26
 169 64 169 64 174 288 c 0,27,28
 179 479 179 479 179 592 c 0,29,30
 179 744 179 744 168 801 c 0,31,32
 159 848 159 848 104 998 c 1,33,-1
 72 1000 l 1,34,-1
 66 1033 l 1,35,-1
 321 1104 l 1,36,37
 366 993 366 993 398 894 c 1,38,39
 658 1121 658 1121 777 1121 c 0,40,41
 811 1121 811 1121 901 1073 c 0,42,43
 1034 1002 1034 1002 1091 929 c 0,44,45
 1159 840 1159 840 1159 703 c 0,46,47
 1159 609 1159 609 1129 425 c 128,-1,48
 1099 241 1099 241 1099 147 c 0,49,50
 1099 87 1099 87 1133 73 c 1,51,-1
 1168 73 l 1,5,-1
EndSplineSet
EndChar

StartChar: nacute
Encoding: 324 324 204
Width: 1158
Flags: W
LayerCount: 2
Fore
SplineSet
617 1214 m 5,0,-1
 536 1214 l 5,1,-1
 717 1444 l 5,2,-1
 827 1444 l 5,3,-1
 841 1427 l 5,4,-1
 617 1214 l 5,0,-1
1168 73 m 1,5,-1
 1168 38 l 1,6,7
 1166 38 1166 38 1056 14 c 0,8,9
 988 -1 988 -1 942 -1 c 0,10,11
 876 -1 876 -1 876 67 c 0,12,13
 876 171 876 171 904.5 381 c 128,-1,14
 933 591 933 591 933 695 c 0,15,16
 933 803 933 803 826 897 c 0,17,18
 721 988 721 988 609 988 c 0,19,20
 510 988 510 988 449 826 c 0,21,22
 405 706 405 706 400 579 c 2,23,-1
 381 8 l 1,24,-1
 168 -15 l 1,25,26
 169 64 169 64 174 288 c 0,27,28
 179 479 179 479 179 592 c 0,29,30
 179 744 179 744 168 801 c 0,31,32
 159 848 159 848 104 998 c 1,33,-1
 72 1000 l 1,34,-1
 66 1033 l 1,35,-1
 321 1104 l 1,36,37
 366 993 366 993 398 894 c 1,38,39
 658 1121 658 1121 777 1121 c 0,40,41
 811 1121 811 1121 901 1073 c 0,42,43
 1034 1002 1034 1002 1091 929 c 0,44,45
 1159 840 1159 840 1159 703 c 0,46,47
 1159 609 1159 609 1129 425 c 128,-1,48
 1099 241 1099 241 1099 147 c 0,49,50
 1099 87 1099 87 1133 73 c 1,51,-1
 1168 73 l 1,5,-1
EndSplineSet
EndChar

StartChar: zdotaccent
Encoding: 380 380 205
Width: 1042
Flags: W
LayerCount: 2
Fore
SplineSet
738 1376 m 5,0,-1
 620 1203 l 5,1,-1
 497 1291 l 5,2,-1
 611 1462 l 5,3,-1
 738 1376 l 5,0,-1
967 1108 m 1,4,-1
 1017 1075 l 1,5,-1
 1034 1021 l 1,6,-1
 362 106 l 1,7,8
 667 46 667 46 746 46 c 0,9,10
 834 46 834 46 862 91 c 0,11,12
 879 119 879 119 889 219 c 1,13,-1
 1044 219 l 1,14,15
 1045 92 1045 92 978 37 c 0,16,17
 916 -14 916 -14 784 -14 c 0,18,19
 692 -14 692 -14 515.5 2.5 c 128,-1,20
 339 19 339 19 246 19 c 0,21,22
 213 19 213 19 182 17 c 1,23,-1
 101 121 l 1,24,-1
 773 1044 l 1,25,-1
 381 1044 l 2,26,27
 264 1044 264 1044 166 1014 c 1,28,-1
 178 1108 l 1,29,-1
 967 1108 l 1,4,-1
EndSplineSet
EndChar

StartChar: Zdotaccent
Encoding: 379 379 206
Width: 1042
Flags: W
LayerCount: 2
Fore
SplineSet
738 1376 m 5,0,-1
 620 1203 l 5,1,-1
 497 1291 l 5,2,-1
 611 1462 l 5,3,-1
 738 1376 l 5,0,-1
967 1108 m 1,4,-1
 1017 1075 l 1,5,-1
 1034 1021 l 1,6,-1
 362 106 l 1,7,8
 667 46 667 46 746 46 c 0,9,10
 834 46 834 46 862 91 c 0,11,12
 879 119 879 119 889 219 c 1,13,-1
 1044 219 l 1,14,15
 1045 92 1045 92 978 37 c 0,16,17
 916 -14 916 -14 784 -14 c 0,18,19
 692 -14 692 -14 515.5 2.5 c 128,-1,20
 339 19 339 19 246 19 c 0,21,22
 213 19 213 19 182 17 c 1,23,-1
 101 121 l 1,24,-1
 773 1044 l 1,25,-1
 381 1044 l 2,26,27
 264 1044 264 1044 166 1014 c 1,28,-1
 178 1108 l 1,29,-1
 967 1108 l 1,4,-1
EndSplineSet
EndChar

StartChar: zacute
Encoding: 378 378 207
Width: 1042
Flags: W
LayerCount: 2
Fore
SplineSet
617 1214 m 5,0,-1
 536 1214 l 5,1,-1
 717 1444 l 5,2,-1
 827 1444 l 5,3,-1
 841 1427 l 5,4,-1
 617 1214 l 5,0,-1
967 1108 m 1,5,-1
 1017 1075 l 1,6,-1
 1034 1021 l 1,7,-1
 362 106 l 1,8,9
 667 46 667 46 746 46 c 0,10,11
 834 46 834 46 862 91 c 0,12,13
 879 119 879 119 889 219 c 1,14,-1
 1044 219 l 1,15,16
 1045 92 1045 92 978 37 c 0,17,18
 916 -14 916 -14 784 -14 c 0,19,20
 692 -14 692 -14 515.5 2.5 c 128,-1,21
 339 19 339 19 246 19 c 0,22,23
 213 19 213 19 182 17 c 1,24,-1
 101 121 l 1,25,-1
 773 1044 l 1,26,-1
 381 1044 l 2,27,28
 264 1044 264 1044 166 1014 c 1,29,-1
 178 1108 l 1,30,-1
 967 1108 l 1,5,-1
EndSplineSet
EndChar

StartChar: Zacute
Encoding: 377 377 208
Width: 1042
Flags: W
LayerCount: 2
Fore
SplineSet
617 1214 m 5,0,-1
 536 1214 l 5,1,-1
 717 1444 l 5,2,-1
 827 1444 l 5,3,-1
 841 1427 l 5,4,-1
 617 1214 l 5,0,-1
967 1108 m 1,5,-1
 1017 1075 l 1,6,-1
 1034 1021 l 1,7,-1
 362 106 l 1,8,9
 667 46 667 46 746 46 c 0,10,11
 834 46 834 46 862 91 c 0,12,13
 879 119 879 119 889 219 c 1,14,-1
 1044 219 l 1,15,16
 1045 92 1045 92 978 37 c 0,17,18
 916 -14 916 -14 784 -14 c 0,19,20
 692 -14 692 -14 515.5 2.5 c 128,-1,21
 339 19 339 19 246 19 c 0,22,23
 213 19 213 19 182 17 c 1,24,-1
 101 121 l 1,25,-1
 773 1044 l 1,26,-1
 381 1044 l 2,27,28
 264 1044 264 1044 166 1014 c 1,29,-1
 178 1108 l 1,30,-1
 967 1108 l 1,5,-1
EndSplineSet
EndChar

StartChar: Cacute
Encoding: 262 262 209
Width: 1054
Flags: W
LayerCount: 2
Fore
SplineSet
617 1214 m 5,0,-1
 536 1214 l 5,1,-1
 717 1444 l 5,2,-1
 827 1444 l 5,3,-1
 841 1427 l 5,4,-1
 617 1214 l 5,0,-1
922 869 m 1,5,6
 694 1042 694 1042 588 1044 c 1,7,8
 434 976 434 976 378 860 c 0,9,10
 330 763 330 763 330 576 c 0,11,12
 330 395 330 395 443 238 c 0,13,14
 562 74 562 74 737 42 c 1,15,16
 860 81 860 81 909 337 c 1,17,-1
 1088 298 l 1,18,19
 1047 -16 1047 -16 561 -16 c 0,20,21
 364 -16 364 -16 234 158 c 0,22,23
 115 318 115 318 115 522 c 0,24,25
 115 741 115 741 237 879 c 0,26,27
 342 999 342 999 563 1081 c 0,28,29
 619 1099 619 1099 729 1143 c 1,30,31
 925 1099 925 1099 1065 979 c 1,32,-1
 922 869 l 1,5,6
EndSplineSet
EndChar

StartChar: cacute
Encoding: 263 263 210
Width: 1054
Flags: W
LayerCount: 2
Fore
SplineSet
617 1214 m 5,0,-1
 536 1214 l 5,1,-1
 717 1444 l 5,2,-1
 827 1444 l 5,3,-1
 841 1427 l 5,4,-1
 617 1214 l 5,0,-1
922 869 m 1,5,6
 694 1042 694 1042 588 1044 c 1,7,8
 434 976 434 976 378 860 c 0,9,10
 330 763 330 763 330 576 c 0,11,12
 330 395 330 395 443 238 c 0,13,14
 562 74 562 74 737 42 c 1,15,16
 860 81 860 81 909 337 c 1,17,-1
 1088 298 l 1,18,19
 1047 -16 1047 -16 561 -16 c 0,20,21
 364 -16 364 -16 234 158 c 0,22,23
 115 318 115 318 115 522 c 0,24,25
 115 741 115 741 237 879 c 0,26,27
 342 999 342 999 563 1081 c 0,28,29
 619 1099 619 1099 729 1143 c 1,30,31
 925 1099 925 1099 1065 979 c 1,32,-1
 922 869 l 1,5,6
EndSplineSet
EndChar
